%TF.GenerationSoftware,KiCad,Pcbnew,10.0.6-1.fc44*%
%TF.CreationDate,2026-09-12T17:57:59+03:00*%
%TF.ProjectId,adex_resonant_core,61646578-5f72-4657-936f-6e616e745f63,rev?*%
%TF.SameCoordinates,Original*%
%TF.FileFunction,Legend,Top*%
%TF.FilePolarity,Positive*%
%FSLAX46Y46*%
G04 Gerber Fmt 4.6, Leading zero omitted, Abs format (unit mm)*
G04 Created by KiCad (PCBNEW 10.0.6-1.fc44) date 2026-09-12 17:57:59*
%MOMM*%
%LPD*%
G01*
G04 APERTURE LIST*
%ADD10C,0.090000*%
G04 APERTURE END LIST*
D10*
X63928571Y-8476629D02*
X63928571Y-7976629D01*
X63928571Y-7976629D02*
X64214285Y-8476629D01*
X64214285Y-8476629D02*
X64214285Y-7976629D01*
X64666667Y-8143296D02*
X64666667Y-8476629D01*
X64547619Y-7952820D02*
X64428572Y-8309962D01*
X64428572Y-8309962D02*
X64738095Y-8309962D01*
X64809524Y-8524248D02*
X65190476Y-8524248D01*
X65642856Y-8524248D02*
X65595237Y-8500439D01*
X65595237Y-8500439D02*
X65547618Y-8452820D01*
X65547618Y-8452820D02*
X65476190Y-8381391D01*
X65476190Y-8381391D02*
X65428571Y-8357581D01*
X65428571Y-8357581D02*
X65380952Y-8357581D01*
X65404761Y-8476629D02*
X65357142Y-8452820D01*
X65357142Y-8452820D02*
X65309523Y-8405200D01*
X65309523Y-8405200D02*
X65285714Y-8309962D01*
X65285714Y-8309962D02*
X65285714Y-8143296D01*
X65285714Y-8143296D02*
X65309523Y-8048058D01*
X65309523Y-8048058D02*
X65357142Y-8000439D01*
X65357142Y-8000439D02*
X65404761Y-7976629D01*
X65404761Y-7976629D02*
X65499999Y-7976629D01*
X65499999Y-7976629D02*
X65547618Y-8000439D01*
X65547618Y-8000439D02*
X65595237Y-8048058D01*
X65595237Y-8048058D02*
X65619047Y-8143296D01*
X65619047Y-8143296D02*
X65619047Y-8309962D01*
X65619047Y-8309962D02*
X65595237Y-8405200D01*
X65595237Y-8405200D02*
X65547618Y-8452820D01*
X65547618Y-8452820D02*
X65499999Y-8476629D01*
X65499999Y-8476629D02*
X65404761Y-8476629D01*
X65809524Y-8024248D02*
X65833333Y-8000439D01*
X65833333Y-8000439D02*
X65880952Y-7976629D01*
X65880952Y-7976629D02*
X66000000Y-7976629D01*
X66000000Y-7976629D02*
X66047619Y-8000439D01*
X66047619Y-8000439D02*
X66071428Y-8024248D01*
X66071428Y-8024248D02*
X66095238Y-8071867D01*
X66095238Y-8071867D02*
X66095238Y-8119486D01*
X66095238Y-8119486D02*
X66071428Y-8190915D01*
X66071428Y-8190915D02*
X65785714Y-8476629D01*
X65785714Y-8476629D02*
X66095238Y-8476629D01*
X51928571Y-20976629D02*
X51928571Y-20476629D01*
X51928571Y-20476629D02*
X52214285Y-20976629D01*
X52214285Y-20976629D02*
X52214285Y-20476629D01*
X52523810Y-20690915D02*
X52476191Y-20667105D01*
X52476191Y-20667105D02*
X52452381Y-20643296D01*
X52452381Y-20643296D02*
X52428572Y-20595677D01*
X52428572Y-20595677D02*
X52428572Y-20571867D01*
X52428572Y-20571867D02*
X52452381Y-20524248D01*
X52452381Y-20524248D02*
X52476191Y-20500439D01*
X52476191Y-20500439D02*
X52523810Y-20476629D01*
X52523810Y-20476629D02*
X52619048Y-20476629D01*
X52619048Y-20476629D02*
X52666667Y-20500439D01*
X52666667Y-20500439D02*
X52690476Y-20524248D01*
X52690476Y-20524248D02*
X52714286Y-20571867D01*
X52714286Y-20571867D02*
X52714286Y-20595677D01*
X52714286Y-20595677D02*
X52690476Y-20643296D01*
X52690476Y-20643296D02*
X52666667Y-20667105D01*
X52666667Y-20667105D02*
X52619048Y-20690915D01*
X52619048Y-20690915D02*
X52523810Y-20690915D01*
X52523810Y-20690915D02*
X52476191Y-20714724D01*
X52476191Y-20714724D02*
X52452381Y-20738534D01*
X52452381Y-20738534D02*
X52428572Y-20786153D01*
X52428572Y-20786153D02*
X52428572Y-20881391D01*
X52428572Y-20881391D02*
X52452381Y-20929010D01*
X52452381Y-20929010D02*
X52476191Y-20952820D01*
X52476191Y-20952820D02*
X52523810Y-20976629D01*
X52523810Y-20976629D02*
X52619048Y-20976629D01*
X52619048Y-20976629D02*
X52666667Y-20952820D01*
X52666667Y-20952820D02*
X52690476Y-20929010D01*
X52690476Y-20929010D02*
X52714286Y-20881391D01*
X52714286Y-20881391D02*
X52714286Y-20786153D01*
X52714286Y-20786153D02*
X52690476Y-20738534D01*
X52690476Y-20738534D02*
X52666667Y-20714724D01*
X52666667Y-20714724D02*
X52619048Y-20690915D01*
X52809524Y-21024248D02*
X53190476Y-21024248D01*
X53642856Y-21024248D02*
X53595237Y-21000439D01*
X53595237Y-21000439D02*
X53547618Y-20952820D01*
X53547618Y-20952820D02*
X53476190Y-20881391D01*
X53476190Y-20881391D02*
X53428571Y-20857581D01*
X53428571Y-20857581D02*
X53380952Y-20857581D01*
X53404761Y-20976629D02*
X53357142Y-20952820D01*
X53357142Y-20952820D02*
X53309523Y-20905200D01*
X53309523Y-20905200D02*
X53285714Y-20809962D01*
X53285714Y-20809962D02*
X53285714Y-20643296D01*
X53285714Y-20643296D02*
X53309523Y-20548058D01*
X53309523Y-20548058D02*
X53357142Y-20500439D01*
X53357142Y-20500439D02*
X53404761Y-20476629D01*
X53404761Y-20476629D02*
X53499999Y-20476629D01*
X53499999Y-20476629D02*
X53547618Y-20500439D01*
X53547618Y-20500439D02*
X53595237Y-20548058D01*
X53595237Y-20548058D02*
X53619047Y-20643296D01*
X53619047Y-20643296D02*
X53619047Y-20809962D01*
X53619047Y-20809962D02*
X53595237Y-20905200D01*
X53595237Y-20905200D02*
X53547618Y-20952820D01*
X53547618Y-20952820D02*
X53499999Y-20976629D01*
X53499999Y-20976629D02*
X53404761Y-20976629D01*
X54095238Y-20976629D02*
X53809524Y-20976629D01*
X53952381Y-20976629D02*
X53952381Y-20476629D01*
X53952381Y-20476629D02*
X53904762Y-20548058D01*
X53904762Y-20548058D02*
X53857143Y-20595677D01*
X53857143Y-20595677D02*
X53809524Y-20619486D01*
X57928571Y-12001629D02*
X57928571Y-11501629D01*
X57928571Y-11501629D02*
X58214285Y-12001629D01*
X58214285Y-12001629D02*
X58214285Y-11501629D01*
X58666667Y-11668296D02*
X58666667Y-12001629D01*
X58547619Y-11477820D02*
X58428572Y-11834962D01*
X58428572Y-11834962D02*
X58738095Y-11834962D01*
X58809524Y-12049248D02*
X59190476Y-12049248D01*
X59309523Y-11501629D02*
X59309523Y-11906391D01*
X59309523Y-11906391D02*
X59333333Y-11954010D01*
X59333333Y-11954010D02*
X59357142Y-11977820D01*
X59357142Y-11977820D02*
X59404761Y-12001629D01*
X59404761Y-12001629D02*
X59499999Y-12001629D01*
X59499999Y-12001629D02*
X59547618Y-11977820D01*
X59547618Y-11977820D02*
X59571428Y-11954010D01*
X59571428Y-11954010D02*
X59595237Y-11906391D01*
X59595237Y-11906391D02*
X59595237Y-11501629D01*
X60095238Y-12001629D02*
X59809524Y-12001629D01*
X59952381Y-12001629D02*
X59952381Y-11501629D01*
X59952381Y-11501629D02*
X59904762Y-11573058D01*
X59904762Y-11573058D02*
X59857143Y-11620677D01*
X59857143Y-11620677D02*
X59809524Y-11644486D01*
X51690476Y-45976629D02*
X51690476Y-45476629D01*
X51690476Y-45476629D02*
X51976190Y-45976629D01*
X51976190Y-45976629D02*
X51976190Y-45476629D01*
X52476191Y-45976629D02*
X52190477Y-45976629D01*
X52333334Y-45976629D02*
X52333334Y-45476629D01*
X52333334Y-45476629D02*
X52285715Y-45548058D01*
X52285715Y-45548058D02*
X52238096Y-45595677D01*
X52238096Y-45595677D02*
X52190477Y-45619486D01*
X52904762Y-45476629D02*
X52809524Y-45476629D01*
X52809524Y-45476629D02*
X52761905Y-45500439D01*
X52761905Y-45500439D02*
X52738095Y-45524248D01*
X52738095Y-45524248D02*
X52690476Y-45595677D01*
X52690476Y-45595677D02*
X52666667Y-45690915D01*
X52666667Y-45690915D02*
X52666667Y-45881391D01*
X52666667Y-45881391D02*
X52690476Y-45929010D01*
X52690476Y-45929010D02*
X52714286Y-45952820D01*
X52714286Y-45952820D02*
X52761905Y-45976629D01*
X52761905Y-45976629D02*
X52857143Y-45976629D01*
X52857143Y-45976629D02*
X52904762Y-45952820D01*
X52904762Y-45952820D02*
X52928571Y-45929010D01*
X52928571Y-45929010D02*
X52952381Y-45881391D01*
X52952381Y-45881391D02*
X52952381Y-45762343D01*
X52952381Y-45762343D02*
X52928571Y-45714724D01*
X52928571Y-45714724D02*
X52904762Y-45690915D01*
X52904762Y-45690915D02*
X52857143Y-45667105D01*
X52857143Y-45667105D02*
X52761905Y-45667105D01*
X52761905Y-45667105D02*
X52714286Y-45690915D01*
X52714286Y-45690915D02*
X52690476Y-45714724D01*
X52690476Y-45714724D02*
X52666667Y-45762343D01*
X53047619Y-46024248D02*
X53428571Y-46024248D01*
X53880951Y-46024248D02*
X53833332Y-46000439D01*
X53833332Y-46000439D02*
X53785713Y-45952820D01*
X53785713Y-45952820D02*
X53714285Y-45881391D01*
X53714285Y-45881391D02*
X53666666Y-45857581D01*
X53666666Y-45857581D02*
X53619047Y-45857581D01*
X53642856Y-45976629D02*
X53595237Y-45952820D01*
X53595237Y-45952820D02*
X53547618Y-45905200D01*
X53547618Y-45905200D02*
X53523809Y-45809962D01*
X53523809Y-45809962D02*
X53523809Y-45643296D01*
X53523809Y-45643296D02*
X53547618Y-45548058D01*
X53547618Y-45548058D02*
X53595237Y-45500439D01*
X53595237Y-45500439D02*
X53642856Y-45476629D01*
X53642856Y-45476629D02*
X53738094Y-45476629D01*
X53738094Y-45476629D02*
X53785713Y-45500439D01*
X53785713Y-45500439D02*
X53833332Y-45548058D01*
X53833332Y-45548058D02*
X53857142Y-45643296D01*
X53857142Y-45643296D02*
X53857142Y-45809962D01*
X53857142Y-45809962D02*
X53833332Y-45905200D01*
X53833332Y-45905200D02*
X53785713Y-45952820D01*
X53785713Y-45952820D02*
X53738094Y-45976629D01*
X53738094Y-45976629D02*
X53642856Y-45976629D01*
X54333333Y-45976629D02*
X54047619Y-45976629D01*
X54190476Y-45976629D02*
X54190476Y-45476629D01*
X54190476Y-45476629D02*
X54142857Y-45548058D01*
X54142857Y-45548058D02*
X54095238Y-45595677D01*
X54095238Y-45595677D02*
X54047619Y-45619486D01*
X3690476Y-45976629D02*
X3690476Y-45476629D01*
X3690476Y-45476629D02*
X3976190Y-45976629D01*
X3976190Y-45976629D02*
X3976190Y-45476629D01*
X4476191Y-45976629D02*
X4190477Y-45976629D01*
X4333334Y-45976629D02*
X4333334Y-45476629D01*
X4333334Y-45476629D02*
X4285715Y-45548058D01*
X4285715Y-45548058D02*
X4238096Y-45595677D01*
X4238096Y-45595677D02*
X4190477Y-45619486D01*
X4642857Y-45476629D02*
X4952381Y-45476629D01*
X4952381Y-45476629D02*
X4785714Y-45667105D01*
X4785714Y-45667105D02*
X4857143Y-45667105D01*
X4857143Y-45667105D02*
X4904762Y-45690915D01*
X4904762Y-45690915D02*
X4928571Y-45714724D01*
X4928571Y-45714724D02*
X4952381Y-45762343D01*
X4952381Y-45762343D02*
X4952381Y-45881391D01*
X4952381Y-45881391D02*
X4928571Y-45929010D01*
X4928571Y-45929010D02*
X4904762Y-45952820D01*
X4904762Y-45952820D02*
X4857143Y-45976629D01*
X4857143Y-45976629D02*
X4714286Y-45976629D01*
X4714286Y-45976629D02*
X4666667Y-45952820D01*
X4666667Y-45952820D02*
X4642857Y-45929010D01*
X5047619Y-46024248D02*
X5428571Y-46024248D01*
X5880951Y-46024248D02*
X5833332Y-46000439D01*
X5833332Y-46000439D02*
X5785713Y-45952820D01*
X5785713Y-45952820D02*
X5714285Y-45881391D01*
X5714285Y-45881391D02*
X5666666Y-45857581D01*
X5666666Y-45857581D02*
X5619047Y-45857581D01*
X5642856Y-45976629D02*
X5595237Y-45952820D01*
X5595237Y-45952820D02*
X5547618Y-45905200D01*
X5547618Y-45905200D02*
X5523809Y-45809962D01*
X5523809Y-45809962D02*
X5523809Y-45643296D01*
X5523809Y-45643296D02*
X5547618Y-45548058D01*
X5547618Y-45548058D02*
X5595237Y-45500439D01*
X5595237Y-45500439D02*
X5642856Y-45476629D01*
X5642856Y-45476629D02*
X5738094Y-45476629D01*
X5738094Y-45476629D02*
X5785713Y-45500439D01*
X5785713Y-45500439D02*
X5833332Y-45548058D01*
X5833332Y-45548058D02*
X5857142Y-45643296D01*
X5857142Y-45643296D02*
X5857142Y-45809962D01*
X5857142Y-45809962D02*
X5833332Y-45905200D01*
X5833332Y-45905200D02*
X5785713Y-45952820D01*
X5785713Y-45952820D02*
X5738094Y-45976629D01*
X5738094Y-45976629D02*
X5642856Y-45976629D01*
X6333333Y-45976629D02*
X6047619Y-45976629D01*
X6190476Y-45976629D02*
X6190476Y-45476629D01*
X6190476Y-45476629D02*
X6142857Y-45548058D01*
X6142857Y-45548058D02*
X6095238Y-45595677D01*
X6095238Y-45595677D02*
X6047619Y-45619486D01*
X31690476Y-33476629D02*
X31690476Y-32976629D01*
X31690476Y-32976629D02*
X31976190Y-33476629D01*
X31976190Y-33476629D02*
X31976190Y-32976629D01*
X32476191Y-33476629D02*
X32190477Y-33476629D01*
X32333334Y-33476629D02*
X32333334Y-32976629D01*
X32333334Y-32976629D02*
X32285715Y-33048058D01*
X32285715Y-33048058D02*
X32238096Y-33095677D01*
X32238096Y-33095677D02*
X32190477Y-33119486D01*
X32785714Y-32976629D02*
X32833333Y-32976629D01*
X32833333Y-32976629D02*
X32880952Y-33000439D01*
X32880952Y-33000439D02*
X32904762Y-33024248D01*
X32904762Y-33024248D02*
X32928571Y-33071867D01*
X32928571Y-33071867D02*
X32952381Y-33167105D01*
X32952381Y-33167105D02*
X32952381Y-33286153D01*
X32952381Y-33286153D02*
X32928571Y-33381391D01*
X32928571Y-33381391D02*
X32904762Y-33429010D01*
X32904762Y-33429010D02*
X32880952Y-33452820D01*
X32880952Y-33452820D02*
X32833333Y-33476629D01*
X32833333Y-33476629D02*
X32785714Y-33476629D01*
X32785714Y-33476629D02*
X32738095Y-33452820D01*
X32738095Y-33452820D02*
X32714286Y-33429010D01*
X32714286Y-33429010D02*
X32690476Y-33381391D01*
X32690476Y-33381391D02*
X32666667Y-33286153D01*
X32666667Y-33286153D02*
X32666667Y-33167105D01*
X32666667Y-33167105D02*
X32690476Y-33071867D01*
X32690476Y-33071867D02*
X32714286Y-33024248D01*
X32714286Y-33024248D02*
X32738095Y-33000439D01*
X32738095Y-33000439D02*
X32785714Y-32976629D01*
X33047619Y-33524248D02*
X33428571Y-33524248D01*
X33880951Y-33524248D02*
X33833332Y-33500439D01*
X33833332Y-33500439D02*
X33785713Y-33452820D01*
X33785713Y-33452820D02*
X33714285Y-33381391D01*
X33714285Y-33381391D02*
X33666666Y-33357581D01*
X33666666Y-33357581D02*
X33619047Y-33357581D01*
X33642856Y-33476629D02*
X33595237Y-33452820D01*
X33595237Y-33452820D02*
X33547618Y-33405200D01*
X33547618Y-33405200D02*
X33523809Y-33309962D01*
X33523809Y-33309962D02*
X33523809Y-33143296D01*
X33523809Y-33143296D02*
X33547618Y-33048058D01*
X33547618Y-33048058D02*
X33595237Y-33000439D01*
X33595237Y-33000439D02*
X33642856Y-32976629D01*
X33642856Y-32976629D02*
X33738094Y-32976629D01*
X33738094Y-32976629D02*
X33785713Y-33000439D01*
X33785713Y-33000439D02*
X33833332Y-33048058D01*
X33833332Y-33048058D02*
X33857142Y-33143296D01*
X33857142Y-33143296D02*
X33857142Y-33309962D01*
X33857142Y-33309962D02*
X33833332Y-33405200D01*
X33833332Y-33405200D02*
X33785713Y-33452820D01*
X33785713Y-33452820D02*
X33738094Y-33476629D01*
X33738094Y-33476629D02*
X33642856Y-33476629D01*
X34047619Y-33024248D02*
X34071428Y-33000439D01*
X34071428Y-33000439D02*
X34119047Y-32976629D01*
X34119047Y-32976629D02*
X34238095Y-32976629D01*
X34238095Y-32976629D02*
X34285714Y-33000439D01*
X34285714Y-33000439D02*
X34309523Y-33024248D01*
X34309523Y-33024248D02*
X34333333Y-33071867D01*
X34333333Y-33071867D02*
X34333333Y-33119486D01*
X34333333Y-33119486D02*
X34309523Y-33190915D01*
X34309523Y-33190915D02*
X34023809Y-33476629D01*
X34023809Y-33476629D02*
X34333333Y-33476629D01*
X63690476Y-33476629D02*
X63690476Y-32976629D01*
X63690476Y-32976629D02*
X63976190Y-33476629D01*
X63976190Y-33476629D02*
X63976190Y-32976629D01*
X64476191Y-33476629D02*
X64190477Y-33476629D01*
X64333334Y-33476629D02*
X64333334Y-32976629D01*
X64333334Y-32976629D02*
X64285715Y-33048058D01*
X64285715Y-33048058D02*
X64238096Y-33095677D01*
X64238096Y-33095677D02*
X64190477Y-33119486D01*
X64666667Y-33024248D02*
X64690476Y-33000439D01*
X64690476Y-33000439D02*
X64738095Y-32976629D01*
X64738095Y-32976629D02*
X64857143Y-32976629D01*
X64857143Y-32976629D02*
X64904762Y-33000439D01*
X64904762Y-33000439D02*
X64928571Y-33024248D01*
X64928571Y-33024248D02*
X64952381Y-33071867D01*
X64952381Y-33071867D02*
X64952381Y-33119486D01*
X64952381Y-33119486D02*
X64928571Y-33190915D01*
X64928571Y-33190915D02*
X64642857Y-33476629D01*
X64642857Y-33476629D02*
X64952381Y-33476629D01*
X65047619Y-33524248D02*
X65428571Y-33524248D01*
X65880951Y-33524248D02*
X65833332Y-33500439D01*
X65833332Y-33500439D02*
X65785713Y-33452820D01*
X65785713Y-33452820D02*
X65714285Y-33381391D01*
X65714285Y-33381391D02*
X65666666Y-33357581D01*
X65666666Y-33357581D02*
X65619047Y-33357581D01*
X65642856Y-33476629D02*
X65595237Y-33452820D01*
X65595237Y-33452820D02*
X65547618Y-33405200D01*
X65547618Y-33405200D02*
X65523809Y-33309962D01*
X65523809Y-33309962D02*
X65523809Y-33143296D01*
X65523809Y-33143296D02*
X65547618Y-33048058D01*
X65547618Y-33048058D02*
X65595237Y-33000439D01*
X65595237Y-33000439D02*
X65642856Y-32976629D01*
X65642856Y-32976629D02*
X65738094Y-32976629D01*
X65738094Y-32976629D02*
X65785713Y-33000439D01*
X65785713Y-33000439D02*
X65833332Y-33048058D01*
X65833332Y-33048058D02*
X65857142Y-33143296D01*
X65857142Y-33143296D02*
X65857142Y-33309962D01*
X65857142Y-33309962D02*
X65833332Y-33405200D01*
X65833332Y-33405200D02*
X65785713Y-33452820D01*
X65785713Y-33452820D02*
X65738094Y-33476629D01*
X65738094Y-33476629D02*
X65642856Y-33476629D01*
X66047619Y-33024248D02*
X66071428Y-33000439D01*
X66071428Y-33000439D02*
X66119047Y-32976629D01*
X66119047Y-32976629D02*
X66238095Y-32976629D01*
X66238095Y-32976629D02*
X66285714Y-33000439D01*
X66285714Y-33000439D02*
X66309523Y-33024248D01*
X66309523Y-33024248D02*
X66333333Y-33071867D01*
X66333333Y-33071867D02*
X66333333Y-33119486D01*
X66333333Y-33119486D02*
X66309523Y-33190915D01*
X66309523Y-33190915D02*
X66023809Y-33476629D01*
X66023809Y-33476629D02*
X66333333Y-33476629D01*
X9928571Y-37001629D02*
X9928571Y-36501629D01*
X9928571Y-36501629D02*
X10214285Y-37001629D01*
X10214285Y-37001629D02*
X10214285Y-36501629D01*
X10476191Y-37001629D02*
X10571429Y-37001629D01*
X10571429Y-37001629D02*
X10619048Y-36977820D01*
X10619048Y-36977820D02*
X10642857Y-36954010D01*
X10642857Y-36954010D02*
X10690476Y-36882581D01*
X10690476Y-36882581D02*
X10714286Y-36787343D01*
X10714286Y-36787343D02*
X10714286Y-36596867D01*
X10714286Y-36596867D02*
X10690476Y-36549248D01*
X10690476Y-36549248D02*
X10666667Y-36525439D01*
X10666667Y-36525439D02*
X10619048Y-36501629D01*
X10619048Y-36501629D02*
X10523810Y-36501629D01*
X10523810Y-36501629D02*
X10476191Y-36525439D01*
X10476191Y-36525439D02*
X10452381Y-36549248D01*
X10452381Y-36549248D02*
X10428572Y-36596867D01*
X10428572Y-36596867D02*
X10428572Y-36715915D01*
X10428572Y-36715915D02*
X10452381Y-36763534D01*
X10452381Y-36763534D02*
X10476191Y-36787343D01*
X10476191Y-36787343D02*
X10523810Y-36811153D01*
X10523810Y-36811153D02*
X10619048Y-36811153D01*
X10619048Y-36811153D02*
X10666667Y-36787343D01*
X10666667Y-36787343D02*
X10690476Y-36763534D01*
X10690476Y-36763534D02*
X10714286Y-36715915D01*
X10809524Y-37049248D02*
X11190476Y-37049248D01*
X11309523Y-36501629D02*
X11309523Y-36906391D01*
X11309523Y-36906391D02*
X11333333Y-36954010D01*
X11333333Y-36954010D02*
X11357142Y-36977820D01*
X11357142Y-36977820D02*
X11404761Y-37001629D01*
X11404761Y-37001629D02*
X11499999Y-37001629D01*
X11499999Y-37001629D02*
X11547618Y-36977820D01*
X11547618Y-36977820D02*
X11571428Y-36954010D01*
X11571428Y-36954010D02*
X11595237Y-36906391D01*
X11595237Y-36906391D02*
X11595237Y-36501629D01*
X12095238Y-37001629D02*
X11809524Y-37001629D01*
X11952381Y-37001629D02*
X11952381Y-36501629D01*
X11952381Y-36501629D02*
X11904762Y-36573058D01*
X11904762Y-36573058D02*
X11857143Y-36620677D01*
X11857143Y-36620677D02*
X11809524Y-36644486D01*
X19928571Y-20976629D02*
X19928571Y-20476629D01*
X19928571Y-20476629D02*
X20214285Y-20976629D01*
X20214285Y-20976629D02*
X20214285Y-20476629D01*
X20666667Y-20476629D02*
X20571429Y-20476629D01*
X20571429Y-20476629D02*
X20523810Y-20500439D01*
X20523810Y-20500439D02*
X20500000Y-20524248D01*
X20500000Y-20524248D02*
X20452381Y-20595677D01*
X20452381Y-20595677D02*
X20428572Y-20690915D01*
X20428572Y-20690915D02*
X20428572Y-20881391D01*
X20428572Y-20881391D02*
X20452381Y-20929010D01*
X20452381Y-20929010D02*
X20476191Y-20952820D01*
X20476191Y-20952820D02*
X20523810Y-20976629D01*
X20523810Y-20976629D02*
X20619048Y-20976629D01*
X20619048Y-20976629D02*
X20666667Y-20952820D01*
X20666667Y-20952820D02*
X20690476Y-20929010D01*
X20690476Y-20929010D02*
X20714286Y-20881391D01*
X20714286Y-20881391D02*
X20714286Y-20762343D01*
X20714286Y-20762343D02*
X20690476Y-20714724D01*
X20690476Y-20714724D02*
X20666667Y-20690915D01*
X20666667Y-20690915D02*
X20619048Y-20667105D01*
X20619048Y-20667105D02*
X20523810Y-20667105D01*
X20523810Y-20667105D02*
X20476191Y-20690915D01*
X20476191Y-20690915D02*
X20452381Y-20714724D01*
X20452381Y-20714724D02*
X20428572Y-20762343D01*
X20809524Y-21024248D02*
X21190476Y-21024248D01*
X21642856Y-21024248D02*
X21595237Y-21000439D01*
X21595237Y-21000439D02*
X21547618Y-20952820D01*
X21547618Y-20952820D02*
X21476190Y-20881391D01*
X21476190Y-20881391D02*
X21428571Y-20857581D01*
X21428571Y-20857581D02*
X21380952Y-20857581D01*
X21404761Y-20976629D02*
X21357142Y-20952820D01*
X21357142Y-20952820D02*
X21309523Y-20905200D01*
X21309523Y-20905200D02*
X21285714Y-20809962D01*
X21285714Y-20809962D02*
X21285714Y-20643296D01*
X21285714Y-20643296D02*
X21309523Y-20548058D01*
X21309523Y-20548058D02*
X21357142Y-20500439D01*
X21357142Y-20500439D02*
X21404761Y-20476629D01*
X21404761Y-20476629D02*
X21499999Y-20476629D01*
X21499999Y-20476629D02*
X21547618Y-20500439D01*
X21547618Y-20500439D02*
X21595237Y-20548058D01*
X21595237Y-20548058D02*
X21619047Y-20643296D01*
X21619047Y-20643296D02*
X21619047Y-20809962D01*
X21619047Y-20809962D02*
X21595237Y-20905200D01*
X21595237Y-20905200D02*
X21547618Y-20952820D01*
X21547618Y-20952820D02*
X21499999Y-20976629D01*
X21499999Y-20976629D02*
X21404761Y-20976629D01*
X22095238Y-20976629D02*
X21809524Y-20976629D01*
X21952381Y-20976629D02*
X21952381Y-20476629D01*
X21952381Y-20476629D02*
X21904762Y-20548058D01*
X21904762Y-20548058D02*
X21857143Y-20595677D01*
X21857143Y-20595677D02*
X21809524Y-20619486D01*
X57690476Y-37001629D02*
X57690476Y-36501629D01*
X57690476Y-36501629D02*
X57976190Y-37001629D01*
X57976190Y-37001629D02*
X57976190Y-36501629D01*
X58476191Y-37001629D02*
X58190477Y-37001629D01*
X58333334Y-37001629D02*
X58333334Y-36501629D01*
X58333334Y-36501629D02*
X58285715Y-36573058D01*
X58285715Y-36573058D02*
X58238096Y-36620677D01*
X58238096Y-36620677D02*
X58190477Y-36644486D01*
X58666667Y-36549248D02*
X58690476Y-36525439D01*
X58690476Y-36525439D02*
X58738095Y-36501629D01*
X58738095Y-36501629D02*
X58857143Y-36501629D01*
X58857143Y-36501629D02*
X58904762Y-36525439D01*
X58904762Y-36525439D02*
X58928571Y-36549248D01*
X58928571Y-36549248D02*
X58952381Y-36596867D01*
X58952381Y-36596867D02*
X58952381Y-36644486D01*
X58952381Y-36644486D02*
X58928571Y-36715915D01*
X58928571Y-36715915D02*
X58642857Y-37001629D01*
X58642857Y-37001629D02*
X58952381Y-37001629D01*
X59047619Y-37049248D02*
X59428571Y-37049248D01*
X59547618Y-36501629D02*
X59547618Y-36906391D01*
X59547618Y-36906391D02*
X59571428Y-36954010D01*
X59571428Y-36954010D02*
X59595237Y-36977820D01*
X59595237Y-36977820D02*
X59642856Y-37001629D01*
X59642856Y-37001629D02*
X59738094Y-37001629D01*
X59738094Y-37001629D02*
X59785713Y-36977820D01*
X59785713Y-36977820D02*
X59809523Y-36954010D01*
X59809523Y-36954010D02*
X59833332Y-36906391D01*
X59833332Y-36906391D02*
X59833332Y-36501629D01*
X60333333Y-37001629D02*
X60047619Y-37001629D01*
X60190476Y-37001629D02*
X60190476Y-36501629D01*
X60190476Y-36501629D02*
X60142857Y-36573058D01*
X60142857Y-36573058D02*
X60095238Y-36620677D01*
X60095238Y-36620677D02*
X60047619Y-36644486D01*
X3928571Y-20976629D02*
X3928571Y-20476629D01*
X3928571Y-20476629D02*
X4214285Y-20976629D01*
X4214285Y-20976629D02*
X4214285Y-20476629D01*
X4690476Y-20476629D02*
X4452381Y-20476629D01*
X4452381Y-20476629D02*
X4428572Y-20714724D01*
X4428572Y-20714724D02*
X4452381Y-20690915D01*
X4452381Y-20690915D02*
X4500000Y-20667105D01*
X4500000Y-20667105D02*
X4619048Y-20667105D01*
X4619048Y-20667105D02*
X4666667Y-20690915D01*
X4666667Y-20690915D02*
X4690476Y-20714724D01*
X4690476Y-20714724D02*
X4714286Y-20762343D01*
X4714286Y-20762343D02*
X4714286Y-20881391D01*
X4714286Y-20881391D02*
X4690476Y-20929010D01*
X4690476Y-20929010D02*
X4666667Y-20952820D01*
X4666667Y-20952820D02*
X4619048Y-20976629D01*
X4619048Y-20976629D02*
X4500000Y-20976629D01*
X4500000Y-20976629D02*
X4452381Y-20952820D01*
X4452381Y-20952820D02*
X4428572Y-20929010D01*
X4809524Y-21024248D02*
X5190476Y-21024248D01*
X5642856Y-21024248D02*
X5595237Y-21000439D01*
X5595237Y-21000439D02*
X5547618Y-20952820D01*
X5547618Y-20952820D02*
X5476190Y-20881391D01*
X5476190Y-20881391D02*
X5428571Y-20857581D01*
X5428571Y-20857581D02*
X5380952Y-20857581D01*
X5404761Y-20976629D02*
X5357142Y-20952820D01*
X5357142Y-20952820D02*
X5309523Y-20905200D01*
X5309523Y-20905200D02*
X5285714Y-20809962D01*
X5285714Y-20809962D02*
X5285714Y-20643296D01*
X5285714Y-20643296D02*
X5309523Y-20548058D01*
X5309523Y-20548058D02*
X5357142Y-20500439D01*
X5357142Y-20500439D02*
X5404761Y-20476629D01*
X5404761Y-20476629D02*
X5499999Y-20476629D01*
X5499999Y-20476629D02*
X5547618Y-20500439D01*
X5547618Y-20500439D02*
X5595237Y-20548058D01*
X5595237Y-20548058D02*
X5619047Y-20643296D01*
X5619047Y-20643296D02*
X5619047Y-20809962D01*
X5619047Y-20809962D02*
X5595237Y-20905200D01*
X5595237Y-20905200D02*
X5547618Y-20952820D01*
X5547618Y-20952820D02*
X5499999Y-20976629D01*
X5499999Y-20976629D02*
X5404761Y-20976629D01*
X6095238Y-20976629D02*
X5809524Y-20976629D01*
X5952381Y-20976629D02*
X5952381Y-20476629D01*
X5952381Y-20476629D02*
X5904762Y-20548058D01*
X5904762Y-20548058D02*
X5857143Y-20595677D01*
X5857143Y-20595677D02*
X5809524Y-20619486D01*
X47928571Y-20976629D02*
X47928571Y-20476629D01*
X47928571Y-20476629D02*
X48214285Y-20976629D01*
X48214285Y-20976629D02*
X48214285Y-20476629D01*
X48404762Y-20476629D02*
X48738095Y-20476629D01*
X48738095Y-20476629D02*
X48523810Y-20976629D01*
X48809524Y-21024248D02*
X49190476Y-21024248D01*
X49642856Y-21024248D02*
X49595237Y-21000439D01*
X49595237Y-21000439D02*
X49547618Y-20952820D01*
X49547618Y-20952820D02*
X49476190Y-20881391D01*
X49476190Y-20881391D02*
X49428571Y-20857581D01*
X49428571Y-20857581D02*
X49380952Y-20857581D01*
X49404761Y-20976629D02*
X49357142Y-20952820D01*
X49357142Y-20952820D02*
X49309523Y-20905200D01*
X49309523Y-20905200D02*
X49285714Y-20809962D01*
X49285714Y-20809962D02*
X49285714Y-20643296D01*
X49285714Y-20643296D02*
X49309523Y-20548058D01*
X49309523Y-20548058D02*
X49357142Y-20500439D01*
X49357142Y-20500439D02*
X49404761Y-20476629D01*
X49404761Y-20476629D02*
X49499999Y-20476629D01*
X49499999Y-20476629D02*
X49547618Y-20500439D01*
X49547618Y-20500439D02*
X49595237Y-20548058D01*
X49595237Y-20548058D02*
X49619047Y-20643296D01*
X49619047Y-20643296D02*
X49619047Y-20809962D01*
X49619047Y-20809962D02*
X49595237Y-20905200D01*
X49595237Y-20905200D02*
X49547618Y-20952820D01*
X49547618Y-20952820D02*
X49499999Y-20976629D01*
X49499999Y-20976629D02*
X49404761Y-20976629D01*
X49809524Y-20524248D02*
X49833333Y-20500439D01*
X49833333Y-20500439D02*
X49880952Y-20476629D01*
X49880952Y-20476629D02*
X50000000Y-20476629D01*
X50000000Y-20476629D02*
X50047619Y-20500439D01*
X50047619Y-20500439D02*
X50071428Y-20524248D01*
X50071428Y-20524248D02*
X50095238Y-20571867D01*
X50095238Y-20571867D02*
X50095238Y-20619486D01*
X50095238Y-20619486D02*
X50071428Y-20690915D01*
X50071428Y-20690915D02*
X49785714Y-20976629D01*
X49785714Y-20976629D02*
X50095238Y-20976629D01*
X3928571Y-8476629D02*
X3928571Y-7976629D01*
X3928571Y-7976629D02*
X4214285Y-8476629D01*
X4214285Y-8476629D02*
X4214285Y-7976629D01*
X4714286Y-8476629D02*
X4428572Y-8476629D01*
X4571429Y-8476629D02*
X4571429Y-7976629D01*
X4571429Y-7976629D02*
X4523810Y-8048058D01*
X4523810Y-8048058D02*
X4476191Y-8095677D01*
X4476191Y-8095677D02*
X4428572Y-8119486D01*
X4809524Y-8524248D02*
X5190476Y-8524248D01*
X5642856Y-8524248D02*
X5595237Y-8500439D01*
X5595237Y-8500439D02*
X5547618Y-8452820D01*
X5547618Y-8452820D02*
X5476190Y-8381391D01*
X5476190Y-8381391D02*
X5428571Y-8357581D01*
X5428571Y-8357581D02*
X5380952Y-8357581D01*
X5404761Y-8476629D02*
X5357142Y-8452820D01*
X5357142Y-8452820D02*
X5309523Y-8405200D01*
X5309523Y-8405200D02*
X5285714Y-8309962D01*
X5285714Y-8309962D02*
X5285714Y-8143296D01*
X5285714Y-8143296D02*
X5309523Y-8048058D01*
X5309523Y-8048058D02*
X5357142Y-8000439D01*
X5357142Y-8000439D02*
X5404761Y-7976629D01*
X5404761Y-7976629D02*
X5499999Y-7976629D01*
X5499999Y-7976629D02*
X5547618Y-8000439D01*
X5547618Y-8000439D02*
X5595237Y-8048058D01*
X5595237Y-8048058D02*
X5619047Y-8143296D01*
X5619047Y-8143296D02*
X5619047Y-8309962D01*
X5619047Y-8309962D02*
X5595237Y-8405200D01*
X5595237Y-8405200D02*
X5547618Y-8452820D01*
X5547618Y-8452820D02*
X5499999Y-8476629D01*
X5499999Y-8476629D02*
X5404761Y-8476629D01*
X6095238Y-8476629D02*
X5809524Y-8476629D01*
X5952381Y-8476629D02*
X5952381Y-7976629D01*
X5952381Y-7976629D02*
X5904762Y-8048058D01*
X5904762Y-8048058D02*
X5857143Y-8095677D01*
X5857143Y-8095677D02*
X5809524Y-8119486D01*
X31928572Y-64164724D02*
X32000000Y-64188534D01*
X32000000Y-64188534D02*
X32023810Y-64212343D01*
X32023810Y-64212343D02*
X32047619Y-64259962D01*
X32047619Y-64259962D02*
X32047619Y-64331391D01*
X32047619Y-64331391D02*
X32023810Y-64379010D01*
X32023810Y-64379010D02*
X32000000Y-64402820D01*
X32000000Y-64402820D02*
X31952381Y-64426629D01*
X31952381Y-64426629D02*
X31761905Y-64426629D01*
X31761905Y-64426629D02*
X31761905Y-63926629D01*
X31761905Y-63926629D02*
X31928572Y-63926629D01*
X31928572Y-63926629D02*
X31976191Y-63950439D01*
X31976191Y-63950439D02*
X32000000Y-63974248D01*
X32000000Y-63974248D02*
X32023810Y-64021867D01*
X32023810Y-64021867D02*
X32023810Y-64069486D01*
X32023810Y-64069486D02*
X32000000Y-64117105D01*
X32000000Y-64117105D02*
X31976191Y-64140915D01*
X31976191Y-64140915D02*
X31928572Y-64164724D01*
X31928572Y-64164724D02*
X31761905Y-64164724D01*
X32523810Y-64426629D02*
X32238096Y-64426629D01*
X32380953Y-64426629D02*
X32380953Y-63926629D01*
X32380953Y-63926629D02*
X32333334Y-63998058D01*
X32333334Y-63998058D02*
X32285715Y-64045677D01*
X32285715Y-64045677D02*
X32238096Y-64069486D01*
X32714286Y-63974248D02*
X32738095Y-63950439D01*
X32738095Y-63950439D02*
X32785714Y-63926629D01*
X32785714Y-63926629D02*
X32904762Y-63926629D01*
X32904762Y-63926629D02*
X32952381Y-63950439D01*
X32952381Y-63950439D02*
X32976190Y-63974248D01*
X32976190Y-63974248D02*
X33000000Y-64021867D01*
X33000000Y-64021867D02*
X33000000Y-64069486D01*
X33000000Y-64069486D02*
X32976190Y-64140915D01*
X32976190Y-64140915D02*
X32690476Y-64426629D01*
X32690476Y-64426629D02*
X33000000Y-64426629D01*
X33095238Y-64474248D02*
X33476190Y-64474248D01*
X33833332Y-64426629D02*
X33595237Y-64426629D01*
X33595237Y-64426629D02*
X33595237Y-63926629D01*
X34261904Y-64426629D02*
X33976190Y-64426629D01*
X34119047Y-64426629D02*
X34119047Y-63926629D01*
X34119047Y-63926629D02*
X34071428Y-63998058D01*
X34071428Y-63998058D02*
X34023809Y-64045677D01*
X34023809Y-64045677D02*
X33976190Y-64069486D01*
X9928571Y-24501629D02*
X9928571Y-24001629D01*
X9928571Y-24001629D02*
X10214285Y-24501629D01*
X10214285Y-24501629D02*
X10214285Y-24001629D01*
X10690476Y-24001629D02*
X10452381Y-24001629D01*
X10452381Y-24001629D02*
X10428572Y-24239724D01*
X10428572Y-24239724D02*
X10452381Y-24215915D01*
X10452381Y-24215915D02*
X10500000Y-24192105D01*
X10500000Y-24192105D02*
X10619048Y-24192105D01*
X10619048Y-24192105D02*
X10666667Y-24215915D01*
X10666667Y-24215915D02*
X10690476Y-24239724D01*
X10690476Y-24239724D02*
X10714286Y-24287343D01*
X10714286Y-24287343D02*
X10714286Y-24406391D01*
X10714286Y-24406391D02*
X10690476Y-24454010D01*
X10690476Y-24454010D02*
X10666667Y-24477820D01*
X10666667Y-24477820D02*
X10619048Y-24501629D01*
X10619048Y-24501629D02*
X10500000Y-24501629D01*
X10500000Y-24501629D02*
X10452381Y-24477820D01*
X10452381Y-24477820D02*
X10428572Y-24454010D01*
X10809524Y-24549248D02*
X11190476Y-24549248D01*
X11309523Y-24001629D02*
X11309523Y-24406391D01*
X11309523Y-24406391D02*
X11333333Y-24454010D01*
X11333333Y-24454010D02*
X11357142Y-24477820D01*
X11357142Y-24477820D02*
X11404761Y-24501629D01*
X11404761Y-24501629D02*
X11499999Y-24501629D01*
X11499999Y-24501629D02*
X11547618Y-24477820D01*
X11547618Y-24477820D02*
X11571428Y-24454010D01*
X11571428Y-24454010D02*
X11595237Y-24406391D01*
X11595237Y-24406391D02*
X11595237Y-24001629D01*
X12095238Y-24501629D02*
X11809524Y-24501629D01*
X11952381Y-24501629D02*
X11952381Y-24001629D01*
X11952381Y-24001629D02*
X11904762Y-24073058D01*
X11904762Y-24073058D02*
X11857143Y-24120677D01*
X11857143Y-24120677D02*
X11809524Y-24144486D01*
X41928571Y-12001629D02*
X41928571Y-11501629D01*
X41928571Y-11501629D02*
X42214285Y-12001629D01*
X42214285Y-12001629D02*
X42214285Y-11501629D01*
X42404762Y-11501629D02*
X42714286Y-11501629D01*
X42714286Y-11501629D02*
X42547619Y-11692105D01*
X42547619Y-11692105D02*
X42619048Y-11692105D01*
X42619048Y-11692105D02*
X42666667Y-11715915D01*
X42666667Y-11715915D02*
X42690476Y-11739724D01*
X42690476Y-11739724D02*
X42714286Y-11787343D01*
X42714286Y-11787343D02*
X42714286Y-11906391D01*
X42714286Y-11906391D02*
X42690476Y-11954010D01*
X42690476Y-11954010D02*
X42666667Y-11977820D01*
X42666667Y-11977820D02*
X42619048Y-12001629D01*
X42619048Y-12001629D02*
X42476191Y-12001629D01*
X42476191Y-12001629D02*
X42428572Y-11977820D01*
X42428572Y-11977820D02*
X42404762Y-11954010D01*
X42809524Y-12049248D02*
X43190476Y-12049248D01*
X43309523Y-11501629D02*
X43309523Y-11906391D01*
X43309523Y-11906391D02*
X43333333Y-11954010D01*
X43333333Y-11954010D02*
X43357142Y-11977820D01*
X43357142Y-11977820D02*
X43404761Y-12001629D01*
X43404761Y-12001629D02*
X43499999Y-12001629D01*
X43499999Y-12001629D02*
X43547618Y-11977820D01*
X43547618Y-11977820D02*
X43571428Y-11954010D01*
X43571428Y-11954010D02*
X43595237Y-11906391D01*
X43595237Y-11906391D02*
X43595237Y-11501629D01*
X44095238Y-12001629D02*
X43809524Y-12001629D01*
X43952381Y-12001629D02*
X43952381Y-11501629D01*
X43952381Y-11501629D02*
X43904762Y-11573058D01*
X43904762Y-11573058D02*
X43857143Y-11620677D01*
X43857143Y-11620677D02*
X43809524Y-11644486D01*
X23928572Y-64164724D02*
X24000000Y-64188534D01*
X24000000Y-64188534D02*
X24023810Y-64212343D01*
X24023810Y-64212343D02*
X24047619Y-64259962D01*
X24047619Y-64259962D02*
X24047619Y-64331391D01*
X24047619Y-64331391D02*
X24023810Y-64379010D01*
X24023810Y-64379010D02*
X24000000Y-64402820D01*
X24000000Y-64402820D02*
X23952381Y-64426629D01*
X23952381Y-64426629D02*
X23761905Y-64426629D01*
X23761905Y-64426629D02*
X23761905Y-63926629D01*
X23761905Y-63926629D02*
X23928572Y-63926629D01*
X23928572Y-63926629D02*
X23976191Y-63950439D01*
X23976191Y-63950439D02*
X24000000Y-63974248D01*
X24000000Y-63974248D02*
X24023810Y-64021867D01*
X24023810Y-64021867D02*
X24023810Y-64069486D01*
X24023810Y-64069486D02*
X24000000Y-64117105D01*
X24000000Y-64117105D02*
X23976191Y-64140915D01*
X23976191Y-64140915D02*
X23928572Y-64164724D01*
X23928572Y-64164724D02*
X23761905Y-64164724D01*
X24523810Y-64426629D02*
X24238096Y-64426629D01*
X24380953Y-64426629D02*
X24380953Y-63926629D01*
X24380953Y-63926629D02*
X24333334Y-63998058D01*
X24333334Y-63998058D02*
X24285715Y-64045677D01*
X24285715Y-64045677D02*
X24238096Y-64069486D01*
X25000000Y-64426629D02*
X24714286Y-64426629D01*
X24857143Y-64426629D02*
X24857143Y-63926629D01*
X24857143Y-63926629D02*
X24809524Y-63998058D01*
X24809524Y-63998058D02*
X24761905Y-64045677D01*
X24761905Y-64045677D02*
X24714286Y-64069486D01*
X25095238Y-64474248D02*
X25476190Y-64474248D01*
X25833332Y-64426629D02*
X25595237Y-64426629D01*
X25595237Y-64426629D02*
X25595237Y-63926629D01*
X26261904Y-64426629D02*
X25976190Y-64426629D01*
X26119047Y-64426629D02*
X26119047Y-63926629D01*
X26119047Y-63926629D02*
X26071428Y-63998058D01*
X26071428Y-63998058D02*
X26023809Y-64045677D01*
X26023809Y-64045677D02*
X25976190Y-64069486D01*
X31690476Y-45976629D02*
X31690476Y-45476629D01*
X31690476Y-45476629D02*
X31976190Y-45976629D01*
X31976190Y-45976629D02*
X31976190Y-45476629D01*
X32476191Y-45976629D02*
X32190477Y-45976629D01*
X32333334Y-45976629D02*
X32333334Y-45476629D01*
X32333334Y-45476629D02*
X32285715Y-45548058D01*
X32285715Y-45548058D02*
X32238096Y-45595677D01*
X32238096Y-45595677D02*
X32190477Y-45619486D01*
X32904762Y-45643296D02*
X32904762Y-45976629D01*
X32785714Y-45452820D02*
X32666667Y-45809962D01*
X32666667Y-45809962D02*
X32976190Y-45809962D01*
X33047619Y-46024248D02*
X33428571Y-46024248D01*
X33880951Y-46024248D02*
X33833332Y-46000439D01*
X33833332Y-46000439D02*
X33785713Y-45952820D01*
X33785713Y-45952820D02*
X33714285Y-45881391D01*
X33714285Y-45881391D02*
X33666666Y-45857581D01*
X33666666Y-45857581D02*
X33619047Y-45857581D01*
X33642856Y-45976629D02*
X33595237Y-45952820D01*
X33595237Y-45952820D02*
X33547618Y-45905200D01*
X33547618Y-45905200D02*
X33523809Y-45809962D01*
X33523809Y-45809962D02*
X33523809Y-45643296D01*
X33523809Y-45643296D02*
X33547618Y-45548058D01*
X33547618Y-45548058D02*
X33595237Y-45500439D01*
X33595237Y-45500439D02*
X33642856Y-45476629D01*
X33642856Y-45476629D02*
X33738094Y-45476629D01*
X33738094Y-45476629D02*
X33785713Y-45500439D01*
X33785713Y-45500439D02*
X33833332Y-45548058D01*
X33833332Y-45548058D02*
X33857142Y-45643296D01*
X33857142Y-45643296D02*
X33857142Y-45809962D01*
X33857142Y-45809962D02*
X33833332Y-45905200D01*
X33833332Y-45905200D02*
X33785713Y-45952820D01*
X33785713Y-45952820D02*
X33738094Y-45976629D01*
X33738094Y-45976629D02*
X33642856Y-45976629D01*
X34047619Y-45524248D02*
X34071428Y-45500439D01*
X34071428Y-45500439D02*
X34119047Y-45476629D01*
X34119047Y-45476629D02*
X34238095Y-45476629D01*
X34238095Y-45476629D02*
X34285714Y-45500439D01*
X34285714Y-45500439D02*
X34309523Y-45524248D01*
X34309523Y-45524248D02*
X34333333Y-45571867D01*
X34333333Y-45571867D02*
X34333333Y-45619486D01*
X34333333Y-45619486D02*
X34309523Y-45690915D01*
X34309523Y-45690915D02*
X34023809Y-45976629D01*
X34023809Y-45976629D02*
X34333333Y-45976629D01*
X28119048Y-59814724D02*
X28190476Y-59838534D01*
X28190476Y-59838534D02*
X28214286Y-59862343D01*
X28214286Y-59862343D02*
X28238095Y-59909962D01*
X28238095Y-59909962D02*
X28238095Y-59981391D01*
X28238095Y-59981391D02*
X28214286Y-60029010D01*
X28214286Y-60029010D02*
X28190476Y-60052820D01*
X28190476Y-60052820D02*
X28142857Y-60076629D01*
X28142857Y-60076629D02*
X27952381Y-60076629D01*
X27952381Y-60076629D02*
X27952381Y-59576629D01*
X27952381Y-59576629D02*
X28119048Y-59576629D01*
X28119048Y-59576629D02*
X28166667Y-59600439D01*
X28166667Y-59600439D02*
X28190476Y-59624248D01*
X28190476Y-59624248D02*
X28214286Y-59671867D01*
X28214286Y-59671867D02*
X28214286Y-59719486D01*
X28214286Y-59719486D02*
X28190476Y-59767105D01*
X28190476Y-59767105D02*
X28166667Y-59790915D01*
X28166667Y-59790915D02*
X28119048Y-59814724D01*
X28119048Y-59814724D02*
X27952381Y-59814724D01*
X28666667Y-59743296D02*
X28666667Y-60076629D01*
X28547619Y-59552820D02*
X28428572Y-59909962D01*
X28428572Y-59909962D02*
X28738095Y-59909962D01*
X28809524Y-60124248D02*
X29190476Y-60124248D01*
X29309523Y-60076629D02*
X29309523Y-59576629D01*
X29309523Y-59576629D02*
X29428571Y-59576629D01*
X29428571Y-59576629D02*
X29499999Y-59600439D01*
X29499999Y-59600439D02*
X29547618Y-59648058D01*
X29547618Y-59648058D02*
X29571428Y-59695677D01*
X29571428Y-59695677D02*
X29595237Y-59790915D01*
X29595237Y-59790915D02*
X29595237Y-59862343D01*
X29595237Y-59862343D02*
X29571428Y-59957581D01*
X29571428Y-59957581D02*
X29547618Y-60005200D01*
X29547618Y-60005200D02*
X29499999Y-60052820D01*
X29499999Y-60052820D02*
X29428571Y-60076629D01*
X29428571Y-60076629D02*
X29309523Y-60076629D01*
X29785714Y-59624248D02*
X29809523Y-59600439D01*
X29809523Y-59600439D02*
X29857142Y-59576629D01*
X29857142Y-59576629D02*
X29976190Y-59576629D01*
X29976190Y-59576629D02*
X30023809Y-59600439D01*
X30023809Y-59600439D02*
X30047618Y-59624248D01*
X30047618Y-59624248D02*
X30071428Y-59671867D01*
X30071428Y-59671867D02*
X30071428Y-59719486D01*
X30071428Y-59719486D02*
X30047618Y-59790915D01*
X30047618Y-59790915D02*
X29761904Y-60076629D01*
X29761904Y-60076629D02*
X30071428Y-60076629D01*
X15690476Y-45976629D02*
X15690476Y-45476629D01*
X15690476Y-45476629D02*
X15976190Y-45976629D01*
X15976190Y-45976629D02*
X15976190Y-45476629D01*
X16476191Y-45976629D02*
X16190477Y-45976629D01*
X16333334Y-45976629D02*
X16333334Y-45476629D01*
X16333334Y-45476629D02*
X16285715Y-45548058D01*
X16285715Y-45548058D02*
X16238096Y-45595677D01*
X16238096Y-45595677D02*
X16190477Y-45619486D01*
X16642857Y-45476629D02*
X16952381Y-45476629D01*
X16952381Y-45476629D02*
X16785714Y-45667105D01*
X16785714Y-45667105D02*
X16857143Y-45667105D01*
X16857143Y-45667105D02*
X16904762Y-45690915D01*
X16904762Y-45690915D02*
X16928571Y-45714724D01*
X16928571Y-45714724D02*
X16952381Y-45762343D01*
X16952381Y-45762343D02*
X16952381Y-45881391D01*
X16952381Y-45881391D02*
X16928571Y-45929010D01*
X16928571Y-45929010D02*
X16904762Y-45952820D01*
X16904762Y-45952820D02*
X16857143Y-45976629D01*
X16857143Y-45976629D02*
X16714286Y-45976629D01*
X16714286Y-45976629D02*
X16666667Y-45952820D01*
X16666667Y-45952820D02*
X16642857Y-45929010D01*
X17047619Y-46024248D02*
X17428571Y-46024248D01*
X17880951Y-46024248D02*
X17833332Y-46000439D01*
X17833332Y-46000439D02*
X17785713Y-45952820D01*
X17785713Y-45952820D02*
X17714285Y-45881391D01*
X17714285Y-45881391D02*
X17666666Y-45857581D01*
X17666666Y-45857581D02*
X17619047Y-45857581D01*
X17642856Y-45976629D02*
X17595237Y-45952820D01*
X17595237Y-45952820D02*
X17547618Y-45905200D01*
X17547618Y-45905200D02*
X17523809Y-45809962D01*
X17523809Y-45809962D02*
X17523809Y-45643296D01*
X17523809Y-45643296D02*
X17547618Y-45548058D01*
X17547618Y-45548058D02*
X17595237Y-45500439D01*
X17595237Y-45500439D02*
X17642856Y-45476629D01*
X17642856Y-45476629D02*
X17738094Y-45476629D01*
X17738094Y-45476629D02*
X17785713Y-45500439D01*
X17785713Y-45500439D02*
X17833332Y-45548058D01*
X17833332Y-45548058D02*
X17857142Y-45643296D01*
X17857142Y-45643296D02*
X17857142Y-45809962D01*
X17857142Y-45809962D02*
X17833332Y-45905200D01*
X17833332Y-45905200D02*
X17785713Y-45952820D01*
X17785713Y-45952820D02*
X17738094Y-45976629D01*
X17738094Y-45976629D02*
X17642856Y-45976629D01*
X18047619Y-45524248D02*
X18071428Y-45500439D01*
X18071428Y-45500439D02*
X18119047Y-45476629D01*
X18119047Y-45476629D02*
X18238095Y-45476629D01*
X18238095Y-45476629D02*
X18285714Y-45500439D01*
X18285714Y-45500439D02*
X18309523Y-45524248D01*
X18309523Y-45524248D02*
X18333333Y-45571867D01*
X18333333Y-45571867D02*
X18333333Y-45619486D01*
X18333333Y-45619486D02*
X18309523Y-45690915D01*
X18309523Y-45690915D02*
X18023809Y-45976629D01*
X18023809Y-45976629D02*
X18333333Y-45976629D01*
X35928571Y-8476629D02*
X35928571Y-7976629D01*
X35928571Y-7976629D02*
X36214285Y-8476629D01*
X36214285Y-8476629D02*
X36214285Y-7976629D01*
X36404762Y-7976629D02*
X36714286Y-7976629D01*
X36714286Y-7976629D02*
X36547619Y-8167105D01*
X36547619Y-8167105D02*
X36619048Y-8167105D01*
X36619048Y-8167105D02*
X36666667Y-8190915D01*
X36666667Y-8190915D02*
X36690476Y-8214724D01*
X36690476Y-8214724D02*
X36714286Y-8262343D01*
X36714286Y-8262343D02*
X36714286Y-8381391D01*
X36714286Y-8381391D02*
X36690476Y-8429010D01*
X36690476Y-8429010D02*
X36666667Y-8452820D01*
X36666667Y-8452820D02*
X36619048Y-8476629D01*
X36619048Y-8476629D02*
X36476191Y-8476629D01*
X36476191Y-8476629D02*
X36428572Y-8452820D01*
X36428572Y-8452820D02*
X36404762Y-8429010D01*
X36809524Y-8524248D02*
X37190476Y-8524248D01*
X37642856Y-8524248D02*
X37595237Y-8500439D01*
X37595237Y-8500439D02*
X37547618Y-8452820D01*
X37547618Y-8452820D02*
X37476190Y-8381391D01*
X37476190Y-8381391D02*
X37428571Y-8357581D01*
X37428571Y-8357581D02*
X37380952Y-8357581D01*
X37404761Y-8476629D02*
X37357142Y-8452820D01*
X37357142Y-8452820D02*
X37309523Y-8405200D01*
X37309523Y-8405200D02*
X37285714Y-8309962D01*
X37285714Y-8309962D02*
X37285714Y-8143296D01*
X37285714Y-8143296D02*
X37309523Y-8048058D01*
X37309523Y-8048058D02*
X37357142Y-8000439D01*
X37357142Y-8000439D02*
X37404761Y-7976629D01*
X37404761Y-7976629D02*
X37499999Y-7976629D01*
X37499999Y-7976629D02*
X37547618Y-8000439D01*
X37547618Y-8000439D02*
X37595237Y-8048058D01*
X37595237Y-8048058D02*
X37619047Y-8143296D01*
X37619047Y-8143296D02*
X37619047Y-8309962D01*
X37619047Y-8309962D02*
X37595237Y-8405200D01*
X37595237Y-8405200D02*
X37547618Y-8452820D01*
X37547618Y-8452820D02*
X37499999Y-8476629D01*
X37499999Y-8476629D02*
X37404761Y-8476629D01*
X38095238Y-8476629D02*
X37809524Y-8476629D01*
X37952381Y-8476629D02*
X37952381Y-7976629D01*
X37952381Y-7976629D02*
X37904762Y-8048058D01*
X37904762Y-8048058D02*
X37857143Y-8095677D01*
X37857143Y-8095677D02*
X37809524Y-8119486D01*
X25928571Y-12001629D02*
X25928571Y-11501629D01*
X25928571Y-11501629D02*
X26214285Y-12001629D01*
X26214285Y-12001629D02*
X26214285Y-11501629D01*
X26428572Y-11549248D02*
X26452381Y-11525439D01*
X26452381Y-11525439D02*
X26500000Y-11501629D01*
X26500000Y-11501629D02*
X26619048Y-11501629D01*
X26619048Y-11501629D02*
X26666667Y-11525439D01*
X26666667Y-11525439D02*
X26690476Y-11549248D01*
X26690476Y-11549248D02*
X26714286Y-11596867D01*
X26714286Y-11596867D02*
X26714286Y-11644486D01*
X26714286Y-11644486D02*
X26690476Y-11715915D01*
X26690476Y-11715915D02*
X26404762Y-12001629D01*
X26404762Y-12001629D02*
X26714286Y-12001629D01*
X26809524Y-12049248D02*
X27190476Y-12049248D01*
X27309523Y-11501629D02*
X27309523Y-11906391D01*
X27309523Y-11906391D02*
X27333333Y-11954010D01*
X27333333Y-11954010D02*
X27357142Y-11977820D01*
X27357142Y-11977820D02*
X27404761Y-12001629D01*
X27404761Y-12001629D02*
X27499999Y-12001629D01*
X27499999Y-12001629D02*
X27547618Y-11977820D01*
X27547618Y-11977820D02*
X27571428Y-11954010D01*
X27571428Y-11954010D02*
X27595237Y-11906391D01*
X27595237Y-11906391D02*
X27595237Y-11501629D01*
X28095238Y-12001629D02*
X27809524Y-12001629D01*
X27952381Y-12001629D02*
X27952381Y-11501629D01*
X27952381Y-11501629D02*
X27904762Y-11573058D01*
X27904762Y-11573058D02*
X27857143Y-11620677D01*
X27857143Y-11620677D02*
X27809524Y-11644486D01*
X63928571Y-20976629D02*
X63928571Y-20476629D01*
X63928571Y-20476629D02*
X64214285Y-20976629D01*
X64214285Y-20976629D02*
X64214285Y-20476629D01*
X64523810Y-20690915D02*
X64476191Y-20667105D01*
X64476191Y-20667105D02*
X64452381Y-20643296D01*
X64452381Y-20643296D02*
X64428572Y-20595677D01*
X64428572Y-20595677D02*
X64428572Y-20571867D01*
X64428572Y-20571867D02*
X64452381Y-20524248D01*
X64452381Y-20524248D02*
X64476191Y-20500439D01*
X64476191Y-20500439D02*
X64523810Y-20476629D01*
X64523810Y-20476629D02*
X64619048Y-20476629D01*
X64619048Y-20476629D02*
X64666667Y-20500439D01*
X64666667Y-20500439D02*
X64690476Y-20524248D01*
X64690476Y-20524248D02*
X64714286Y-20571867D01*
X64714286Y-20571867D02*
X64714286Y-20595677D01*
X64714286Y-20595677D02*
X64690476Y-20643296D01*
X64690476Y-20643296D02*
X64666667Y-20667105D01*
X64666667Y-20667105D02*
X64619048Y-20690915D01*
X64619048Y-20690915D02*
X64523810Y-20690915D01*
X64523810Y-20690915D02*
X64476191Y-20714724D01*
X64476191Y-20714724D02*
X64452381Y-20738534D01*
X64452381Y-20738534D02*
X64428572Y-20786153D01*
X64428572Y-20786153D02*
X64428572Y-20881391D01*
X64428572Y-20881391D02*
X64452381Y-20929010D01*
X64452381Y-20929010D02*
X64476191Y-20952820D01*
X64476191Y-20952820D02*
X64523810Y-20976629D01*
X64523810Y-20976629D02*
X64619048Y-20976629D01*
X64619048Y-20976629D02*
X64666667Y-20952820D01*
X64666667Y-20952820D02*
X64690476Y-20929010D01*
X64690476Y-20929010D02*
X64714286Y-20881391D01*
X64714286Y-20881391D02*
X64714286Y-20786153D01*
X64714286Y-20786153D02*
X64690476Y-20738534D01*
X64690476Y-20738534D02*
X64666667Y-20714724D01*
X64666667Y-20714724D02*
X64619048Y-20690915D01*
X64809524Y-21024248D02*
X65190476Y-21024248D01*
X65642856Y-21024248D02*
X65595237Y-21000439D01*
X65595237Y-21000439D02*
X65547618Y-20952820D01*
X65547618Y-20952820D02*
X65476190Y-20881391D01*
X65476190Y-20881391D02*
X65428571Y-20857581D01*
X65428571Y-20857581D02*
X65380952Y-20857581D01*
X65404761Y-20976629D02*
X65357142Y-20952820D01*
X65357142Y-20952820D02*
X65309523Y-20905200D01*
X65309523Y-20905200D02*
X65285714Y-20809962D01*
X65285714Y-20809962D02*
X65285714Y-20643296D01*
X65285714Y-20643296D02*
X65309523Y-20548058D01*
X65309523Y-20548058D02*
X65357142Y-20500439D01*
X65357142Y-20500439D02*
X65404761Y-20476629D01*
X65404761Y-20476629D02*
X65499999Y-20476629D01*
X65499999Y-20476629D02*
X65547618Y-20500439D01*
X65547618Y-20500439D02*
X65595237Y-20548058D01*
X65595237Y-20548058D02*
X65619047Y-20643296D01*
X65619047Y-20643296D02*
X65619047Y-20809962D01*
X65619047Y-20809962D02*
X65595237Y-20905200D01*
X65595237Y-20905200D02*
X65547618Y-20952820D01*
X65547618Y-20952820D02*
X65499999Y-20976629D01*
X65499999Y-20976629D02*
X65404761Y-20976629D01*
X65809524Y-20524248D02*
X65833333Y-20500439D01*
X65833333Y-20500439D02*
X65880952Y-20476629D01*
X65880952Y-20476629D02*
X66000000Y-20476629D01*
X66000000Y-20476629D02*
X66047619Y-20500439D01*
X66047619Y-20500439D02*
X66071428Y-20524248D01*
X66071428Y-20524248D02*
X66095238Y-20571867D01*
X66095238Y-20571867D02*
X66095238Y-20619486D01*
X66095238Y-20619486D02*
X66071428Y-20690915D01*
X66071428Y-20690915D02*
X65785714Y-20976629D01*
X65785714Y-20976629D02*
X66095238Y-20976629D01*
X52119048Y-59814724D02*
X52190476Y-59838534D01*
X52190476Y-59838534D02*
X52214286Y-59862343D01*
X52214286Y-59862343D02*
X52238095Y-59909962D01*
X52238095Y-59909962D02*
X52238095Y-59981391D01*
X52238095Y-59981391D02*
X52214286Y-60029010D01*
X52214286Y-60029010D02*
X52190476Y-60052820D01*
X52190476Y-60052820D02*
X52142857Y-60076629D01*
X52142857Y-60076629D02*
X51952381Y-60076629D01*
X51952381Y-60076629D02*
X51952381Y-59576629D01*
X51952381Y-59576629D02*
X52119048Y-59576629D01*
X52119048Y-59576629D02*
X52166667Y-59600439D01*
X52166667Y-59600439D02*
X52190476Y-59624248D01*
X52190476Y-59624248D02*
X52214286Y-59671867D01*
X52214286Y-59671867D02*
X52214286Y-59719486D01*
X52214286Y-59719486D02*
X52190476Y-59767105D01*
X52190476Y-59767105D02*
X52166667Y-59790915D01*
X52166667Y-59790915D02*
X52119048Y-59814724D01*
X52119048Y-59814724D02*
X51952381Y-59814724D01*
X52404762Y-59576629D02*
X52738095Y-59576629D01*
X52738095Y-59576629D02*
X52523810Y-60076629D01*
X52809524Y-60124248D02*
X53190476Y-60124248D01*
X53309523Y-60076629D02*
X53309523Y-59576629D01*
X53309523Y-59576629D02*
X53428571Y-59576629D01*
X53428571Y-59576629D02*
X53499999Y-59600439D01*
X53499999Y-59600439D02*
X53547618Y-59648058D01*
X53547618Y-59648058D02*
X53571428Y-59695677D01*
X53571428Y-59695677D02*
X53595237Y-59790915D01*
X53595237Y-59790915D02*
X53595237Y-59862343D01*
X53595237Y-59862343D02*
X53571428Y-59957581D01*
X53571428Y-59957581D02*
X53547618Y-60005200D01*
X53547618Y-60005200D02*
X53499999Y-60052820D01*
X53499999Y-60052820D02*
X53428571Y-60076629D01*
X53428571Y-60076629D02*
X53309523Y-60076629D01*
X53785714Y-59624248D02*
X53809523Y-59600439D01*
X53809523Y-59600439D02*
X53857142Y-59576629D01*
X53857142Y-59576629D02*
X53976190Y-59576629D01*
X53976190Y-59576629D02*
X54023809Y-59600439D01*
X54023809Y-59600439D02*
X54047618Y-59624248D01*
X54047618Y-59624248D02*
X54071428Y-59671867D01*
X54071428Y-59671867D02*
X54071428Y-59719486D01*
X54071428Y-59719486D02*
X54047618Y-59790915D01*
X54047618Y-59790915D02*
X53761904Y-60076629D01*
X53761904Y-60076629D02*
X54071428Y-60076629D01*
X41928571Y-24501629D02*
X41928571Y-24001629D01*
X41928571Y-24001629D02*
X42214285Y-24501629D01*
X42214285Y-24501629D02*
X42214285Y-24001629D01*
X42404762Y-24001629D02*
X42738095Y-24001629D01*
X42738095Y-24001629D02*
X42523810Y-24501629D01*
X42809524Y-24549248D02*
X43190476Y-24549248D01*
X43309523Y-24001629D02*
X43309523Y-24406391D01*
X43309523Y-24406391D02*
X43333333Y-24454010D01*
X43333333Y-24454010D02*
X43357142Y-24477820D01*
X43357142Y-24477820D02*
X43404761Y-24501629D01*
X43404761Y-24501629D02*
X43499999Y-24501629D01*
X43499999Y-24501629D02*
X43547618Y-24477820D01*
X43547618Y-24477820D02*
X43571428Y-24454010D01*
X43571428Y-24454010D02*
X43595237Y-24406391D01*
X43595237Y-24406391D02*
X43595237Y-24001629D01*
X44095238Y-24501629D02*
X43809524Y-24501629D01*
X43952381Y-24501629D02*
X43952381Y-24001629D01*
X43952381Y-24001629D02*
X43904762Y-24073058D01*
X43904762Y-24073058D02*
X43857143Y-24120677D01*
X43857143Y-24120677D02*
X43809524Y-24144486D01*
X57928571Y-24501629D02*
X57928571Y-24001629D01*
X57928571Y-24001629D02*
X58214285Y-24501629D01*
X58214285Y-24501629D02*
X58214285Y-24001629D01*
X58523810Y-24215915D02*
X58476191Y-24192105D01*
X58476191Y-24192105D02*
X58452381Y-24168296D01*
X58452381Y-24168296D02*
X58428572Y-24120677D01*
X58428572Y-24120677D02*
X58428572Y-24096867D01*
X58428572Y-24096867D02*
X58452381Y-24049248D01*
X58452381Y-24049248D02*
X58476191Y-24025439D01*
X58476191Y-24025439D02*
X58523810Y-24001629D01*
X58523810Y-24001629D02*
X58619048Y-24001629D01*
X58619048Y-24001629D02*
X58666667Y-24025439D01*
X58666667Y-24025439D02*
X58690476Y-24049248D01*
X58690476Y-24049248D02*
X58714286Y-24096867D01*
X58714286Y-24096867D02*
X58714286Y-24120677D01*
X58714286Y-24120677D02*
X58690476Y-24168296D01*
X58690476Y-24168296D02*
X58666667Y-24192105D01*
X58666667Y-24192105D02*
X58619048Y-24215915D01*
X58619048Y-24215915D02*
X58523810Y-24215915D01*
X58523810Y-24215915D02*
X58476191Y-24239724D01*
X58476191Y-24239724D02*
X58452381Y-24263534D01*
X58452381Y-24263534D02*
X58428572Y-24311153D01*
X58428572Y-24311153D02*
X58428572Y-24406391D01*
X58428572Y-24406391D02*
X58452381Y-24454010D01*
X58452381Y-24454010D02*
X58476191Y-24477820D01*
X58476191Y-24477820D02*
X58523810Y-24501629D01*
X58523810Y-24501629D02*
X58619048Y-24501629D01*
X58619048Y-24501629D02*
X58666667Y-24477820D01*
X58666667Y-24477820D02*
X58690476Y-24454010D01*
X58690476Y-24454010D02*
X58714286Y-24406391D01*
X58714286Y-24406391D02*
X58714286Y-24311153D01*
X58714286Y-24311153D02*
X58690476Y-24263534D01*
X58690476Y-24263534D02*
X58666667Y-24239724D01*
X58666667Y-24239724D02*
X58619048Y-24215915D01*
X58809524Y-24549248D02*
X59190476Y-24549248D01*
X59309523Y-24001629D02*
X59309523Y-24406391D01*
X59309523Y-24406391D02*
X59333333Y-24454010D01*
X59333333Y-24454010D02*
X59357142Y-24477820D01*
X59357142Y-24477820D02*
X59404761Y-24501629D01*
X59404761Y-24501629D02*
X59499999Y-24501629D01*
X59499999Y-24501629D02*
X59547618Y-24477820D01*
X59547618Y-24477820D02*
X59571428Y-24454010D01*
X59571428Y-24454010D02*
X59595237Y-24406391D01*
X59595237Y-24406391D02*
X59595237Y-24001629D01*
X60095238Y-24501629D02*
X59809524Y-24501629D01*
X59952381Y-24501629D02*
X59952381Y-24001629D01*
X59952381Y-24001629D02*
X59904762Y-24073058D01*
X59904762Y-24073058D02*
X59857143Y-24120677D01*
X59857143Y-24120677D02*
X59809524Y-24144486D01*
X19928571Y-8476629D02*
X19928571Y-7976629D01*
X19928571Y-7976629D02*
X20214285Y-8476629D01*
X20214285Y-8476629D02*
X20214285Y-7976629D01*
X20428572Y-8024248D02*
X20452381Y-8000439D01*
X20452381Y-8000439D02*
X20500000Y-7976629D01*
X20500000Y-7976629D02*
X20619048Y-7976629D01*
X20619048Y-7976629D02*
X20666667Y-8000439D01*
X20666667Y-8000439D02*
X20690476Y-8024248D01*
X20690476Y-8024248D02*
X20714286Y-8071867D01*
X20714286Y-8071867D02*
X20714286Y-8119486D01*
X20714286Y-8119486D02*
X20690476Y-8190915D01*
X20690476Y-8190915D02*
X20404762Y-8476629D01*
X20404762Y-8476629D02*
X20714286Y-8476629D01*
X20809524Y-8524248D02*
X21190476Y-8524248D01*
X21642856Y-8524248D02*
X21595237Y-8500439D01*
X21595237Y-8500439D02*
X21547618Y-8452820D01*
X21547618Y-8452820D02*
X21476190Y-8381391D01*
X21476190Y-8381391D02*
X21428571Y-8357581D01*
X21428571Y-8357581D02*
X21380952Y-8357581D01*
X21404761Y-8476629D02*
X21357142Y-8452820D01*
X21357142Y-8452820D02*
X21309523Y-8405200D01*
X21309523Y-8405200D02*
X21285714Y-8309962D01*
X21285714Y-8309962D02*
X21285714Y-8143296D01*
X21285714Y-8143296D02*
X21309523Y-8048058D01*
X21309523Y-8048058D02*
X21357142Y-8000439D01*
X21357142Y-8000439D02*
X21404761Y-7976629D01*
X21404761Y-7976629D02*
X21499999Y-7976629D01*
X21499999Y-7976629D02*
X21547618Y-8000439D01*
X21547618Y-8000439D02*
X21595237Y-8048058D01*
X21595237Y-8048058D02*
X21619047Y-8143296D01*
X21619047Y-8143296D02*
X21619047Y-8309962D01*
X21619047Y-8309962D02*
X21595237Y-8405200D01*
X21595237Y-8405200D02*
X21547618Y-8452820D01*
X21547618Y-8452820D02*
X21499999Y-8476629D01*
X21499999Y-8476629D02*
X21404761Y-8476629D01*
X22095238Y-8476629D02*
X21809524Y-8476629D01*
X21952381Y-8476629D02*
X21952381Y-7976629D01*
X21952381Y-7976629D02*
X21904762Y-8048058D01*
X21904762Y-8048058D02*
X21857143Y-8095677D01*
X21857143Y-8095677D02*
X21809524Y-8119486D01*
X47928571Y-8476629D02*
X47928571Y-7976629D01*
X47928571Y-7976629D02*
X48214285Y-8476629D01*
X48214285Y-8476629D02*
X48214285Y-7976629D01*
X48404762Y-7976629D02*
X48714286Y-7976629D01*
X48714286Y-7976629D02*
X48547619Y-8167105D01*
X48547619Y-8167105D02*
X48619048Y-8167105D01*
X48619048Y-8167105D02*
X48666667Y-8190915D01*
X48666667Y-8190915D02*
X48690476Y-8214724D01*
X48690476Y-8214724D02*
X48714286Y-8262343D01*
X48714286Y-8262343D02*
X48714286Y-8381391D01*
X48714286Y-8381391D02*
X48690476Y-8429010D01*
X48690476Y-8429010D02*
X48666667Y-8452820D01*
X48666667Y-8452820D02*
X48619048Y-8476629D01*
X48619048Y-8476629D02*
X48476191Y-8476629D01*
X48476191Y-8476629D02*
X48428572Y-8452820D01*
X48428572Y-8452820D02*
X48404762Y-8429010D01*
X48809524Y-8524248D02*
X49190476Y-8524248D01*
X49642856Y-8524248D02*
X49595237Y-8500439D01*
X49595237Y-8500439D02*
X49547618Y-8452820D01*
X49547618Y-8452820D02*
X49476190Y-8381391D01*
X49476190Y-8381391D02*
X49428571Y-8357581D01*
X49428571Y-8357581D02*
X49380952Y-8357581D01*
X49404761Y-8476629D02*
X49357142Y-8452820D01*
X49357142Y-8452820D02*
X49309523Y-8405200D01*
X49309523Y-8405200D02*
X49285714Y-8309962D01*
X49285714Y-8309962D02*
X49285714Y-8143296D01*
X49285714Y-8143296D02*
X49309523Y-8048058D01*
X49309523Y-8048058D02*
X49357142Y-8000439D01*
X49357142Y-8000439D02*
X49404761Y-7976629D01*
X49404761Y-7976629D02*
X49499999Y-7976629D01*
X49499999Y-7976629D02*
X49547618Y-8000439D01*
X49547618Y-8000439D02*
X49595237Y-8048058D01*
X49595237Y-8048058D02*
X49619047Y-8143296D01*
X49619047Y-8143296D02*
X49619047Y-8309962D01*
X49619047Y-8309962D02*
X49595237Y-8405200D01*
X49595237Y-8405200D02*
X49547618Y-8452820D01*
X49547618Y-8452820D02*
X49499999Y-8476629D01*
X49499999Y-8476629D02*
X49404761Y-8476629D01*
X49809524Y-8024248D02*
X49833333Y-8000439D01*
X49833333Y-8000439D02*
X49880952Y-7976629D01*
X49880952Y-7976629D02*
X50000000Y-7976629D01*
X50000000Y-7976629D02*
X50047619Y-8000439D01*
X50047619Y-8000439D02*
X50071428Y-8024248D01*
X50071428Y-8024248D02*
X50095238Y-8071867D01*
X50095238Y-8071867D02*
X50095238Y-8119486D01*
X50095238Y-8119486D02*
X50071428Y-8190915D01*
X50071428Y-8190915D02*
X49785714Y-8476629D01*
X49785714Y-8476629D02*
X50095238Y-8476629D01*
X31928571Y-20976629D02*
X31928571Y-20476629D01*
X31928571Y-20476629D02*
X32214285Y-20976629D01*
X32214285Y-20976629D02*
X32214285Y-20476629D01*
X32666667Y-20476629D02*
X32571429Y-20476629D01*
X32571429Y-20476629D02*
X32523810Y-20500439D01*
X32523810Y-20500439D02*
X32500000Y-20524248D01*
X32500000Y-20524248D02*
X32452381Y-20595677D01*
X32452381Y-20595677D02*
X32428572Y-20690915D01*
X32428572Y-20690915D02*
X32428572Y-20881391D01*
X32428572Y-20881391D02*
X32452381Y-20929010D01*
X32452381Y-20929010D02*
X32476191Y-20952820D01*
X32476191Y-20952820D02*
X32523810Y-20976629D01*
X32523810Y-20976629D02*
X32619048Y-20976629D01*
X32619048Y-20976629D02*
X32666667Y-20952820D01*
X32666667Y-20952820D02*
X32690476Y-20929010D01*
X32690476Y-20929010D02*
X32714286Y-20881391D01*
X32714286Y-20881391D02*
X32714286Y-20762343D01*
X32714286Y-20762343D02*
X32690476Y-20714724D01*
X32690476Y-20714724D02*
X32666667Y-20690915D01*
X32666667Y-20690915D02*
X32619048Y-20667105D01*
X32619048Y-20667105D02*
X32523810Y-20667105D01*
X32523810Y-20667105D02*
X32476191Y-20690915D01*
X32476191Y-20690915D02*
X32452381Y-20714724D01*
X32452381Y-20714724D02*
X32428572Y-20762343D01*
X32809524Y-21024248D02*
X33190476Y-21024248D01*
X33642856Y-21024248D02*
X33595237Y-21000439D01*
X33595237Y-21000439D02*
X33547618Y-20952820D01*
X33547618Y-20952820D02*
X33476190Y-20881391D01*
X33476190Y-20881391D02*
X33428571Y-20857581D01*
X33428571Y-20857581D02*
X33380952Y-20857581D01*
X33404761Y-20976629D02*
X33357142Y-20952820D01*
X33357142Y-20952820D02*
X33309523Y-20905200D01*
X33309523Y-20905200D02*
X33285714Y-20809962D01*
X33285714Y-20809962D02*
X33285714Y-20643296D01*
X33285714Y-20643296D02*
X33309523Y-20548058D01*
X33309523Y-20548058D02*
X33357142Y-20500439D01*
X33357142Y-20500439D02*
X33404761Y-20476629D01*
X33404761Y-20476629D02*
X33499999Y-20476629D01*
X33499999Y-20476629D02*
X33547618Y-20500439D01*
X33547618Y-20500439D02*
X33595237Y-20548058D01*
X33595237Y-20548058D02*
X33619047Y-20643296D01*
X33619047Y-20643296D02*
X33619047Y-20809962D01*
X33619047Y-20809962D02*
X33595237Y-20905200D01*
X33595237Y-20905200D02*
X33547618Y-20952820D01*
X33547618Y-20952820D02*
X33499999Y-20976629D01*
X33499999Y-20976629D02*
X33404761Y-20976629D01*
X33809524Y-20524248D02*
X33833333Y-20500439D01*
X33833333Y-20500439D02*
X33880952Y-20476629D01*
X33880952Y-20476629D02*
X34000000Y-20476629D01*
X34000000Y-20476629D02*
X34047619Y-20500439D01*
X34047619Y-20500439D02*
X34071428Y-20524248D01*
X34071428Y-20524248D02*
X34095238Y-20571867D01*
X34095238Y-20571867D02*
X34095238Y-20619486D01*
X34095238Y-20619486D02*
X34071428Y-20690915D01*
X34071428Y-20690915D02*
X33785714Y-20976629D01*
X33785714Y-20976629D02*
X34095238Y-20976629D01*
X9928571Y-12001629D02*
X9928571Y-11501629D01*
X9928571Y-11501629D02*
X10214285Y-12001629D01*
X10214285Y-12001629D02*
X10214285Y-11501629D01*
X10714286Y-12001629D02*
X10428572Y-12001629D01*
X10571429Y-12001629D02*
X10571429Y-11501629D01*
X10571429Y-11501629D02*
X10523810Y-11573058D01*
X10523810Y-11573058D02*
X10476191Y-11620677D01*
X10476191Y-11620677D02*
X10428572Y-11644486D01*
X10809524Y-12049248D02*
X11190476Y-12049248D01*
X11309523Y-11501629D02*
X11309523Y-11906391D01*
X11309523Y-11906391D02*
X11333333Y-11954010D01*
X11333333Y-11954010D02*
X11357142Y-11977820D01*
X11357142Y-11977820D02*
X11404761Y-12001629D01*
X11404761Y-12001629D02*
X11499999Y-12001629D01*
X11499999Y-12001629D02*
X11547618Y-11977820D01*
X11547618Y-11977820D02*
X11571428Y-11954010D01*
X11571428Y-11954010D02*
X11595237Y-11906391D01*
X11595237Y-11906391D02*
X11595237Y-11501629D01*
X12095238Y-12001629D02*
X11809524Y-12001629D01*
X11952381Y-12001629D02*
X11952381Y-11501629D01*
X11952381Y-11501629D02*
X11904762Y-11573058D01*
X11904762Y-11573058D02*
X11857143Y-11620677D01*
X11857143Y-11620677D02*
X11809524Y-11644486D01*
X15928571Y-8476629D02*
X15928571Y-7976629D01*
X15928571Y-7976629D02*
X16214285Y-8476629D01*
X16214285Y-8476629D02*
X16214285Y-7976629D01*
X16714286Y-8476629D02*
X16428572Y-8476629D01*
X16571429Y-8476629D02*
X16571429Y-7976629D01*
X16571429Y-7976629D02*
X16523810Y-8048058D01*
X16523810Y-8048058D02*
X16476191Y-8095677D01*
X16476191Y-8095677D02*
X16428572Y-8119486D01*
X16809524Y-8524248D02*
X17190476Y-8524248D01*
X17642856Y-8524248D02*
X17595237Y-8500439D01*
X17595237Y-8500439D02*
X17547618Y-8452820D01*
X17547618Y-8452820D02*
X17476190Y-8381391D01*
X17476190Y-8381391D02*
X17428571Y-8357581D01*
X17428571Y-8357581D02*
X17380952Y-8357581D01*
X17404761Y-8476629D02*
X17357142Y-8452820D01*
X17357142Y-8452820D02*
X17309523Y-8405200D01*
X17309523Y-8405200D02*
X17285714Y-8309962D01*
X17285714Y-8309962D02*
X17285714Y-8143296D01*
X17285714Y-8143296D02*
X17309523Y-8048058D01*
X17309523Y-8048058D02*
X17357142Y-8000439D01*
X17357142Y-8000439D02*
X17404761Y-7976629D01*
X17404761Y-7976629D02*
X17499999Y-7976629D01*
X17499999Y-7976629D02*
X17547618Y-8000439D01*
X17547618Y-8000439D02*
X17595237Y-8048058D01*
X17595237Y-8048058D02*
X17619047Y-8143296D01*
X17619047Y-8143296D02*
X17619047Y-8309962D01*
X17619047Y-8309962D02*
X17595237Y-8405200D01*
X17595237Y-8405200D02*
X17547618Y-8452820D01*
X17547618Y-8452820D02*
X17499999Y-8476629D01*
X17499999Y-8476629D02*
X17404761Y-8476629D01*
X17809524Y-8024248D02*
X17833333Y-8000439D01*
X17833333Y-8000439D02*
X17880952Y-7976629D01*
X17880952Y-7976629D02*
X18000000Y-7976629D01*
X18000000Y-7976629D02*
X18047619Y-8000439D01*
X18047619Y-8000439D02*
X18071428Y-8024248D01*
X18071428Y-8024248D02*
X18095238Y-8071867D01*
X18095238Y-8071867D02*
X18095238Y-8119486D01*
X18095238Y-8119486D02*
X18071428Y-8190915D01*
X18071428Y-8190915D02*
X17785714Y-8476629D01*
X17785714Y-8476629D02*
X18095238Y-8476629D01*
X43880953Y-64314724D02*
X43952381Y-64338534D01*
X43952381Y-64338534D02*
X43976191Y-64362343D01*
X43976191Y-64362343D02*
X44000000Y-64409962D01*
X44000000Y-64409962D02*
X44000000Y-64481391D01*
X44000000Y-64481391D02*
X43976191Y-64529010D01*
X43976191Y-64529010D02*
X43952381Y-64552820D01*
X43952381Y-64552820D02*
X43904762Y-64576629D01*
X43904762Y-64576629D02*
X43714286Y-64576629D01*
X43714286Y-64576629D02*
X43714286Y-64076629D01*
X43714286Y-64076629D02*
X43880953Y-64076629D01*
X43880953Y-64076629D02*
X43928572Y-64100439D01*
X43928572Y-64100439D02*
X43952381Y-64124248D01*
X43952381Y-64124248D02*
X43976191Y-64171867D01*
X43976191Y-64171867D02*
X43976191Y-64219486D01*
X43976191Y-64219486D02*
X43952381Y-64267105D01*
X43952381Y-64267105D02*
X43928572Y-64290915D01*
X43928572Y-64290915D02*
X43880953Y-64314724D01*
X43880953Y-64314724D02*
X43714286Y-64314724D01*
X44476191Y-64576629D02*
X44190477Y-64576629D01*
X44333334Y-64576629D02*
X44333334Y-64076629D01*
X44333334Y-64076629D02*
X44285715Y-64148058D01*
X44285715Y-64148058D02*
X44238096Y-64195677D01*
X44238096Y-64195677D02*
X44190477Y-64219486D01*
X44904762Y-64243296D02*
X44904762Y-64576629D01*
X44785714Y-64052820D02*
X44666667Y-64409962D01*
X44666667Y-64409962D02*
X44976190Y-64409962D01*
X45047619Y-64624248D02*
X45428571Y-64624248D01*
X45547618Y-64576629D02*
X45547618Y-64076629D01*
X45547618Y-64076629D02*
X45666666Y-64076629D01*
X45666666Y-64076629D02*
X45738094Y-64100439D01*
X45738094Y-64100439D02*
X45785713Y-64148058D01*
X45785713Y-64148058D02*
X45809523Y-64195677D01*
X45809523Y-64195677D02*
X45833332Y-64290915D01*
X45833332Y-64290915D02*
X45833332Y-64362343D01*
X45833332Y-64362343D02*
X45809523Y-64457581D01*
X45809523Y-64457581D02*
X45785713Y-64505200D01*
X45785713Y-64505200D02*
X45738094Y-64552820D01*
X45738094Y-64552820D02*
X45666666Y-64576629D01*
X45666666Y-64576629D02*
X45547618Y-64576629D01*
X46023809Y-64124248D02*
X46047618Y-64100439D01*
X46047618Y-64100439D02*
X46095237Y-64076629D01*
X46095237Y-64076629D02*
X46214285Y-64076629D01*
X46214285Y-64076629D02*
X46261904Y-64100439D01*
X46261904Y-64100439D02*
X46285713Y-64124248D01*
X46285713Y-64124248D02*
X46309523Y-64171867D01*
X46309523Y-64171867D02*
X46309523Y-64219486D01*
X46309523Y-64219486D02*
X46285713Y-64290915D01*
X46285713Y-64290915D02*
X45999999Y-64576629D01*
X45999999Y-64576629D02*
X46309523Y-64576629D01*
X25928571Y-24501629D02*
X25928571Y-24001629D01*
X25928571Y-24001629D02*
X26214285Y-24501629D01*
X26214285Y-24501629D02*
X26214285Y-24001629D01*
X26666667Y-24001629D02*
X26571429Y-24001629D01*
X26571429Y-24001629D02*
X26523810Y-24025439D01*
X26523810Y-24025439D02*
X26500000Y-24049248D01*
X26500000Y-24049248D02*
X26452381Y-24120677D01*
X26452381Y-24120677D02*
X26428572Y-24215915D01*
X26428572Y-24215915D02*
X26428572Y-24406391D01*
X26428572Y-24406391D02*
X26452381Y-24454010D01*
X26452381Y-24454010D02*
X26476191Y-24477820D01*
X26476191Y-24477820D02*
X26523810Y-24501629D01*
X26523810Y-24501629D02*
X26619048Y-24501629D01*
X26619048Y-24501629D02*
X26666667Y-24477820D01*
X26666667Y-24477820D02*
X26690476Y-24454010D01*
X26690476Y-24454010D02*
X26714286Y-24406391D01*
X26714286Y-24406391D02*
X26714286Y-24287343D01*
X26714286Y-24287343D02*
X26690476Y-24239724D01*
X26690476Y-24239724D02*
X26666667Y-24215915D01*
X26666667Y-24215915D02*
X26619048Y-24192105D01*
X26619048Y-24192105D02*
X26523810Y-24192105D01*
X26523810Y-24192105D02*
X26476191Y-24215915D01*
X26476191Y-24215915D02*
X26452381Y-24239724D01*
X26452381Y-24239724D02*
X26428572Y-24287343D01*
X26809524Y-24549248D02*
X27190476Y-24549248D01*
X27309523Y-24001629D02*
X27309523Y-24406391D01*
X27309523Y-24406391D02*
X27333333Y-24454010D01*
X27333333Y-24454010D02*
X27357142Y-24477820D01*
X27357142Y-24477820D02*
X27404761Y-24501629D01*
X27404761Y-24501629D02*
X27499999Y-24501629D01*
X27499999Y-24501629D02*
X27547618Y-24477820D01*
X27547618Y-24477820D02*
X27571428Y-24454010D01*
X27571428Y-24454010D02*
X27595237Y-24406391D01*
X27595237Y-24406391D02*
X27595237Y-24001629D01*
X28095238Y-24501629D02*
X27809524Y-24501629D01*
X27952381Y-24501629D02*
X27952381Y-24001629D01*
X27952381Y-24001629D02*
X27904762Y-24073058D01*
X27904762Y-24073058D02*
X27857143Y-24120677D01*
X27857143Y-24120677D02*
X27809524Y-24144486D01*
X19690476Y-33476629D02*
X19690476Y-32976629D01*
X19690476Y-32976629D02*
X19976190Y-33476629D01*
X19976190Y-33476629D02*
X19976190Y-32976629D01*
X20476191Y-33476629D02*
X20190477Y-33476629D01*
X20333334Y-33476629D02*
X20333334Y-32976629D01*
X20333334Y-32976629D02*
X20285715Y-33048058D01*
X20285715Y-33048058D02*
X20238096Y-33095677D01*
X20238096Y-33095677D02*
X20190477Y-33119486D01*
X20785714Y-32976629D02*
X20833333Y-32976629D01*
X20833333Y-32976629D02*
X20880952Y-33000439D01*
X20880952Y-33000439D02*
X20904762Y-33024248D01*
X20904762Y-33024248D02*
X20928571Y-33071867D01*
X20928571Y-33071867D02*
X20952381Y-33167105D01*
X20952381Y-33167105D02*
X20952381Y-33286153D01*
X20952381Y-33286153D02*
X20928571Y-33381391D01*
X20928571Y-33381391D02*
X20904762Y-33429010D01*
X20904762Y-33429010D02*
X20880952Y-33452820D01*
X20880952Y-33452820D02*
X20833333Y-33476629D01*
X20833333Y-33476629D02*
X20785714Y-33476629D01*
X20785714Y-33476629D02*
X20738095Y-33452820D01*
X20738095Y-33452820D02*
X20714286Y-33429010D01*
X20714286Y-33429010D02*
X20690476Y-33381391D01*
X20690476Y-33381391D02*
X20666667Y-33286153D01*
X20666667Y-33286153D02*
X20666667Y-33167105D01*
X20666667Y-33167105D02*
X20690476Y-33071867D01*
X20690476Y-33071867D02*
X20714286Y-33024248D01*
X20714286Y-33024248D02*
X20738095Y-33000439D01*
X20738095Y-33000439D02*
X20785714Y-32976629D01*
X21047619Y-33524248D02*
X21428571Y-33524248D01*
X21880951Y-33524248D02*
X21833332Y-33500439D01*
X21833332Y-33500439D02*
X21785713Y-33452820D01*
X21785713Y-33452820D02*
X21714285Y-33381391D01*
X21714285Y-33381391D02*
X21666666Y-33357581D01*
X21666666Y-33357581D02*
X21619047Y-33357581D01*
X21642856Y-33476629D02*
X21595237Y-33452820D01*
X21595237Y-33452820D02*
X21547618Y-33405200D01*
X21547618Y-33405200D02*
X21523809Y-33309962D01*
X21523809Y-33309962D02*
X21523809Y-33143296D01*
X21523809Y-33143296D02*
X21547618Y-33048058D01*
X21547618Y-33048058D02*
X21595237Y-33000439D01*
X21595237Y-33000439D02*
X21642856Y-32976629D01*
X21642856Y-32976629D02*
X21738094Y-32976629D01*
X21738094Y-32976629D02*
X21785713Y-33000439D01*
X21785713Y-33000439D02*
X21833332Y-33048058D01*
X21833332Y-33048058D02*
X21857142Y-33143296D01*
X21857142Y-33143296D02*
X21857142Y-33309962D01*
X21857142Y-33309962D02*
X21833332Y-33405200D01*
X21833332Y-33405200D02*
X21785713Y-33452820D01*
X21785713Y-33452820D02*
X21738094Y-33476629D01*
X21738094Y-33476629D02*
X21642856Y-33476629D01*
X22333333Y-33476629D02*
X22047619Y-33476629D01*
X22190476Y-33476629D02*
X22190476Y-32976629D01*
X22190476Y-32976629D02*
X22142857Y-33048058D01*
X22142857Y-33048058D02*
X22095238Y-33095677D01*
X22095238Y-33095677D02*
X22047619Y-33119486D01*
X25690476Y-37001629D02*
X25690476Y-36501629D01*
X25690476Y-36501629D02*
X25976190Y-37001629D01*
X25976190Y-37001629D02*
X25976190Y-36501629D01*
X26476191Y-37001629D02*
X26190477Y-37001629D01*
X26333334Y-37001629D02*
X26333334Y-36501629D01*
X26333334Y-36501629D02*
X26285715Y-36573058D01*
X26285715Y-36573058D02*
X26238096Y-36620677D01*
X26238096Y-36620677D02*
X26190477Y-36644486D01*
X26785714Y-36501629D02*
X26833333Y-36501629D01*
X26833333Y-36501629D02*
X26880952Y-36525439D01*
X26880952Y-36525439D02*
X26904762Y-36549248D01*
X26904762Y-36549248D02*
X26928571Y-36596867D01*
X26928571Y-36596867D02*
X26952381Y-36692105D01*
X26952381Y-36692105D02*
X26952381Y-36811153D01*
X26952381Y-36811153D02*
X26928571Y-36906391D01*
X26928571Y-36906391D02*
X26904762Y-36954010D01*
X26904762Y-36954010D02*
X26880952Y-36977820D01*
X26880952Y-36977820D02*
X26833333Y-37001629D01*
X26833333Y-37001629D02*
X26785714Y-37001629D01*
X26785714Y-37001629D02*
X26738095Y-36977820D01*
X26738095Y-36977820D02*
X26714286Y-36954010D01*
X26714286Y-36954010D02*
X26690476Y-36906391D01*
X26690476Y-36906391D02*
X26666667Y-36811153D01*
X26666667Y-36811153D02*
X26666667Y-36692105D01*
X26666667Y-36692105D02*
X26690476Y-36596867D01*
X26690476Y-36596867D02*
X26714286Y-36549248D01*
X26714286Y-36549248D02*
X26738095Y-36525439D01*
X26738095Y-36525439D02*
X26785714Y-36501629D01*
X27047619Y-37049248D02*
X27428571Y-37049248D01*
X27547618Y-36501629D02*
X27547618Y-36906391D01*
X27547618Y-36906391D02*
X27571428Y-36954010D01*
X27571428Y-36954010D02*
X27595237Y-36977820D01*
X27595237Y-36977820D02*
X27642856Y-37001629D01*
X27642856Y-37001629D02*
X27738094Y-37001629D01*
X27738094Y-37001629D02*
X27785713Y-36977820D01*
X27785713Y-36977820D02*
X27809523Y-36954010D01*
X27809523Y-36954010D02*
X27833332Y-36906391D01*
X27833332Y-36906391D02*
X27833332Y-36501629D01*
X28333333Y-37001629D02*
X28047619Y-37001629D01*
X28190476Y-37001629D02*
X28190476Y-36501629D01*
X28190476Y-36501629D02*
X28142857Y-36573058D01*
X28142857Y-36573058D02*
X28095238Y-36620677D01*
X28095238Y-36620677D02*
X28047619Y-36644486D01*
X40166667Y-59664724D02*
X40238095Y-59688534D01*
X40238095Y-59688534D02*
X40261905Y-59712343D01*
X40261905Y-59712343D02*
X40285714Y-59759962D01*
X40285714Y-59759962D02*
X40285714Y-59831391D01*
X40285714Y-59831391D02*
X40261905Y-59879010D01*
X40261905Y-59879010D02*
X40238095Y-59902820D01*
X40238095Y-59902820D02*
X40190476Y-59926629D01*
X40190476Y-59926629D02*
X40000000Y-59926629D01*
X40000000Y-59926629D02*
X40000000Y-59426629D01*
X40000000Y-59426629D02*
X40166667Y-59426629D01*
X40166667Y-59426629D02*
X40214286Y-59450439D01*
X40214286Y-59450439D02*
X40238095Y-59474248D01*
X40238095Y-59474248D02*
X40261905Y-59521867D01*
X40261905Y-59521867D02*
X40261905Y-59569486D01*
X40261905Y-59569486D02*
X40238095Y-59617105D01*
X40238095Y-59617105D02*
X40214286Y-59640915D01*
X40214286Y-59640915D02*
X40166667Y-59664724D01*
X40166667Y-59664724D02*
X40000000Y-59664724D01*
X40738095Y-59426629D02*
X40500000Y-59426629D01*
X40500000Y-59426629D02*
X40476191Y-59664724D01*
X40476191Y-59664724D02*
X40500000Y-59640915D01*
X40500000Y-59640915D02*
X40547619Y-59617105D01*
X40547619Y-59617105D02*
X40666667Y-59617105D01*
X40666667Y-59617105D02*
X40714286Y-59640915D01*
X40714286Y-59640915D02*
X40738095Y-59664724D01*
X40738095Y-59664724D02*
X40761905Y-59712343D01*
X40761905Y-59712343D02*
X40761905Y-59831391D01*
X40761905Y-59831391D02*
X40738095Y-59879010D01*
X40738095Y-59879010D02*
X40714286Y-59902820D01*
X40714286Y-59902820D02*
X40666667Y-59926629D01*
X40666667Y-59926629D02*
X40547619Y-59926629D01*
X40547619Y-59926629D02*
X40500000Y-59902820D01*
X40500000Y-59902820D02*
X40476191Y-59879010D01*
X40857143Y-59974248D02*
X41238095Y-59974248D01*
X41595237Y-59926629D02*
X41357142Y-59926629D01*
X41357142Y-59926629D02*
X41357142Y-59426629D01*
X42023809Y-59926629D02*
X41738095Y-59926629D01*
X41880952Y-59926629D02*
X41880952Y-59426629D01*
X41880952Y-59426629D02*
X41833333Y-59498058D01*
X41833333Y-59498058D02*
X41785714Y-59545677D01*
X41785714Y-59545677D02*
X41738095Y-59569486D01*
X24166667Y-59664724D02*
X24238095Y-59688534D01*
X24238095Y-59688534D02*
X24261905Y-59712343D01*
X24261905Y-59712343D02*
X24285714Y-59759962D01*
X24285714Y-59759962D02*
X24285714Y-59831391D01*
X24285714Y-59831391D02*
X24261905Y-59879010D01*
X24261905Y-59879010D02*
X24238095Y-59902820D01*
X24238095Y-59902820D02*
X24190476Y-59926629D01*
X24190476Y-59926629D02*
X24000000Y-59926629D01*
X24000000Y-59926629D02*
X24000000Y-59426629D01*
X24000000Y-59426629D02*
X24166667Y-59426629D01*
X24166667Y-59426629D02*
X24214286Y-59450439D01*
X24214286Y-59450439D02*
X24238095Y-59474248D01*
X24238095Y-59474248D02*
X24261905Y-59521867D01*
X24261905Y-59521867D02*
X24261905Y-59569486D01*
X24261905Y-59569486D02*
X24238095Y-59617105D01*
X24238095Y-59617105D02*
X24214286Y-59640915D01*
X24214286Y-59640915D02*
X24166667Y-59664724D01*
X24166667Y-59664724D02*
X24000000Y-59664724D01*
X24452381Y-59426629D02*
X24761905Y-59426629D01*
X24761905Y-59426629D02*
X24595238Y-59617105D01*
X24595238Y-59617105D02*
X24666667Y-59617105D01*
X24666667Y-59617105D02*
X24714286Y-59640915D01*
X24714286Y-59640915D02*
X24738095Y-59664724D01*
X24738095Y-59664724D02*
X24761905Y-59712343D01*
X24761905Y-59712343D02*
X24761905Y-59831391D01*
X24761905Y-59831391D02*
X24738095Y-59879010D01*
X24738095Y-59879010D02*
X24714286Y-59902820D01*
X24714286Y-59902820D02*
X24666667Y-59926629D01*
X24666667Y-59926629D02*
X24523810Y-59926629D01*
X24523810Y-59926629D02*
X24476191Y-59902820D01*
X24476191Y-59902820D02*
X24452381Y-59879010D01*
X24857143Y-59974248D02*
X25238095Y-59974248D01*
X25595237Y-59926629D02*
X25357142Y-59926629D01*
X25357142Y-59926629D02*
X25357142Y-59426629D01*
X26023809Y-59926629D02*
X25738095Y-59926629D01*
X25880952Y-59926629D02*
X25880952Y-59426629D01*
X25880952Y-59426629D02*
X25833333Y-59498058D01*
X25833333Y-59498058D02*
X25785714Y-59545677D01*
X25785714Y-59545677D02*
X25738095Y-59569486D01*
X35690476Y-33476629D02*
X35690476Y-32976629D01*
X35690476Y-32976629D02*
X35976190Y-33476629D01*
X35976190Y-33476629D02*
X35976190Y-32976629D01*
X36476191Y-33476629D02*
X36190477Y-33476629D01*
X36333334Y-33476629D02*
X36333334Y-32976629D01*
X36333334Y-32976629D02*
X36285715Y-33048058D01*
X36285715Y-33048058D02*
X36238096Y-33095677D01*
X36238096Y-33095677D02*
X36190477Y-33119486D01*
X36952381Y-33476629D02*
X36666667Y-33476629D01*
X36809524Y-33476629D02*
X36809524Y-32976629D01*
X36809524Y-32976629D02*
X36761905Y-33048058D01*
X36761905Y-33048058D02*
X36714286Y-33095677D01*
X36714286Y-33095677D02*
X36666667Y-33119486D01*
X37047619Y-33524248D02*
X37428571Y-33524248D01*
X37880951Y-33524248D02*
X37833332Y-33500439D01*
X37833332Y-33500439D02*
X37785713Y-33452820D01*
X37785713Y-33452820D02*
X37714285Y-33381391D01*
X37714285Y-33381391D02*
X37666666Y-33357581D01*
X37666666Y-33357581D02*
X37619047Y-33357581D01*
X37642856Y-33476629D02*
X37595237Y-33452820D01*
X37595237Y-33452820D02*
X37547618Y-33405200D01*
X37547618Y-33405200D02*
X37523809Y-33309962D01*
X37523809Y-33309962D02*
X37523809Y-33143296D01*
X37523809Y-33143296D02*
X37547618Y-33048058D01*
X37547618Y-33048058D02*
X37595237Y-33000439D01*
X37595237Y-33000439D02*
X37642856Y-32976629D01*
X37642856Y-32976629D02*
X37738094Y-32976629D01*
X37738094Y-32976629D02*
X37785713Y-33000439D01*
X37785713Y-33000439D02*
X37833332Y-33048058D01*
X37833332Y-33048058D02*
X37857142Y-33143296D01*
X37857142Y-33143296D02*
X37857142Y-33309962D01*
X37857142Y-33309962D02*
X37833332Y-33405200D01*
X37833332Y-33405200D02*
X37785713Y-33452820D01*
X37785713Y-33452820D02*
X37738094Y-33476629D01*
X37738094Y-33476629D02*
X37642856Y-33476629D01*
X38333333Y-33476629D02*
X38047619Y-33476629D01*
X38190476Y-33476629D02*
X38190476Y-32976629D01*
X38190476Y-32976629D02*
X38142857Y-33048058D01*
X38142857Y-33048058D02*
X38095238Y-33095677D01*
X38095238Y-33095677D02*
X38047619Y-33119486D01*
X57690476Y-49501629D02*
X57690476Y-49001629D01*
X57690476Y-49001629D02*
X57976190Y-49501629D01*
X57976190Y-49501629D02*
X57976190Y-49001629D01*
X58476191Y-49501629D02*
X58190477Y-49501629D01*
X58333334Y-49501629D02*
X58333334Y-49001629D01*
X58333334Y-49001629D02*
X58285715Y-49073058D01*
X58285715Y-49073058D02*
X58238096Y-49120677D01*
X58238096Y-49120677D02*
X58190477Y-49144486D01*
X58904762Y-49001629D02*
X58809524Y-49001629D01*
X58809524Y-49001629D02*
X58761905Y-49025439D01*
X58761905Y-49025439D02*
X58738095Y-49049248D01*
X58738095Y-49049248D02*
X58690476Y-49120677D01*
X58690476Y-49120677D02*
X58666667Y-49215915D01*
X58666667Y-49215915D02*
X58666667Y-49406391D01*
X58666667Y-49406391D02*
X58690476Y-49454010D01*
X58690476Y-49454010D02*
X58714286Y-49477820D01*
X58714286Y-49477820D02*
X58761905Y-49501629D01*
X58761905Y-49501629D02*
X58857143Y-49501629D01*
X58857143Y-49501629D02*
X58904762Y-49477820D01*
X58904762Y-49477820D02*
X58928571Y-49454010D01*
X58928571Y-49454010D02*
X58952381Y-49406391D01*
X58952381Y-49406391D02*
X58952381Y-49287343D01*
X58952381Y-49287343D02*
X58928571Y-49239724D01*
X58928571Y-49239724D02*
X58904762Y-49215915D01*
X58904762Y-49215915D02*
X58857143Y-49192105D01*
X58857143Y-49192105D02*
X58761905Y-49192105D01*
X58761905Y-49192105D02*
X58714286Y-49215915D01*
X58714286Y-49215915D02*
X58690476Y-49239724D01*
X58690476Y-49239724D02*
X58666667Y-49287343D01*
X59047619Y-49549248D02*
X59428571Y-49549248D01*
X59547618Y-49001629D02*
X59547618Y-49406391D01*
X59547618Y-49406391D02*
X59571428Y-49454010D01*
X59571428Y-49454010D02*
X59595237Y-49477820D01*
X59595237Y-49477820D02*
X59642856Y-49501629D01*
X59642856Y-49501629D02*
X59738094Y-49501629D01*
X59738094Y-49501629D02*
X59785713Y-49477820D01*
X59785713Y-49477820D02*
X59809523Y-49454010D01*
X59809523Y-49454010D02*
X59833332Y-49406391D01*
X59833332Y-49406391D02*
X59833332Y-49001629D01*
X60333333Y-49501629D02*
X60047619Y-49501629D01*
X60190476Y-49501629D02*
X60190476Y-49001629D01*
X60190476Y-49001629D02*
X60142857Y-49073058D01*
X60142857Y-49073058D02*
X60095238Y-49120677D01*
X60095238Y-49120677D02*
X60047619Y-49144486D01*
X35690476Y-45976629D02*
X35690476Y-45476629D01*
X35690476Y-45476629D02*
X35976190Y-45976629D01*
X35976190Y-45976629D02*
X35976190Y-45476629D01*
X36476191Y-45976629D02*
X36190477Y-45976629D01*
X36333334Y-45976629D02*
X36333334Y-45476629D01*
X36333334Y-45476629D02*
X36285715Y-45548058D01*
X36285715Y-45548058D02*
X36238096Y-45595677D01*
X36238096Y-45595677D02*
X36190477Y-45619486D01*
X36928571Y-45476629D02*
X36690476Y-45476629D01*
X36690476Y-45476629D02*
X36666667Y-45714724D01*
X36666667Y-45714724D02*
X36690476Y-45690915D01*
X36690476Y-45690915D02*
X36738095Y-45667105D01*
X36738095Y-45667105D02*
X36857143Y-45667105D01*
X36857143Y-45667105D02*
X36904762Y-45690915D01*
X36904762Y-45690915D02*
X36928571Y-45714724D01*
X36928571Y-45714724D02*
X36952381Y-45762343D01*
X36952381Y-45762343D02*
X36952381Y-45881391D01*
X36952381Y-45881391D02*
X36928571Y-45929010D01*
X36928571Y-45929010D02*
X36904762Y-45952820D01*
X36904762Y-45952820D02*
X36857143Y-45976629D01*
X36857143Y-45976629D02*
X36738095Y-45976629D01*
X36738095Y-45976629D02*
X36690476Y-45952820D01*
X36690476Y-45952820D02*
X36666667Y-45929010D01*
X37047619Y-46024248D02*
X37428571Y-46024248D01*
X37880951Y-46024248D02*
X37833332Y-46000439D01*
X37833332Y-46000439D02*
X37785713Y-45952820D01*
X37785713Y-45952820D02*
X37714285Y-45881391D01*
X37714285Y-45881391D02*
X37666666Y-45857581D01*
X37666666Y-45857581D02*
X37619047Y-45857581D01*
X37642856Y-45976629D02*
X37595237Y-45952820D01*
X37595237Y-45952820D02*
X37547618Y-45905200D01*
X37547618Y-45905200D02*
X37523809Y-45809962D01*
X37523809Y-45809962D02*
X37523809Y-45643296D01*
X37523809Y-45643296D02*
X37547618Y-45548058D01*
X37547618Y-45548058D02*
X37595237Y-45500439D01*
X37595237Y-45500439D02*
X37642856Y-45476629D01*
X37642856Y-45476629D02*
X37738094Y-45476629D01*
X37738094Y-45476629D02*
X37785713Y-45500439D01*
X37785713Y-45500439D02*
X37833332Y-45548058D01*
X37833332Y-45548058D02*
X37857142Y-45643296D01*
X37857142Y-45643296D02*
X37857142Y-45809962D01*
X37857142Y-45809962D02*
X37833332Y-45905200D01*
X37833332Y-45905200D02*
X37785713Y-45952820D01*
X37785713Y-45952820D02*
X37738094Y-45976629D01*
X37738094Y-45976629D02*
X37642856Y-45976629D01*
X38333333Y-45976629D02*
X38047619Y-45976629D01*
X38190476Y-45976629D02*
X38190476Y-45476629D01*
X38190476Y-45476629D02*
X38142857Y-45548058D01*
X38142857Y-45548058D02*
X38095238Y-45595677D01*
X38095238Y-45595677D02*
X38047619Y-45619486D01*
X47690476Y-33476629D02*
X47690476Y-32976629D01*
X47690476Y-32976629D02*
X47976190Y-33476629D01*
X47976190Y-33476629D02*
X47976190Y-32976629D01*
X48476191Y-33476629D02*
X48190477Y-33476629D01*
X48333334Y-33476629D02*
X48333334Y-32976629D01*
X48333334Y-32976629D02*
X48285715Y-33048058D01*
X48285715Y-33048058D02*
X48238096Y-33095677D01*
X48238096Y-33095677D02*
X48190477Y-33119486D01*
X48952381Y-33476629D02*
X48666667Y-33476629D01*
X48809524Y-33476629D02*
X48809524Y-32976629D01*
X48809524Y-32976629D02*
X48761905Y-33048058D01*
X48761905Y-33048058D02*
X48714286Y-33095677D01*
X48714286Y-33095677D02*
X48666667Y-33119486D01*
X49047619Y-33524248D02*
X49428571Y-33524248D01*
X49880951Y-33524248D02*
X49833332Y-33500439D01*
X49833332Y-33500439D02*
X49785713Y-33452820D01*
X49785713Y-33452820D02*
X49714285Y-33381391D01*
X49714285Y-33381391D02*
X49666666Y-33357581D01*
X49666666Y-33357581D02*
X49619047Y-33357581D01*
X49642856Y-33476629D02*
X49595237Y-33452820D01*
X49595237Y-33452820D02*
X49547618Y-33405200D01*
X49547618Y-33405200D02*
X49523809Y-33309962D01*
X49523809Y-33309962D02*
X49523809Y-33143296D01*
X49523809Y-33143296D02*
X49547618Y-33048058D01*
X49547618Y-33048058D02*
X49595237Y-33000439D01*
X49595237Y-33000439D02*
X49642856Y-32976629D01*
X49642856Y-32976629D02*
X49738094Y-32976629D01*
X49738094Y-32976629D02*
X49785713Y-33000439D01*
X49785713Y-33000439D02*
X49833332Y-33048058D01*
X49833332Y-33048058D02*
X49857142Y-33143296D01*
X49857142Y-33143296D02*
X49857142Y-33309962D01*
X49857142Y-33309962D02*
X49833332Y-33405200D01*
X49833332Y-33405200D02*
X49785713Y-33452820D01*
X49785713Y-33452820D02*
X49738094Y-33476629D01*
X49738094Y-33476629D02*
X49642856Y-33476629D01*
X50047619Y-33024248D02*
X50071428Y-33000439D01*
X50071428Y-33000439D02*
X50119047Y-32976629D01*
X50119047Y-32976629D02*
X50238095Y-32976629D01*
X50238095Y-32976629D02*
X50285714Y-33000439D01*
X50285714Y-33000439D02*
X50309523Y-33024248D01*
X50309523Y-33024248D02*
X50333333Y-33071867D01*
X50333333Y-33071867D02*
X50333333Y-33119486D01*
X50333333Y-33119486D02*
X50309523Y-33190915D01*
X50309523Y-33190915D02*
X50023809Y-33476629D01*
X50023809Y-33476629D02*
X50333333Y-33476629D01*
X3928571Y-33476629D02*
X3928571Y-32976629D01*
X3928571Y-32976629D02*
X4214285Y-33476629D01*
X4214285Y-33476629D02*
X4214285Y-32976629D01*
X4476191Y-33476629D02*
X4571429Y-33476629D01*
X4571429Y-33476629D02*
X4619048Y-33452820D01*
X4619048Y-33452820D02*
X4642857Y-33429010D01*
X4642857Y-33429010D02*
X4690476Y-33357581D01*
X4690476Y-33357581D02*
X4714286Y-33262343D01*
X4714286Y-33262343D02*
X4714286Y-33071867D01*
X4714286Y-33071867D02*
X4690476Y-33024248D01*
X4690476Y-33024248D02*
X4666667Y-33000439D01*
X4666667Y-33000439D02*
X4619048Y-32976629D01*
X4619048Y-32976629D02*
X4523810Y-32976629D01*
X4523810Y-32976629D02*
X4476191Y-33000439D01*
X4476191Y-33000439D02*
X4452381Y-33024248D01*
X4452381Y-33024248D02*
X4428572Y-33071867D01*
X4428572Y-33071867D02*
X4428572Y-33190915D01*
X4428572Y-33190915D02*
X4452381Y-33238534D01*
X4452381Y-33238534D02*
X4476191Y-33262343D01*
X4476191Y-33262343D02*
X4523810Y-33286153D01*
X4523810Y-33286153D02*
X4619048Y-33286153D01*
X4619048Y-33286153D02*
X4666667Y-33262343D01*
X4666667Y-33262343D02*
X4690476Y-33238534D01*
X4690476Y-33238534D02*
X4714286Y-33190915D01*
X4809524Y-33524248D02*
X5190476Y-33524248D01*
X5642856Y-33524248D02*
X5595237Y-33500439D01*
X5595237Y-33500439D02*
X5547618Y-33452820D01*
X5547618Y-33452820D02*
X5476190Y-33381391D01*
X5476190Y-33381391D02*
X5428571Y-33357581D01*
X5428571Y-33357581D02*
X5380952Y-33357581D01*
X5404761Y-33476629D02*
X5357142Y-33452820D01*
X5357142Y-33452820D02*
X5309523Y-33405200D01*
X5309523Y-33405200D02*
X5285714Y-33309962D01*
X5285714Y-33309962D02*
X5285714Y-33143296D01*
X5285714Y-33143296D02*
X5309523Y-33048058D01*
X5309523Y-33048058D02*
X5357142Y-33000439D01*
X5357142Y-33000439D02*
X5404761Y-32976629D01*
X5404761Y-32976629D02*
X5499999Y-32976629D01*
X5499999Y-32976629D02*
X5547618Y-33000439D01*
X5547618Y-33000439D02*
X5595237Y-33048058D01*
X5595237Y-33048058D02*
X5619047Y-33143296D01*
X5619047Y-33143296D02*
X5619047Y-33309962D01*
X5619047Y-33309962D02*
X5595237Y-33405200D01*
X5595237Y-33405200D02*
X5547618Y-33452820D01*
X5547618Y-33452820D02*
X5499999Y-33476629D01*
X5499999Y-33476629D02*
X5404761Y-33476629D01*
X6095238Y-33476629D02*
X5809524Y-33476629D01*
X5952381Y-33476629D02*
X5952381Y-32976629D01*
X5952381Y-32976629D02*
X5904762Y-33048058D01*
X5904762Y-33048058D02*
X5857143Y-33095677D01*
X5857143Y-33095677D02*
X5809524Y-33119486D01*
X19690476Y-45976629D02*
X19690476Y-45476629D01*
X19690476Y-45476629D02*
X19976190Y-45976629D01*
X19976190Y-45976629D02*
X19976190Y-45476629D01*
X20476191Y-45976629D02*
X20190477Y-45976629D01*
X20333334Y-45976629D02*
X20333334Y-45476629D01*
X20333334Y-45476629D02*
X20285715Y-45548058D01*
X20285715Y-45548058D02*
X20238096Y-45595677D01*
X20238096Y-45595677D02*
X20190477Y-45619486D01*
X20904762Y-45643296D02*
X20904762Y-45976629D01*
X20785714Y-45452820D02*
X20666667Y-45809962D01*
X20666667Y-45809962D02*
X20976190Y-45809962D01*
X21047619Y-46024248D02*
X21428571Y-46024248D01*
X21880951Y-46024248D02*
X21833332Y-46000439D01*
X21833332Y-46000439D02*
X21785713Y-45952820D01*
X21785713Y-45952820D02*
X21714285Y-45881391D01*
X21714285Y-45881391D02*
X21666666Y-45857581D01*
X21666666Y-45857581D02*
X21619047Y-45857581D01*
X21642856Y-45976629D02*
X21595237Y-45952820D01*
X21595237Y-45952820D02*
X21547618Y-45905200D01*
X21547618Y-45905200D02*
X21523809Y-45809962D01*
X21523809Y-45809962D02*
X21523809Y-45643296D01*
X21523809Y-45643296D02*
X21547618Y-45548058D01*
X21547618Y-45548058D02*
X21595237Y-45500439D01*
X21595237Y-45500439D02*
X21642856Y-45476629D01*
X21642856Y-45476629D02*
X21738094Y-45476629D01*
X21738094Y-45476629D02*
X21785713Y-45500439D01*
X21785713Y-45500439D02*
X21833332Y-45548058D01*
X21833332Y-45548058D02*
X21857142Y-45643296D01*
X21857142Y-45643296D02*
X21857142Y-45809962D01*
X21857142Y-45809962D02*
X21833332Y-45905200D01*
X21833332Y-45905200D02*
X21785713Y-45952820D01*
X21785713Y-45952820D02*
X21738094Y-45976629D01*
X21738094Y-45976629D02*
X21642856Y-45976629D01*
X22333333Y-45976629D02*
X22047619Y-45976629D01*
X22190476Y-45976629D02*
X22190476Y-45476629D01*
X22190476Y-45476629D02*
X22142857Y-45548058D01*
X22142857Y-45548058D02*
X22095238Y-45595677D01*
X22095238Y-45595677D02*
X22047619Y-45619486D01*
X4119048Y-59814724D02*
X4190476Y-59838534D01*
X4190476Y-59838534D02*
X4214286Y-59862343D01*
X4214286Y-59862343D02*
X4238095Y-59909962D01*
X4238095Y-59909962D02*
X4238095Y-59981391D01*
X4238095Y-59981391D02*
X4214286Y-60029010D01*
X4214286Y-60029010D02*
X4190476Y-60052820D01*
X4190476Y-60052820D02*
X4142857Y-60076629D01*
X4142857Y-60076629D02*
X3952381Y-60076629D01*
X3952381Y-60076629D02*
X3952381Y-59576629D01*
X3952381Y-59576629D02*
X4119048Y-59576629D01*
X4119048Y-59576629D02*
X4166667Y-59600439D01*
X4166667Y-59600439D02*
X4190476Y-59624248D01*
X4190476Y-59624248D02*
X4214286Y-59671867D01*
X4214286Y-59671867D02*
X4214286Y-59719486D01*
X4214286Y-59719486D02*
X4190476Y-59767105D01*
X4190476Y-59767105D02*
X4166667Y-59790915D01*
X4166667Y-59790915D02*
X4119048Y-59814724D01*
X4119048Y-59814724D02*
X3952381Y-59814724D01*
X4714286Y-60076629D02*
X4428572Y-60076629D01*
X4571429Y-60076629D02*
X4571429Y-59576629D01*
X4571429Y-59576629D02*
X4523810Y-59648058D01*
X4523810Y-59648058D02*
X4476191Y-59695677D01*
X4476191Y-59695677D02*
X4428572Y-59719486D01*
X4809524Y-60124248D02*
X5190476Y-60124248D01*
X5309523Y-60076629D02*
X5309523Y-59576629D01*
X5309523Y-59576629D02*
X5428571Y-59576629D01*
X5428571Y-59576629D02*
X5499999Y-59600439D01*
X5499999Y-59600439D02*
X5547618Y-59648058D01*
X5547618Y-59648058D02*
X5571428Y-59695677D01*
X5571428Y-59695677D02*
X5595237Y-59790915D01*
X5595237Y-59790915D02*
X5595237Y-59862343D01*
X5595237Y-59862343D02*
X5571428Y-59957581D01*
X5571428Y-59957581D02*
X5547618Y-60005200D01*
X5547618Y-60005200D02*
X5499999Y-60052820D01*
X5499999Y-60052820D02*
X5428571Y-60076629D01*
X5428571Y-60076629D02*
X5309523Y-60076629D01*
X5785714Y-59624248D02*
X5809523Y-59600439D01*
X5809523Y-59600439D02*
X5857142Y-59576629D01*
X5857142Y-59576629D02*
X5976190Y-59576629D01*
X5976190Y-59576629D02*
X6023809Y-59600439D01*
X6023809Y-59600439D02*
X6047618Y-59624248D01*
X6047618Y-59624248D02*
X6071428Y-59671867D01*
X6071428Y-59671867D02*
X6071428Y-59719486D01*
X6071428Y-59719486D02*
X6047618Y-59790915D01*
X6047618Y-59790915D02*
X5761904Y-60076629D01*
X5761904Y-60076629D02*
X6071428Y-60076629D01*
X51690476Y-33476629D02*
X51690476Y-32976629D01*
X51690476Y-32976629D02*
X51976190Y-33476629D01*
X51976190Y-33476629D02*
X51976190Y-32976629D01*
X52476191Y-33476629D02*
X52190477Y-33476629D01*
X52333334Y-33476629D02*
X52333334Y-32976629D01*
X52333334Y-32976629D02*
X52285715Y-33048058D01*
X52285715Y-33048058D02*
X52238096Y-33095677D01*
X52238096Y-33095677D02*
X52190477Y-33119486D01*
X52666667Y-33024248D02*
X52690476Y-33000439D01*
X52690476Y-33000439D02*
X52738095Y-32976629D01*
X52738095Y-32976629D02*
X52857143Y-32976629D01*
X52857143Y-32976629D02*
X52904762Y-33000439D01*
X52904762Y-33000439D02*
X52928571Y-33024248D01*
X52928571Y-33024248D02*
X52952381Y-33071867D01*
X52952381Y-33071867D02*
X52952381Y-33119486D01*
X52952381Y-33119486D02*
X52928571Y-33190915D01*
X52928571Y-33190915D02*
X52642857Y-33476629D01*
X52642857Y-33476629D02*
X52952381Y-33476629D01*
X53047619Y-33524248D02*
X53428571Y-33524248D01*
X53880951Y-33524248D02*
X53833332Y-33500439D01*
X53833332Y-33500439D02*
X53785713Y-33452820D01*
X53785713Y-33452820D02*
X53714285Y-33381391D01*
X53714285Y-33381391D02*
X53666666Y-33357581D01*
X53666666Y-33357581D02*
X53619047Y-33357581D01*
X53642856Y-33476629D02*
X53595237Y-33452820D01*
X53595237Y-33452820D02*
X53547618Y-33405200D01*
X53547618Y-33405200D02*
X53523809Y-33309962D01*
X53523809Y-33309962D02*
X53523809Y-33143296D01*
X53523809Y-33143296D02*
X53547618Y-33048058D01*
X53547618Y-33048058D02*
X53595237Y-33000439D01*
X53595237Y-33000439D02*
X53642856Y-32976629D01*
X53642856Y-32976629D02*
X53738094Y-32976629D01*
X53738094Y-32976629D02*
X53785713Y-33000439D01*
X53785713Y-33000439D02*
X53833332Y-33048058D01*
X53833332Y-33048058D02*
X53857142Y-33143296D01*
X53857142Y-33143296D02*
X53857142Y-33309962D01*
X53857142Y-33309962D02*
X53833332Y-33405200D01*
X53833332Y-33405200D02*
X53785713Y-33452820D01*
X53785713Y-33452820D02*
X53738094Y-33476629D01*
X53738094Y-33476629D02*
X53642856Y-33476629D01*
X54333333Y-33476629D02*
X54047619Y-33476629D01*
X54190476Y-33476629D02*
X54190476Y-32976629D01*
X54190476Y-32976629D02*
X54142857Y-33048058D01*
X54142857Y-33048058D02*
X54095238Y-33095677D01*
X54095238Y-33095677D02*
X54047619Y-33119486D01*
X4119048Y-64314724D02*
X4190476Y-64338534D01*
X4190476Y-64338534D02*
X4214286Y-64362343D01*
X4214286Y-64362343D02*
X4238095Y-64409962D01*
X4238095Y-64409962D02*
X4238095Y-64481391D01*
X4238095Y-64481391D02*
X4214286Y-64529010D01*
X4214286Y-64529010D02*
X4190476Y-64552820D01*
X4190476Y-64552820D02*
X4142857Y-64576629D01*
X4142857Y-64576629D02*
X3952381Y-64576629D01*
X3952381Y-64576629D02*
X3952381Y-64076629D01*
X3952381Y-64076629D02*
X4119048Y-64076629D01*
X4119048Y-64076629D02*
X4166667Y-64100439D01*
X4166667Y-64100439D02*
X4190476Y-64124248D01*
X4190476Y-64124248D02*
X4214286Y-64171867D01*
X4214286Y-64171867D02*
X4214286Y-64219486D01*
X4214286Y-64219486D02*
X4190476Y-64267105D01*
X4190476Y-64267105D02*
X4166667Y-64290915D01*
X4166667Y-64290915D02*
X4119048Y-64314724D01*
X4119048Y-64314724D02*
X3952381Y-64314724D01*
X4476191Y-64576629D02*
X4571429Y-64576629D01*
X4571429Y-64576629D02*
X4619048Y-64552820D01*
X4619048Y-64552820D02*
X4642857Y-64529010D01*
X4642857Y-64529010D02*
X4690476Y-64457581D01*
X4690476Y-64457581D02*
X4714286Y-64362343D01*
X4714286Y-64362343D02*
X4714286Y-64171867D01*
X4714286Y-64171867D02*
X4690476Y-64124248D01*
X4690476Y-64124248D02*
X4666667Y-64100439D01*
X4666667Y-64100439D02*
X4619048Y-64076629D01*
X4619048Y-64076629D02*
X4523810Y-64076629D01*
X4523810Y-64076629D02*
X4476191Y-64100439D01*
X4476191Y-64100439D02*
X4452381Y-64124248D01*
X4452381Y-64124248D02*
X4428572Y-64171867D01*
X4428572Y-64171867D02*
X4428572Y-64290915D01*
X4428572Y-64290915D02*
X4452381Y-64338534D01*
X4452381Y-64338534D02*
X4476191Y-64362343D01*
X4476191Y-64362343D02*
X4523810Y-64386153D01*
X4523810Y-64386153D02*
X4619048Y-64386153D01*
X4619048Y-64386153D02*
X4666667Y-64362343D01*
X4666667Y-64362343D02*
X4690476Y-64338534D01*
X4690476Y-64338534D02*
X4714286Y-64290915D01*
X4809524Y-64624248D02*
X5190476Y-64624248D01*
X5309523Y-64576629D02*
X5309523Y-64076629D01*
X5309523Y-64076629D02*
X5428571Y-64076629D01*
X5428571Y-64076629D02*
X5499999Y-64100439D01*
X5499999Y-64100439D02*
X5547618Y-64148058D01*
X5547618Y-64148058D02*
X5571428Y-64195677D01*
X5571428Y-64195677D02*
X5595237Y-64290915D01*
X5595237Y-64290915D02*
X5595237Y-64362343D01*
X5595237Y-64362343D02*
X5571428Y-64457581D01*
X5571428Y-64457581D02*
X5547618Y-64505200D01*
X5547618Y-64505200D02*
X5499999Y-64552820D01*
X5499999Y-64552820D02*
X5428571Y-64576629D01*
X5428571Y-64576629D02*
X5309523Y-64576629D01*
X5785714Y-64124248D02*
X5809523Y-64100439D01*
X5809523Y-64100439D02*
X5857142Y-64076629D01*
X5857142Y-64076629D02*
X5976190Y-64076629D01*
X5976190Y-64076629D02*
X6023809Y-64100439D01*
X6023809Y-64100439D02*
X6047618Y-64124248D01*
X6047618Y-64124248D02*
X6071428Y-64171867D01*
X6071428Y-64171867D02*
X6071428Y-64219486D01*
X6071428Y-64219486D02*
X6047618Y-64290915D01*
X6047618Y-64290915D02*
X5761904Y-64576629D01*
X5761904Y-64576629D02*
X6071428Y-64576629D01*
X8166667Y-59664724D02*
X8238095Y-59688534D01*
X8238095Y-59688534D02*
X8261905Y-59712343D01*
X8261905Y-59712343D02*
X8285714Y-59759962D01*
X8285714Y-59759962D02*
X8285714Y-59831391D01*
X8285714Y-59831391D02*
X8261905Y-59879010D01*
X8261905Y-59879010D02*
X8238095Y-59902820D01*
X8238095Y-59902820D02*
X8190476Y-59926629D01*
X8190476Y-59926629D02*
X8000000Y-59926629D01*
X8000000Y-59926629D02*
X8000000Y-59426629D01*
X8000000Y-59426629D02*
X8166667Y-59426629D01*
X8166667Y-59426629D02*
X8214286Y-59450439D01*
X8214286Y-59450439D02*
X8238095Y-59474248D01*
X8238095Y-59474248D02*
X8261905Y-59521867D01*
X8261905Y-59521867D02*
X8261905Y-59569486D01*
X8261905Y-59569486D02*
X8238095Y-59617105D01*
X8238095Y-59617105D02*
X8214286Y-59640915D01*
X8214286Y-59640915D02*
X8166667Y-59664724D01*
X8166667Y-59664724D02*
X8000000Y-59664724D01*
X8761905Y-59926629D02*
X8476191Y-59926629D01*
X8619048Y-59926629D02*
X8619048Y-59426629D01*
X8619048Y-59426629D02*
X8571429Y-59498058D01*
X8571429Y-59498058D02*
X8523810Y-59545677D01*
X8523810Y-59545677D02*
X8476191Y-59569486D01*
X8857143Y-59974248D02*
X9238095Y-59974248D01*
X9595237Y-59926629D02*
X9357142Y-59926629D01*
X9357142Y-59926629D02*
X9357142Y-59426629D01*
X10023809Y-59926629D02*
X9738095Y-59926629D01*
X9880952Y-59926629D02*
X9880952Y-59426629D01*
X9880952Y-59426629D02*
X9833333Y-59498058D01*
X9833333Y-59498058D02*
X9785714Y-59545677D01*
X9785714Y-59545677D02*
X9738095Y-59569486D01*
X16166667Y-59664724D02*
X16238095Y-59688534D01*
X16238095Y-59688534D02*
X16261905Y-59712343D01*
X16261905Y-59712343D02*
X16285714Y-59759962D01*
X16285714Y-59759962D02*
X16285714Y-59831391D01*
X16285714Y-59831391D02*
X16261905Y-59879010D01*
X16261905Y-59879010D02*
X16238095Y-59902820D01*
X16238095Y-59902820D02*
X16190476Y-59926629D01*
X16190476Y-59926629D02*
X16000000Y-59926629D01*
X16000000Y-59926629D02*
X16000000Y-59426629D01*
X16000000Y-59426629D02*
X16166667Y-59426629D01*
X16166667Y-59426629D02*
X16214286Y-59450439D01*
X16214286Y-59450439D02*
X16238095Y-59474248D01*
X16238095Y-59474248D02*
X16261905Y-59521867D01*
X16261905Y-59521867D02*
X16261905Y-59569486D01*
X16261905Y-59569486D02*
X16238095Y-59617105D01*
X16238095Y-59617105D02*
X16214286Y-59640915D01*
X16214286Y-59640915D02*
X16166667Y-59664724D01*
X16166667Y-59664724D02*
X16000000Y-59664724D01*
X16476191Y-59474248D02*
X16500000Y-59450439D01*
X16500000Y-59450439D02*
X16547619Y-59426629D01*
X16547619Y-59426629D02*
X16666667Y-59426629D01*
X16666667Y-59426629D02*
X16714286Y-59450439D01*
X16714286Y-59450439D02*
X16738095Y-59474248D01*
X16738095Y-59474248D02*
X16761905Y-59521867D01*
X16761905Y-59521867D02*
X16761905Y-59569486D01*
X16761905Y-59569486D02*
X16738095Y-59640915D01*
X16738095Y-59640915D02*
X16452381Y-59926629D01*
X16452381Y-59926629D02*
X16761905Y-59926629D01*
X16857143Y-59974248D02*
X17238095Y-59974248D01*
X17595237Y-59926629D02*
X17357142Y-59926629D01*
X17357142Y-59926629D02*
X17357142Y-59426629D01*
X18023809Y-59926629D02*
X17738095Y-59926629D01*
X17880952Y-59926629D02*
X17880952Y-59426629D01*
X17880952Y-59426629D02*
X17833333Y-59498058D01*
X17833333Y-59498058D02*
X17785714Y-59545677D01*
X17785714Y-59545677D02*
X17738095Y-59569486D01*
X20119048Y-59814724D02*
X20190476Y-59838534D01*
X20190476Y-59838534D02*
X20214286Y-59862343D01*
X20214286Y-59862343D02*
X20238095Y-59909962D01*
X20238095Y-59909962D02*
X20238095Y-59981391D01*
X20238095Y-59981391D02*
X20214286Y-60029010D01*
X20214286Y-60029010D02*
X20190476Y-60052820D01*
X20190476Y-60052820D02*
X20142857Y-60076629D01*
X20142857Y-60076629D02*
X19952381Y-60076629D01*
X19952381Y-60076629D02*
X19952381Y-59576629D01*
X19952381Y-59576629D02*
X20119048Y-59576629D01*
X20119048Y-59576629D02*
X20166667Y-59600439D01*
X20166667Y-59600439D02*
X20190476Y-59624248D01*
X20190476Y-59624248D02*
X20214286Y-59671867D01*
X20214286Y-59671867D02*
X20214286Y-59719486D01*
X20214286Y-59719486D02*
X20190476Y-59767105D01*
X20190476Y-59767105D02*
X20166667Y-59790915D01*
X20166667Y-59790915D02*
X20119048Y-59814724D01*
X20119048Y-59814724D02*
X19952381Y-59814724D01*
X20404762Y-59576629D02*
X20714286Y-59576629D01*
X20714286Y-59576629D02*
X20547619Y-59767105D01*
X20547619Y-59767105D02*
X20619048Y-59767105D01*
X20619048Y-59767105D02*
X20666667Y-59790915D01*
X20666667Y-59790915D02*
X20690476Y-59814724D01*
X20690476Y-59814724D02*
X20714286Y-59862343D01*
X20714286Y-59862343D02*
X20714286Y-59981391D01*
X20714286Y-59981391D02*
X20690476Y-60029010D01*
X20690476Y-60029010D02*
X20666667Y-60052820D01*
X20666667Y-60052820D02*
X20619048Y-60076629D01*
X20619048Y-60076629D02*
X20476191Y-60076629D01*
X20476191Y-60076629D02*
X20428572Y-60052820D01*
X20428572Y-60052820D02*
X20404762Y-60029010D01*
X20809524Y-60124248D02*
X21190476Y-60124248D01*
X21309523Y-60076629D02*
X21309523Y-59576629D01*
X21309523Y-59576629D02*
X21428571Y-59576629D01*
X21428571Y-59576629D02*
X21499999Y-59600439D01*
X21499999Y-59600439D02*
X21547618Y-59648058D01*
X21547618Y-59648058D02*
X21571428Y-59695677D01*
X21571428Y-59695677D02*
X21595237Y-59790915D01*
X21595237Y-59790915D02*
X21595237Y-59862343D01*
X21595237Y-59862343D02*
X21571428Y-59957581D01*
X21571428Y-59957581D02*
X21547618Y-60005200D01*
X21547618Y-60005200D02*
X21499999Y-60052820D01*
X21499999Y-60052820D02*
X21428571Y-60076629D01*
X21428571Y-60076629D02*
X21309523Y-60076629D01*
X21785714Y-59624248D02*
X21809523Y-59600439D01*
X21809523Y-59600439D02*
X21857142Y-59576629D01*
X21857142Y-59576629D02*
X21976190Y-59576629D01*
X21976190Y-59576629D02*
X22023809Y-59600439D01*
X22023809Y-59600439D02*
X22047618Y-59624248D01*
X22047618Y-59624248D02*
X22071428Y-59671867D01*
X22071428Y-59671867D02*
X22071428Y-59719486D01*
X22071428Y-59719486D02*
X22047618Y-59790915D01*
X22047618Y-59790915D02*
X21761904Y-60076629D01*
X21761904Y-60076629D02*
X22071428Y-60076629D01*
X15928571Y-33476629D02*
X15928571Y-32976629D01*
X15928571Y-32976629D02*
X16214285Y-33476629D01*
X16214285Y-33476629D02*
X16214285Y-32976629D01*
X16476191Y-33476629D02*
X16571429Y-33476629D01*
X16571429Y-33476629D02*
X16619048Y-33452820D01*
X16619048Y-33452820D02*
X16642857Y-33429010D01*
X16642857Y-33429010D02*
X16690476Y-33357581D01*
X16690476Y-33357581D02*
X16714286Y-33262343D01*
X16714286Y-33262343D02*
X16714286Y-33071867D01*
X16714286Y-33071867D02*
X16690476Y-33024248D01*
X16690476Y-33024248D02*
X16666667Y-33000439D01*
X16666667Y-33000439D02*
X16619048Y-32976629D01*
X16619048Y-32976629D02*
X16523810Y-32976629D01*
X16523810Y-32976629D02*
X16476191Y-33000439D01*
X16476191Y-33000439D02*
X16452381Y-33024248D01*
X16452381Y-33024248D02*
X16428572Y-33071867D01*
X16428572Y-33071867D02*
X16428572Y-33190915D01*
X16428572Y-33190915D02*
X16452381Y-33238534D01*
X16452381Y-33238534D02*
X16476191Y-33262343D01*
X16476191Y-33262343D02*
X16523810Y-33286153D01*
X16523810Y-33286153D02*
X16619048Y-33286153D01*
X16619048Y-33286153D02*
X16666667Y-33262343D01*
X16666667Y-33262343D02*
X16690476Y-33238534D01*
X16690476Y-33238534D02*
X16714286Y-33190915D01*
X16809524Y-33524248D02*
X17190476Y-33524248D01*
X17642856Y-33524248D02*
X17595237Y-33500439D01*
X17595237Y-33500439D02*
X17547618Y-33452820D01*
X17547618Y-33452820D02*
X17476190Y-33381391D01*
X17476190Y-33381391D02*
X17428571Y-33357581D01*
X17428571Y-33357581D02*
X17380952Y-33357581D01*
X17404761Y-33476629D02*
X17357142Y-33452820D01*
X17357142Y-33452820D02*
X17309523Y-33405200D01*
X17309523Y-33405200D02*
X17285714Y-33309962D01*
X17285714Y-33309962D02*
X17285714Y-33143296D01*
X17285714Y-33143296D02*
X17309523Y-33048058D01*
X17309523Y-33048058D02*
X17357142Y-33000439D01*
X17357142Y-33000439D02*
X17404761Y-32976629D01*
X17404761Y-32976629D02*
X17499999Y-32976629D01*
X17499999Y-32976629D02*
X17547618Y-33000439D01*
X17547618Y-33000439D02*
X17595237Y-33048058D01*
X17595237Y-33048058D02*
X17619047Y-33143296D01*
X17619047Y-33143296D02*
X17619047Y-33309962D01*
X17619047Y-33309962D02*
X17595237Y-33405200D01*
X17595237Y-33405200D02*
X17547618Y-33452820D01*
X17547618Y-33452820D02*
X17499999Y-33476629D01*
X17499999Y-33476629D02*
X17404761Y-33476629D01*
X17809524Y-33024248D02*
X17833333Y-33000439D01*
X17833333Y-33000439D02*
X17880952Y-32976629D01*
X17880952Y-32976629D02*
X18000000Y-32976629D01*
X18000000Y-32976629D02*
X18047619Y-33000439D01*
X18047619Y-33000439D02*
X18071428Y-33024248D01*
X18071428Y-33024248D02*
X18095238Y-33071867D01*
X18095238Y-33071867D02*
X18095238Y-33119486D01*
X18095238Y-33119486D02*
X18071428Y-33190915D01*
X18071428Y-33190915D02*
X17785714Y-33476629D01*
X17785714Y-33476629D02*
X18095238Y-33476629D01*
X32166667Y-59664724D02*
X32238095Y-59688534D01*
X32238095Y-59688534D02*
X32261905Y-59712343D01*
X32261905Y-59712343D02*
X32285714Y-59759962D01*
X32285714Y-59759962D02*
X32285714Y-59831391D01*
X32285714Y-59831391D02*
X32261905Y-59879010D01*
X32261905Y-59879010D02*
X32238095Y-59902820D01*
X32238095Y-59902820D02*
X32190476Y-59926629D01*
X32190476Y-59926629D02*
X32000000Y-59926629D01*
X32000000Y-59926629D02*
X32000000Y-59426629D01*
X32000000Y-59426629D02*
X32166667Y-59426629D01*
X32166667Y-59426629D02*
X32214286Y-59450439D01*
X32214286Y-59450439D02*
X32238095Y-59474248D01*
X32238095Y-59474248D02*
X32261905Y-59521867D01*
X32261905Y-59521867D02*
X32261905Y-59569486D01*
X32261905Y-59569486D02*
X32238095Y-59617105D01*
X32238095Y-59617105D02*
X32214286Y-59640915D01*
X32214286Y-59640915D02*
X32166667Y-59664724D01*
X32166667Y-59664724D02*
X32000000Y-59664724D01*
X32714286Y-59593296D02*
X32714286Y-59926629D01*
X32595238Y-59402820D02*
X32476191Y-59759962D01*
X32476191Y-59759962D02*
X32785714Y-59759962D01*
X32857143Y-59974248D02*
X33238095Y-59974248D01*
X33595237Y-59926629D02*
X33357142Y-59926629D01*
X33357142Y-59926629D02*
X33357142Y-59426629D01*
X34023809Y-59926629D02*
X33738095Y-59926629D01*
X33880952Y-59926629D02*
X33880952Y-59426629D01*
X33880952Y-59426629D02*
X33833333Y-59498058D01*
X33833333Y-59498058D02*
X33785714Y-59545677D01*
X33785714Y-59545677D02*
X33738095Y-59569486D01*
X36119048Y-59814724D02*
X36190476Y-59838534D01*
X36190476Y-59838534D02*
X36214286Y-59862343D01*
X36214286Y-59862343D02*
X36238095Y-59909962D01*
X36238095Y-59909962D02*
X36238095Y-59981391D01*
X36238095Y-59981391D02*
X36214286Y-60029010D01*
X36214286Y-60029010D02*
X36190476Y-60052820D01*
X36190476Y-60052820D02*
X36142857Y-60076629D01*
X36142857Y-60076629D02*
X35952381Y-60076629D01*
X35952381Y-60076629D02*
X35952381Y-59576629D01*
X35952381Y-59576629D02*
X36119048Y-59576629D01*
X36119048Y-59576629D02*
X36166667Y-59600439D01*
X36166667Y-59600439D02*
X36190476Y-59624248D01*
X36190476Y-59624248D02*
X36214286Y-59671867D01*
X36214286Y-59671867D02*
X36214286Y-59719486D01*
X36214286Y-59719486D02*
X36190476Y-59767105D01*
X36190476Y-59767105D02*
X36166667Y-59790915D01*
X36166667Y-59790915D02*
X36119048Y-59814724D01*
X36119048Y-59814724D02*
X35952381Y-59814724D01*
X36690476Y-59576629D02*
X36452381Y-59576629D01*
X36452381Y-59576629D02*
X36428572Y-59814724D01*
X36428572Y-59814724D02*
X36452381Y-59790915D01*
X36452381Y-59790915D02*
X36500000Y-59767105D01*
X36500000Y-59767105D02*
X36619048Y-59767105D01*
X36619048Y-59767105D02*
X36666667Y-59790915D01*
X36666667Y-59790915D02*
X36690476Y-59814724D01*
X36690476Y-59814724D02*
X36714286Y-59862343D01*
X36714286Y-59862343D02*
X36714286Y-59981391D01*
X36714286Y-59981391D02*
X36690476Y-60029010D01*
X36690476Y-60029010D02*
X36666667Y-60052820D01*
X36666667Y-60052820D02*
X36619048Y-60076629D01*
X36619048Y-60076629D02*
X36500000Y-60076629D01*
X36500000Y-60076629D02*
X36452381Y-60052820D01*
X36452381Y-60052820D02*
X36428572Y-60029010D01*
X36809524Y-60124248D02*
X37190476Y-60124248D01*
X37309523Y-60076629D02*
X37309523Y-59576629D01*
X37309523Y-59576629D02*
X37428571Y-59576629D01*
X37428571Y-59576629D02*
X37499999Y-59600439D01*
X37499999Y-59600439D02*
X37547618Y-59648058D01*
X37547618Y-59648058D02*
X37571428Y-59695677D01*
X37571428Y-59695677D02*
X37595237Y-59790915D01*
X37595237Y-59790915D02*
X37595237Y-59862343D01*
X37595237Y-59862343D02*
X37571428Y-59957581D01*
X37571428Y-59957581D02*
X37547618Y-60005200D01*
X37547618Y-60005200D02*
X37499999Y-60052820D01*
X37499999Y-60052820D02*
X37428571Y-60076629D01*
X37428571Y-60076629D02*
X37309523Y-60076629D01*
X37785714Y-59624248D02*
X37809523Y-59600439D01*
X37809523Y-59600439D02*
X37857142Y-59576629D01*
X37857142Y-59576629D02*
X37976190Y-59576629D01*
X37976190Y-59576629D02*
X38023809Y-59600439D01*
X38023809Y-59600439D02*
X38047618Y-59624248D01*
X38047618Y-59624248D02*
X38071428Y-59671867D01*
X38071428Y-59671867D02*
X38071428Y-59719486D01*
X38071428Y-59719486D02*
X38047618Y-59790915D01*
X38047618Y-59790915D02*
X37761904Y-60076629D01*
X37761904Y-60076629D02*
X38071428Y-60076629D01*
X44119048Y-59814724D02*
X44190476Y-59838534D01*
X44190476Y-59838534D02*
X44214286Y-59862343D01*
X44214286Y-59862343D02*
X44238095Y-59909962D01*
X44238095Y-59909962D02*
X44238095Y-59981391D01*
X44238095Y-59981391D02*
X44214286Y-60029010D01*
X44214286Y-60029010D02*
X44190476Y-60052820D01*
X44190476Y-60052820D02*
X44142857Y-60076629D01*
X44142857Y-60076629D02*
X43952381Y-60076629D01*
X43952381Y-60076629D02*
X43952381Y-59576629D01*
X43952381Y-59576629D02*
X44119048Y-59576629D01*
X44119048Y-59576629D02*
X44166667Y-59600439D01*
X44166667Y-59600439D02*
X44190476Y-59624248D01*
X44190476Y-59624248D02*
X44214286Y-59671867D01*
X44214286Y-59671867D02*
X44214286Y-59719486D01*
X44214286Y-59719486D02*
X44190476Y-59767105D01*
X44190476Y-59767105D02*
X44166667Y-59790915D01*
X44166667Y-59790915D02*
X44119048Y-59814724D01*
X44119048Y-59814724D02*
X43952381Y-59814724D01*
X44666667Y-59576629D02*
X44571429Y-59576629D01*
X44571429Y-59576629D02*
X44523810Y-59600439D01*
X44523810Y-59600439D02*
X44500000Y-59624248D01*
X44500000Y-59624248D02*
X44452381Y-59695677D01*
X44452381Y-59695677D02*
X44428572Y-59790915D01*
X44428572Y-59790915D02*
X44428572Y-59981391D01*
X44428572Y-59981391D02*
X44452381Y-60029010D01*
X44452381Y-60029010D02*
X44476191Y-60052820D01*
X44476191Y-60052820D02*
X44523810Y-60076629D01*
X44523810Y-60076629D02*
X44619048Y-60076629D01*
X44619048Y-60076629D02*
X44666667Y-60052820D01*
X44666667Y-60052820D02*
X44690476Y-60029010D01*
X44690476Y-60029010D02*
X44714286Y-59981391D01*
X44714286Y-59981391D02*
X44714286Y-59862343D01*
X44714286Y-59862343D02*
X44690476Y-59814724D01*
X44690476Y-59814724D02*
X44666667Y-59790915D01*
X44666667Y-59790915D02*
X44619048Y-59767105D01*
X44619048Y-59767105D02*
X44523810Y-59767105D01*
X44523810Y-59767105D02*
X44476191Y-59790915D01*
X44476191Y-59790915D02*
X44452381Y-59814724D01*
X44452381Y-59814724D02*
X44428572Y-59862343D01*
X44809524Y-60124248D02*
X45190476Y-60124248D01*
X45309523Y-60076629D02*
X45309523Y-59576629D01*
X45309523Y-59576629D02*
X45428571Y-59576629D01*
X45428571Y-59576629D02*
X45499999Y-59600439D01*
X45499999Y-59600439D02*
X45547618Y-59648058D01*
X45547618Y-59648058D02*
X45571428Y-59695677D01*
X45571428Y-59695677D02*
X45595237Y-59790915D01*
X45595237Y-59790915D02*
X45595237Y-59862343D01*
X45595237Y-59862343D02*
X45571428Y-59957581D01*
X45571428Y-59957581D02*
X45547618Y-60005200D01*
X45547618Y-60005200D02*
X45499999Y-60052820D01*
X45499999Y-60052820D02*
X45428571Y-60076629D01*
X45428571Y-60076629D02*
X45309523Y-60076629D01*
X45785714Y-59624248D02*
X45809523Y-59600439D01*
X45809523Y-59600439D02*
X45857142Y-59576629D01*
X45857142Y-59576629D02*
X45976190Y-59576629D01*
X45976190Y-59576629D02*
X46023809Y-59600439D01*
X46023809Y-59600439D02*
X46047618Y-59624248D01*
X46047618Y-59624248D02*
X46071428Y-59671867D01*
X46071428Y-59671867D02*
X46071428Y-59719486D01*
X46071428Y-59719486D02*
X46047618Y-59790915D01*
X46047618Y-59790915D02*
X45761904Y-60076629D01*
X45761904Y-60076629D02*
X46071428Y-60076629D01*
X56166667Y-59664724D02*
X56238095Y-59688534D01*
X56238095Y-59688534D02*
X56261905Y-59712343D01*
X56261905Y-59712343D02*
X56285714Y-59759962D01*
X56285714Y-59759962D02*
X56285714Y-59831391D01*
X56285714Y-59831391D02*
X56261905Y-59879010D01*
X56261905Y-59879010D02*
X56238095Y-59902820D01*
X56238095Y-59902820D02*
X56190476Y-59926629D01*
X56190476Y-59926629D02*
X56000000Y-59926629D01*
X56000000Y-59926629D02*
X56000000Y-59426629D01*
X56000000Y-59426629D02*
X56166667Y-59426629D01*
X56166667Y-59426629D02*
X56214286Y-59450439D01*
X56214286Y-59450439D02*
X56238095Y-59474248D01*
X56238095Y-59474248D02*
X56261905Y-59521867D01*
X56261905Y-59521867D02*
X56261905Y-59569486D01*
X56261905Y-59569486D02*
X56238095Y-59617105D01*
X56238095Y-59617105D02*
X56214286Y-59640915D01*
X56214286Y-59640915D02*
X56166667Y-59664724D01*
X56166667Y-59664724D02*
X56000000Y-59664724D01*
X56452381Y-59426629D02*
X56785714Y-59426629D01*
X56785714Y-59426629D02*
X56571429Y-59926629D01*
X56857143Y-59974248D02*
X57238095Y-59974248D01*
X57595237Y-59926629D02*
X57357142Y-59926629D01*
X57357142Y-59926629D02*
X57357142Y-59426629D01*
X58023809Y-59926629D02*
X57738095Y-59926629D01*
X57880952Y-59926629D02*
X57880952Y-59426629D01*
X57880952Y-59426629D02*
X57833333Y-59498058D01*
X57833333Y-59498058D02*
X57785714Y-59545677D01*
X57785714Y-59545677D02*
X57738095Y-59569486D01*
X60119048Y-59814724D02*
X60190476Y-59838534D01*
X60190476Y-59838534D02*
X60214286Y-59862343D01*
X60214286Y-59862343D02*
X60238095Y-59909962D01*
X60238095Y-59909962D02*
X60238095Y-59981391D01*
X60238095Y-59981391D02*
X60214286Y-60029010D01*
X60214286Y-60029010D02*
X60190476Y-60052820D01*
X60190476Y-60052820D02*
X60142857Y-60076629D01*
X60142857Y-60076629D02*
X59952381Y-60076629D01*
X59952381Y-60076629D02*
X59952381Y-59576629D01*
X59952381Y-59576629D02*
X60119048Y-59576629D01*
X60119048Y-59576629D02*
X60166667Y-59600439D01*
X60166667Y-59600439D02*
X60190476Y-59624248D01*
X60190476Y-59624248D02*
X60214286Y-59671867D01*
X60214286Y-59671867D02*
X60214286Y-59719486D01*
X60214286Y-59719486D02*
X60190476Y-59767105D01*
X60190476Y-59767105D02*
X60166667Y-59790915D01*
X60166667Y-59790915D02*
X60119048Y-59814724D01*
X60119048Y-59814724D02*
X59952381Y-59814724D01*
X60523810Y-59790915D02*
X60476191Y-59767105D01*
X60476191Y-59767105D02*
X60452381Y-59743296D01*
X60452381Y-59743296D02*
X60428572Y-59695677D01*
X60428572Y-59695677D02*
X60428572Y-59671867D01*
X60428572Y-59671867D02*
X60452381Y-59624248D01*
X60452381Y-59624248D02*
X60476191Y-59600439D01*
X60476191Y-59600439D02*
X60523810Y-59576629D01*
X60523810Y-59576629D02*
X60619048Y-59576629D01*
X60619048Y-59576629D02*
X60666667Y-59600439D01*
X60666667Y-59600439D02*
X60690476Y-59624248D01*
X60690476Y-59624248D02*
X60714286Y-59671867D01*
X60714286Y-59671867D02*
X60714286Y-59695677D01*
X60714286Y-59695677D02*
X60690476Y-59743296D01*
X60690476Y-59743296D02*
X60666667Y-59767105D01*
X60666667Y-59767105D02*
X60619048Y-59790915D01*
X60619048Y-59790915D02*
X60523810Y-59790915D01*
X60523810Y-59790915D02*
X60476191Y-59814724D01*
X60476191Y-59814724D02*
X60452381Y-59838534D01*
X60452381Y-59838534D02*
X60428572Y-59886153D01*
X60428572Y-59886153D02*
X60428572Y-59981391D01*
X60428572Y-59981391D02*
X60452381Y-60029010D01*
X60452381Y-60029010D02*
X60476191Y-60052820D01*
X60476191Y-60052820D02*
X60523810Y-60076629D01*
X60523810Y-60076629D02*
X60619048Y-60076629D01*
X60619048Y-60076629D02*
X60666667Y-60052820D01*
X60666667Y-60052820D02*
X60690476Y-60029010D01*
X60690476Y-60029010D02*
X60714286Y-59981391D01*
X60714286Y-59981391D02*
X60714286Y-59886153D01*
X60714286Y-59886153D02*
X60690476Y-59838534D01*
X60690476Y-59838534D02*
X60666667Y-59814724D01*
X60666667Y-59814724D02*
X60619048Y-59790915D01*
X60809524Y-60124248D02*
X61190476Y-60124248D01*
X61309523Y-60076629D02*
X61309523Y-59576629D01*
X61309523Y-59576629D02*
X61428571Y-59576629D01*
X61428571Y-59576629D02*
X61499999Y-59600439D01*
X61499999Y-59600439D02*
X61547618Y-59648058D01*
X61547618Y-59648058D02*
X61571428Y-59695677D01*
X61571428Y-59695677D02*
X61595237Y-59790915D01*
X61595237Y-59790915D02*
X61595237Y-59862343D01*
X61595237Y-59862343D02*
X61571428Y-59957581D01*
X61571428Y-59957581D02*
X61547618Y-60005200D01*
X61547618Y-60005200D02*
X61499999Y-60052820D01*
X61499999Y-60052820D02*
X61428571Y-60076629D01*
X61428571Y-60076629D02*
X61309523Y-60076629D01*
X61785714Y-59624248D02*
X61809523Y-59600439D01*
X61809523Y-59600439D02*
X61857142Y-59576629D01*
X61857142Y-59576629D02*
X61976190Y-59576629D01*
X61976190Y-59576629D02*
X62023809Y-59600439D01*
X62023809Y-59600439D02*
X62047618Y-59624248D01*
X62047618Y-59624248D02*
X62071428Y-59671867D01*
X62071428Y-59671867D02*
X62071428Y-59719486D01*
X62071428Y-59719486D02*
X62047618Y-59790915D01*
X62047618Y-59790915D02*
X61761904Y-60076629D01*
X61761904Y-60076629D02*
X62071428Y-60076629D01*
X8166667Y-64164724D02*
X8238095Y-64188534D01*
X8238095Y-64188534D02*
X8261905Y-64212343D01*
X8261905Y-64212343D02*
X8285714Y-64259962D01*
X8285714Y-64259962D02*
X8285714Y-64331391D01*
X8285714Y-64331391D02*
X8261905Y-64379010D01*
X8261905Y-64379010D02*
X8238095Y-64402820D01*
X8238095Y-64402820D02*
X8190476Y-64426629D01*
X8190476Y-64426629D02*
X8000000Y-64426629D01*
X8000000Y-64426629D02*
X8000000Y-63926629D01*
X8000000Y-63926629D02*
X8166667Y-63926629D01*
X8166667Y-63926629D02*
X8214286Y-63950439D01*
X8214286Y-63950439D02*
X8238095Y-63974248D01*
X8238095Y-63974248D02*
X8261905Y-64021867D01*
X8261905Y-64021867D02*
X8261905Y-64069486D01*
X8261905Y-64069486D02*
X8238095Y-64117105D01*
X8238095Y-64117105D02*
X8214286Y-64140915D01*
X8214286Y-64140915D02*
X8166667Y-64164724D01*
X8166667Y-64164724D02*
X8000000Y-64164724D01*
X8523810Y-64426629D02*
X8619048Y-64426629D01*
X8619048Y-64426629D02*
X8666667Y-64402820D01*
X8666667Y-64402820D02*
X8690476Y-64379010D01*
X8690476Y-64379010D02*
X8738095Y-64307581D01*
X8738095Y-64307581D02*
X8761905Y-64212343D01*
X8761905Y-64212343D02*
X8761905Y-64021867D01*
X8761905Y-64021867D02*
X8738095Y-63974248D01*
X8738095Y-63974248D02*
X8714286Y-63950439D01*
X8714286Y-63950439D02*
X8666667Y-63926629D01*
X8666667Y-63926629D02*
X8571429Y-63926629D01*
X8571429Y-63926629D02*
X8523810Y-63950439D01*
X8523810Y-63950439D02*
X8500000Y-63974248D01*
X8500000Y-63974248D02*
X8476191Y-64021867D01*
X8476191Y-64021867D02*
X8476191Y-64140915D01*
X8476191Y-64140915D02*
X8500000Y-64188534D01*
X8500000Y-64188534D02*
X8523810Y-64212343D01*
X8523810Y-64212343D02*
X8571429Y-64236153D01*
X8571429Y-64236153D02*
X8666667Y-64236153D01*
X8666667Y-64236153D02*
X8714286Y-64212343D01*
X8714286Y-64212343D02*
X8738095Y-64188534D01*
X8738095Y-64188534D02*
X8761905Y-64140915D01*
X8857143Y-64474248D02*
X9238095Y-64474248D01*
X9595237Y-64426629D02*
X9357142Y-64426629D01*
X9357142Y-64426629D02*
X9357142Y-63926629D01*
X10023809Y-64426629D02*
X9738095Y-64426629D01*
X9880952Y-64426629D02*
X9880952Y-63926629D01*
X9880952Y-63926629D02*
X9833333Y-63998058D01*
X9833333Y-63998058D02*
X9785714Y-64045677D01*
X9785714Y-64045677D02*
X9738095Y-64069486D01*
X11880953Y-64314724D02*
X11952381Y-64338534D01*
X11952381Y-64338534D02*
X11976191Y-64362343D01*
X11976191Y-64362343D02*
X12000000Y-64409962D01*
X12000000Y-64409962D02*
X12000000Y-64481391D01*
X12000000Y-64481391D02*
X11976191Y-64529010D01*
X11976191Y-64529010D02*
X11952381Y-64552820D01*
X11952381Y-64552820D02*
X11904762Y-64576629D01*
X11904762Y-64576629D02*
X11714286Y-64576629D01*
X11714286Y-64576629D02*
X11714286Y-64076629D01*
X11714286Y-64076629D02*
X11880953Y-64076629D01*
X11880953Y-64076629D02*
X11928572Y-64100439D01*
X11928572Y-64100439D02*
X11952381Y-64124248D01*
X11952381Y-64124248D02*
X11976191Y-64171867D01*
X11976191Y-64171867D02*
X11976191Y-64219486D01*
X11976191Y-64219486D02*
X11952381Y-64267105D01*
X11952381Y-64267105D02*
X11928572Y-64290915D01*
X11928572Y-64290915D02*
X11880953Y-64314724D01*
X11880953Y-64314724D02*
X11714286Y-64314724D01*
X12476191Y-64576629D02*
X12190477Y-64576629D01*
X12333334Y-64576629D02*
X12333334Y-64076629D01*
X12333334Y-64076629D02*
X12285715Y-64148058D01*
X12285715Y-64148058D02*
X12238096Y-64195677D01*
X12238096Y-64195677D02*
X12190477Y-64219486D01*
X12785714Y-64076629D02*
X12833333Y-64076629D01*
X12833333Y-64076629D02*
X12880952Y-64100439D01*
X12880952Y-64100439D02*
X12904762Y-64124248D01*
X12904762Y-64124248D02*
X12928571Y-64171867D01*
X12928571Y-64171867D02*
X12952381Y-64267105D01*
X12952381Y-64267105D02*
X12952381Y-64386153D01*
X12952381Y-64386153D02*
X12928571Y-64481391D01*
X12928571Y-64481391D02*
X12904762Y-64529010D01*
X12904762Y-64529010D02*
X12880952Y-64552820D01*
X12880952Y-64552820D02*
X12833333Y-64576629D01*
X12833333Y-64576629D02*
X12785714Y-64576629D01*
X12785714Y-64576629D02*
X12738095Y-64552820D01*
X12738095Y-64552820D02*
X12714286Y-64529010D01*
X12714286Y-64529010D02*
X12690476Y-64481391D01*
X12690476Y-64481391D02*
X12666667Y-64386153D01*
X12666667Y-64386153D02*
X12666667Y-64267105D01*
X12666667Y-64267105D02*
X12690476Y-64171867D01*
X12690476Y-64171867D02*
X12714286Y-64124248D01*
X12714286Y-64124248D02*
X12738095Y-64100439D01*
X12738095Y-64100439D02*
X12785714Y-64076629D01*
X13047619Y-64624248D02*
X13428571Y-64624248D01*
X13547618Y-64576629D02*
X13547618Y-64076629D01*
X13547618Y-64076629D02*
X13666666Y-64076629D01*
X13666666Y-64076629D02*
X13738094Y-64100439D01*
X13738094Y-64100439D02*
X13785713Y-64148058D01*
X13785713Y-64148058D02*
X13809523Y-64195677D01*
X13809523Y-64195677D02*
X13833332Y-64290915D01*
X13833332Y-64290915D02*
X13833332Y-64362343D01*
X13833332Y-64362343D02*
X13809523Y-64457581D01*
X13809523Y-64457581D02*
X13785713Y-64505200D01*
X13785713Y-64505200D02*
X13738094Y-64552820D01*
X13738094Y-64552820D02*
X13666666Y-64576629D01*
X13666666Y-64576629D02*
X13547618Y-64576629D01*
X14023809Y-64124248D02*
X14047618Y-64100439D01*
X14047618Y-64100439D02*
X14095237Y-64076629D01*
X14095237Y-64076629D02*
X14214285Y-64076629D01*
X14214285Y-64076629D02*
X14261904Y-64100439D01*
X14261904Y-64100439D02*
X14285713Y-64124248D01*
X14285713Y-64124248D02*
X14309523Y-64171867D01*
X14309523Y-64171867D02*
X14309523Y-64219486D01*
X14309523Y-64219486D02*
X14285713Y-64290915D01*
X14285713Y-64290915D02*
X13999999Y-64576629D01*
X13999999Y-64576629D02*
X14309523Y-64576629D01*
X19880953Y-64314724D02*
X19952381Y-64338534D01*
X19952381Y-64338534D02*
X19976191Y-64362343D01*
X19976191Y-64362343D02*
X20000000Y-64409962D01*
X20000000Y-64409962D02*
X20000000Y-64481391D01*
X20000000Y-64481391D02*
X19976191Y-64529010D01*
X19976191Y-64529010D02*
X19952381Y-64552820D01*
X19952381Y-64552820D02*
X19904762Y-64576629D01*
X19904762Y-64576629D02*
X19714286Y-64576629D01*
X19714286Y-64576629D02*
X19714286Y-64076629D01*
X19714286Y-64076629D02*
X19880953Y-64076629D01*
X19880953Y-64076629D02*
X19928572Y-64100439D01*
X19928572Y-64100439D02*
X19952381Y-64124248D01*
X19952381Y-64124248D02*
X19976191Y-64171867D01*
X19976191Y-64171867D02*
X19976191Y-64219486D01*
X19976191Y-64219486D02*
X19952381Y-64267105D01*
X19952381Y-64267105D02*
X19928572Y-64290915D01*
X19928572Y-64290915D02*
X19880953Y-64314724D01*
X19880953Y-64314724D02*
X19714286Y-64314724D01*
X20476191Y-64576629D02*
X20190477Y-64576629D01*
X20333334Y-64576629D02*
X20333334Y-64076629D01*
X20333334Y-64076629D02*
X20285715Y-64148058D01*
X20285715Y-64148058D02*
X20238096Y-64195677D01*
X20238096Y-64195677D02*
X20190477Y-64219486D01*
X20952381Y-64576629D02*
X20666667Y-64576629D01*
X20809524Y-64576629D02*
X20809524Y-64076629D01*
X20809524Y-64076629D02*
X20761905Y-64148058D01*
X20761905Y-64148058D02*
X20714286Y-64195677D01*
X20714286Y-64195677D02*
X20666667Y-64219486D01*
X21047619Y-64624248D02*
X21428571Y-64624248D01*
X21547618Y-64576629D02*
X21547618Y-64076629D01*
X21547618Y-64076629D02*
X21666666Y-64076629D01*
X21666666Y-64076629D02*
X21738094Y-64100439D01*
X21738094Y-64100439D02*
X21785713Y-64148058D01*
X21785713Y-64148058D02*
X21809523Y-64195677D01*
X21809523Y-64195677D02*
X21833332Y-64290915D01*
X21833332Y-64290915D02*
X21833332Y-64362343D01*
X21833332Y-64362343D02*
X21809523Y-64457581D01*
X21809523Y-64457581D02*
X21785713Y-64505200D01*
X21785713Y-64505200D02*
X21738094Y-64552820D01*
X21738094Y-64552820D02*
X21666666Y-64576629D01*
X21666666Y-64576629D02*
X21547618Y-64576629D01*
X22023809Y-64124248D02*
X22047618Y-64100439D01*
X22047618Y-64100439D02*
X22095237Y-64076629D01*
X22095237Y-64076629D02*
X22214285Y-64076629D01*
X22214285Y-64076629D02*
X22261904Y-64100439D01*
X22261904Y-64100439D02*
X22285713Y-64124248D01*
X22285713Y-64124248D02*
X22309523Y-64171867D01*
X22309523Y-64171867D02*
X22309523Y-64219486D01*
X22309523Y-64219486D02*
X22285713Y-64290915D01*
X22285713Y-64290915D02*
X21999999Y-64576629D01*
X21999999Y-64576629D02*
X22309523Y-64576629D01*
X27880953Y-64314724D02*
X27952381Y-64338534D01*
X27952381Y-64338534D02*
X27976191Y-64362343D01*
X27976191Y-64362343D02*
X28000000Y-64409962D01*
X28000000Y-64409962D02*
X28000000Y-64481391D01*
X28000000Y-64481391D02*
X27976191Y-64529010D01*
X27976191Y-64529010D02*
X27952381Y-64552820D01*
X27952381Y-64552820D02*
X27904762Y-64576629D01*
X27904762Y-64576629D02*
X27714286Y-64576629D01*
X27714286Y-64576629D02*
X27714286Y-64076629D01*
X27714286Y-64076629D02*
X27880953Y-64076629D01*
X27880953Y-64076629D02*
X27928572Y-64100439D01*
X27928572Y-64100439D02*
X27952381Y-64124248D01*
X27952381Y-64124248D02*
X27976191Y-64171867D01*
X27976191Y-64171867D02*
X27976191Y-64219486D01*
X27976191Y-64219486D02*
X27952381Y-64267105D01*
X27952381Y-64267105D02*
X27928572Y-64290915D01*
X27928572Y-64290915D02*
X27880953Y-64314724D01*
X27880953Y-64314724D02*
X27714286Y-64314724D01*
X28476191Y-64576629D02*
X28190477Y-64576629D01*
X28333334Y-64576629D02*
X28333334Y-64076629D01*
X28333334Y-64076629D02*
X28285715Y-64148058D01*
X28285715Y-64148058D02*
X28238096Y-64195677D01*
X28238096Y-64195677D02*
X28190477Y-64219486D01*
X28666667Y-64124248D02*
X28690476Y-64100439D01*
X28690476Y-64100439D02*
X28738095Y-64076629D01*
X28738095Y-64076629D02*
X28857143Y-64076629D01*
X28857143Y-64076629D02*
X28904762Y-64100439D01*
X28904762Y-64100439D02*
X28928571Y-64124248D01*
X28928571Y-64124248D02*
X28952381Y-64171867D01*
X28952381Y-64171867D02*
X28952381Y-64219486D01*
X28952381Y-64219486D02*
X28928571Y-64290915D01*
X28928571Y-64290915D02*
X28642857Y-64576629D01*
X28642857Y-64576629D02*
X28952381Y-64576629D01*
X29047619Y-64624248D02*
X29428571Y-64624248D01*
X29547618Y-64576629D02*
X29547618Y-64076629D01*
X29547618Y-64076629D02*
X29666666Y-64076629D01*
X29666666Y-64076629D02*
X29738094Y-64100439D01*
X29738094Y-64100439D02*
X29785713Y-64148058D01*
X29785713Y-64148058D02*
X29809523Y-64195677D01*
X29809523Y-64195677D02*
X29833332Y-64290915D01*
X29833332Y-64290915D02*
X29833332Y-64362343D01*
X29833332Y-64362343D02*
X29809523Y-64457581D01*
X29809523Y-64457581D02*
X29785713Y-64505200D01*
X29785713Y-64505200D02*
X29738094Y-64552820D01*
X29738094Y-64552820D02*
X29666666Y-64576629D01*
X29666666Y-64576629D02*
X29547618Y-64576629D01*
X30023809Y-64124248D02*
X30047618Y-64100439D01*
X30047618Y-64100439D02*
X30095237Y-64076629D01*
X30095237Y-64076629D02*
X30214285Y-64076629D01*
X30214285Y-64076629D02*
X30261904Y-64100439D01*
X30261904Y-64100439D02*
X30285713Y-64124248D01*
X30285713Y-64124248D02*
X30309523Y-64171867D01*
X30309523Y-64171867D02*
X30309523Y-64219486D01*
X30309523Y-64219486D02*
X30285713Y-64290915D01*
X30285713Y-64290915D02*
X29999999Y-64576629D01*
X29999999Y-64576629D02*
X30309523Y-64576629D01*
X55928572Y-64164724D02*
X56000000Y-64188534D01*
X56000000Y-64188534D02*
X56023810Y-64212343D01*
X56023810Y-64212343D02*
X56047619Y-64259962D01*
X56047619Y-64259962D02*
X56047619Y-64331391D01*
X56047619Y-64331391D02*
X56023810Y-64379010D01*
X56023810Y-64379010D02*
X56000000Y-64402820D01*
X56000000Y-64402820D02*
X55952381Y-64426629D01*
X55952381Y-64426629D02*
X55761905Y-64426629D01*
X55761905Y-64426629D02*
X55761905Y-63926629D01*
X55761905Y-63926629D02*
X55928572Y-63926629D01*
X55928572Y-63926629D02*
X55976191Y-63950439D01*
X55976191Y-63950439D02*
X56000000Y-63974248D01*
X56000000Y-63974248D02*
X56023810Y-64021867D01*
X56023810Y-64021867D02*
X56023810Y-64069486D01*
X56023810Y-64069486D02*
X56000000Y-64117105D01*
X56000000Y-64117105D02*
X55976191Y-64140915D01*
X55976191Y-64140915D02*
X55928572Y-64164724D01*
X55928572Y-64164724D02*
X55761905Y-64164724D01*
X56523810Y-64426629D02*
X56238096Y-64426629D01*
X56380953Y-64426629D02*
X56380953Y-63926629D01*
X56380953Y-63926629D02*
X56333334Y-63998058D01*
X56333334Y-63998058D02*
X56285715Y-64045677D01*
X56285715Y-64045677D02*
X56238096Y-64069486D01*
X56976190Y-63926629D02*
X56738095Y-63926629D01*
X56738095Y-63926629D02*
X56714286Y-64164724D01*
X56714286Y-64164724D02*
X56738095Y-64140915D01*
X56738095Y-64140915D02*
X56785714Y-64117105D01*
X56785714Y-64117105D02*
X56904762Y-64117105D01*
X56904762Y-64117105D02*
X56952381Y-64140915D01*
X56952381Y-64140915D02*
X56976190Y-64164724D01*
X56976190Y-64164724D02*
X57000000Y-64212343D01*
X57000000Y-64212343D02*
X57000000Y-64331391D01*
X57000000Y-64331391D02*
X56976190Y-64379010D01*
X56976190Y-64379010D02*
X56952381Y-64402820D01*
X56952381Y-64402820D02*
X56904762Y-64426629D01*
X56904762Y-64426629D02*
X56785714Y-64426629D01*
X56785714Y-64426629D02*
X56738095Y-64402820D01*
X56738095Y-64402820D02*
X56714286Y-64379010D01*
X57095238Y-64474248D02*
X57476190Y-64474248D01*
X57833332Y-64426629D02*
X57595237Y-64426629D01*
X57595237Y-64426629D02*
X57595237Y-63926629D01*
X58261904Y-64426629D02*
X57976190Y-64426629D01*
X58119047Y-64426629D02*
X58119047Y-63926629D01*
X58119047Y-63926629D02*
X58071428Y-63998058D01*
X58071428Y-63998058D02*
X58023809Y-64045677D01*
X58023809Y-64045677D02*
X57976190Y-64069486D01*
X39928572Y-64164724D02*
X40000000Y-64188534D01*
X40000000Y-64188534D02*
X40023810Y-64212343D01*
X40023810Y-64212343D02*
X40047619Y-64259962D01*
X40047619Y-64259962D02*
X40047619Y-64331391D01*
X40047619Y-64331391D02*
X40023810Y-64379010D01*
X40023810Y-64379010D02*
X40000000Y-64402820D01*
X40000000Y-64402820D02*
X39952381Y-64426629D01*
X39952381Y-64426629D02*
X39761905Y-64426629D01*
X39761905Y-64426629D02*
X39761905Y-63926629D01*
X39761905Y-63926629D02*
X39928572Y-63926629D01*
X39928572Y-63926629D02*
X39976191Y-63950439D01*
X39976191Y-63950439D02*
X40000000Y-63974248D01*
X40000000Y-63974248D02*
X40023810Y-64021867D01*
X40023810Y-64021867D02*
X40023810Y-64069486D01*
X40023810Y-64069486D02*
X40000000Y-64117105D01*
X40000000Y-64117105D02*
X39976191Y-64140915D01*
X39976191Y-64140915D02*
X39928572Y-64164724D01*
X39928572Y-64164724D02*
X39761905Y-64164724D01*
X40523810Y-64426629D02*
X40238096Y-64426629D01*
X40380953Y-64426629D02*
X40380953Y-63926629D01*
X40380953Y-63926629D02*
X40333334Y-63998058D01*
X40333334Y-63998058D02*
X40285715Y-64045677D01*
X40285715Y-64045677D02*
X40238096Y-64069486D01*
X40690476Y-63926629D02*
X41000000Y-63926629D01*
X41000000Y-63926629D02*
X40833333Y-64117105D01*
X40833333Y-64117105D02*
X40904762Y-64117105D01*
X40904762Y-64117105D02*
X40952381Y-64140915D01*
X40952381Y-64140915D02*
X40976190Y-64164724D01*
X40976190Y-64164724D02*
X41000000Y-64212343D01*
X41000000Y-64212343D02*
X41000000Y-64331391D01*
X41000000Y-64331391D02*
X40976190Y-64379010D01*
X40976190Y-64379010D02*
X40952381Y-64402820D01*
X40952381Y-64402820D02*
X40904762Y-64426629D01*
X40904762Y-64426629D02*
X40761905Y-64426629D01*
X40761905Y-64426629D02*
X40714286Y-64402820D01*
X40714286Y-64402820D02*
X40690476Y-64379010D01*
X41095238Y-64474248D02*
X41476190Y-64474248D01*
X41833332Y-64426629D02*
X41595237Y-64426629D01*
X41595237Y-64426629D02*
X41595237Y-63926629D01*
X42261904Y-64426629D02*
X41976190Y-64426629D01*
X42119047Y-64426629D02*
X42119047Y-63926629D01*
X42119047Y-63926629D02*
X42071428Y-63998058D01*
X42071428Y-63998058D02*
X42023809Y-64045677D01*
X42023809Y-64045677D02*
X41976190Y-64069486D01*
X47928572Y-64164724D02*
X48000000Y-64188534D01*
X48000000Y-64188534D02*
X48023810Y-64212343D01*
X48023810Y-64212343D02*
X48047619Y-64259962D01*
X48047619Y-64259962D02*
X48047619Y-64331391D01*
X48047619Y-64331391D02*
X48023810Y-64379010D01*
X48023810Y-64379010D02*
X48000000Y-64402820D01*
X48000000Y-64402820D02*
X47952381Y-64426629D01*
X47952381Y-64426629D02*
X47761905Y-64426629D01*
X47761905Y-64426629D02*
X47761905Y-63926629D01*
X47761905Y-63926629D02*
X47928572Y-63926629D01*
X47928572Y-63926629D02*
X47976191Y-63950439D01*
X47976191Y-63950439D02*
X48000000Y-63974248D01*
X48000000Y-63974248D02*
X48023810Y-64021867D01*
X48023810Y-64021867D02*
X48023810Y-64069486D01*
X48023810Y-64069486D02*
X48000000Y-64117105D01*
X48000000Y-64117105D02*
X47976191Y-64140915D01*
X47976191Y-64140915D02*
X47928572Y-64164724D01*
X47928572Y-64164724D02*
X47761905Y-64164724D01*
X48523810Y-64426629D02*
X48238096Y-64426629D01*
X48380953Y-64426629D02*
X48380953Y-63926629D01*
X48380953Y-63926629D02*
X48333334Y-63998058D01*
X48333334Y-63998058D02*
X48285715Y-64045677D01*
X48285715Y-64045677D02*
X48238096Y-64069486D01*
X48952381Y-64093296D02*
X48952381Y-64426629D01*
X48833333Y-63902820D02*
X48714286Y-64259962D01*
X48714286Y-64259962D02*
X49023809Y-64259962D01*
X49095238Y-64474248D02*
X49476190Y-64474248D01*
X49833332Y-64426629D02*
X49595237Y-64426629D01*
X49595237Y-64426629D02*
X49595237Y-63926629D01*
X50261904Y-64426629D02*
X49976190Y-64426629D01*
X50119047Y-64426629D02*
X50119047Y-63926629D01*
X50119047Y-63926629D02*
X50071428Y-63998058D01*
X50071428Y-63998058D02*
X50023809Y-64045677D01*
X50023809Y-64045677D02*
X49976190Y-64069486D01*
X41690476Y-49501629D02*
X41690476Y-49001629D01*
X41690476Y-49001629D02*
X41976190Y-49501629D01*
X41976190Y-49501629D02*
X41976190Y-49001629D01*
X42476191Y-49501629D02*
X42190477Y-49501629D01*
X42333334Y-49501629D02*
X42333334Y-49001629D01*
X42333334Y-49001629D02*
X42285715Y-49073058D01*
X42285715Y-49073058D02*
X42238096Y-49120677D01*
X42238096Y-49120677D02*
X42190477Y-49144486D01*
X42928571Y-49001629D02*
X42690476Y-49001629D01*
X42690476Y-49001629D02*
X42666667Y-49239724D01*
X42666667Y-49239724D02*
X42690476Y-49215915D01*
X42690476Y-49215915D02*
X42738095Y-49192105D01*
X42738095Y-49192105D02*
X42857143Y-49192105D01*
X42857143Y-49192105D02*
X42904762Y-49215915D01*
X42904762Y-49215915D02*
X42928571Y-49239724D01*
X42928571Y-49239724D02*
X42952381Y-49287343D01*
X42952381Y-49287343D02*
X42952381Y-49406391D01*
X42952381Y-49406391D02*
X42928571Y-49454010D01*
X42928571Y-49454010D02*
X42904762Y-49477820D01*
X42904762Y-49477820D02*
X42857143Y-49501629D01*
X42857143Y-49501629D02*
X42738095Y-49501629D01*
X42738095Y-49501629D02*
X42690476Y-49477820D01*
X42690476Y-49477820D02*
X42666667Y-49454010D01*
X43047619Y-49549248D02*
X43428571Y-49549248D01*
X43547618Y-49001629D02*
X43547618Y-49406391D01*
X43547618Y-49406391D02*
X43571428Y-49454010D01*
X43571428Y-49454010D02*
X43595237Y-49477820D01*
X43595237Y-49477820D02*
X43642856Y-49501629D01*
X43642856Y-49501629D02*
X43738094Y-49501629D01*
X43738094Y-49501629D02*
X43785713Y-49477820D01*
X43785713Y-49477820D02*
X43809523Y-49454010D01*
X43809523Y-49454010D02*
X43833332Y-49406391D01*
X43833332Y-49406391D02*
X43833332Y-49001629D01*
X44333333Y-49501629D02*
X44047619Y-49501629D01*
X44190476Y-49501629D02*
X44190476Y-49001629D01*
X44190476Y-49001629D02*
X44142857Y-49073058D01*
X44142857Y-49073058D02*
X44095238Y-49120677D01*
X44095238Y-49120677D02*
X44047619Y-49144486D01*
X51880953Y-64314724D02*
X51952381Y-64338534D01*
X51952381Y-64338534D02*
X51976191Y-64362343D01*
X51976191Y-64362343D02*
X52000000Y-64409962D01*
X52000000Y-64409962D02*
X52000000Y-64481391D01*
X52000000Y-64481391D02*
X51976191Y-64529010D01*
X51976191Y-64529010D02*
X51952381Y-64552820D01*
X51952381Y-64552820D02*
X51904762Y-64576629D01*
X51904762Y-64576629D02*
X51714286Y-64576629D01*
X51714286Y-64576629D02*
X51714286Y-64076629D01*
X51714286Y-64076629D02*
X51880953Y-64076629D01*
X51880953Y-64076629D02*
X51928572Y-64100439D01*
X51928572Y-64100439D02*
X51952381Y-64124248D01*
X51952381Y-64124248D02*
X51976191Y-64171867D01*
X51976191Y-64171867D02*
X51976191Y-64219486D01*
X51976191Y-64219486D02*
X51952381Y-64267105D01*
X51952381Y-64267105D02*
X51928572Y-64290915D01*
X51928572Y-64290915D02*
X51880953Y-64314724D01*
X51880953Y-64314724D02*
X51714286Y-64314724D01*
X52476191Y-64576629D02*
X52190477Y-64576629D01*
X52333334Y-64576629D02*
X52333334Y-64076629D01*
X52333334Y-64076629D02*
X52285715Y-64148058D01*
X52285715Y-64148058D02*
X52238096Y-64195677D01*
X52238096Y-64195677D02*
X52190477Y-64219486D01*
X52928571Y-64076629D02*
X52690476Y-64076629D01*
X52690476Y-64076629D02*
X52666667Y-64314724D01*
X52666667Y-64314724D02*
X52690476Y-64290915D01*
X52690476Y-64290915D02*
X52738095Y-64267105D01*
X52738095Y-64267105D02*
X52857143Y-64267105D01*
X52857143Y-64267105D02*
X52904762Y-64290915D01*
X52904762Y-64290915D02*
X52928571Y-64314724D01*
X52928571Y-64314724D02*
X52952381Y-64362343D01*
X52952381Y-64362343D02*
X52952381Y-64481391D01*
X52952381Y-64481391D02*
X52928571Y-64529010D01*
X52928571Y-64529010D02*
X52904762Y-64552820D01*
X52904762Y-64552820D02*
X52857143Y-64576629D01*
X52857143Y-64576629D02*
X52738095Y-64576629D01*
X52738095Y-64576629D02*
X52690476Y-64552820D01*
X52690476Y-64552820D02*
X52666667Y-64529010D01*
X53047619Y-64624248D02*
X53428571Y-64624248D01*
X53547618Y-64576629D02*
X53547618Y-64076629D01*
X53547618Y-64076629D02*
X53666666Y-64076629D01*
X53666666Y-64076629D02*
X53738094Y-64100439D01*
X53738094Y-64100439D02*
X53785713Y-64148058D01*
X53785713Y-64148058D02*
X53809523Y-64195677D01*
X53809523Y-64195677D02*
X53833332Y-64290915D01*
X53833332Y-64290915D02*
X53833332Y-64362343D01*
X53833332Y-64362343D02*
X53809523Y-64457581D01*
X53809523Y-64457581D02*
X53785713Y-64505200D01*
X53785713Y-64505200D02*
X53738094Y-64552820D01*
X53738094Y-64552820D02*
X53666666Y-64576629D01*
X53666666Y-64576629D02*
X53547618Y-64576629D01*
X54023809Y-64124248D02*
X54047618Y-64100439D01*
X54047618Y-64100439D02*
X54095237Y-64076629D01*
X54095237Y-64076629D02*
X54214285Y-64076629D01*
X54214285Y-64076629D02*
X54261904Y-64100439D01*
X54261904Y-64100439D02*
X54285713Y-64124248D01*
X54285713Y-64124248D02*
X54309523Y-64171867D01*
X54309523Y-64171867D02*
X54309523Y-64219486D01*
X54309523Y-64219486D02*
X54285713Y-64290915D01*
X54285713Y-64290915D02*
X53999999Y-64576629D01*
X53999999Y-64576629D02*
X54309523Y-64576629D01*
X9690476Y-49501629D02*
X9690476Y-49001629D01*
X9690476Y-49001629D02*
X9976190Y-49501629D01*
X9976190Y-49501629D02*
X9976190Y-49001629D01*
X10476191Y-49501629D02*
X10190477Y-49501629D01*
X10333334Y-49501629D02*
X10333334Y-49001629D01*
X10333334Y-49001629D02*
X10285715Y-49073058D01*
X10285715Y-49073058D02*
X10238096Y-49120677D01*
X10238096Y-49120677D02*
X10190477Y-49144486D01*
X10642857Y-49001629D02*
X10952381Y-49001629D01*
X10952381Y-49001629D02*
X10785714Y-49192105D01*
X10785714Y-49192105D02*
X10857143Y-49192105D01*
X10857143Y-49192105D02*
X10904762Y-49215915D01*
X10904762Y-49215915D02*
X10928571Y-49239724D01*
X10928571Y-49239724D02*
X10952381Y-49287343D01*
X10952381Y-49287343D02*
X10952381Y-49406391D01*
X10952381Y-49406391D02*
X10928571Y-49454010D01*
X10928571Y-49454010D02*
X10904762Y-49477820D01*
X10904762Y-49477820D02*
X10857143Y-49501629D01*
X10857143Y-49501629D02*
X10714286Y-49501629D01*
X10714286Y-49501629D02*
X10666667Y-49477820D01*
X10666667Y-49477820D02*
X10642857Y-49454010D01*
X11047619Y-49549248D02*
X11428571Y-49549248D01*
X11547618Y-49001629D02*
X11547618Y-49406391D01*
X11547618Y-49406391D02*
X11571428Y-49454010D01*
X11571428Y-49454010D02*
X11595237Y-49477820D01*
X11595237Y-49477820D02*
X11642856Y-49501629D01*
X11642856Y-49501629D02*
X11738094Y-49501629D01*
X11738094Y-49501629D02*
X11785713Y-49477820D01*
X11785713Y-49477820D02*
X11809523Y-49454010D01*
X11809523Y-49454010D02*
X11833332Y-49406391D01*
X11833332Y-49406391D02*
X11833332Y-49001629D01*
X12333333Y-49501629D02*
X12047619Y-49501629D01*
X12190476Y-49501629D02*
X12190476Y-49001629D01*
X12190476Y-49001629D02*
X12142857Y-49073058D01*
X12142857Y-49073058D02*
X12095238Y-49120677D01*
X12095238Y-49120677D02*
X12047619Y-49144486D01*
X41690476Y-37001629D02*
X41690476Y-36501629D01*
X41690476Y-36501629D02*
X41976190Y-37001629D01*
X41976190Y-37001629D02*
X41976190Y-36501629D01*
X42476191Y-37001629D02*
X42190477Y-37001629D01*
X42333334Y-37001629D02*
X42333334Y-36501629D01*
X42333334Y-36501629D02*
X42285715Y-36573058D01*
X42285715Y-36573058D02*
X42238096Y-36620677D01*
X42238096Y-36620677D02*
X42190477Y-36644486D01*
X42952381Y-37001629D02*
X42666667Y-37001629D01*
X42809524Y-37001629D02*
X42809524Y-36501629D01*
X42809524Y-36501629D02*
X42761905Y-36573058D01*
X42761905Y-36573058D02*
X42714286Y-36620677D01*
X42714286Y-36620677D02*
X42666667Y-36644486D01*
X43047619Y-37049248D02*
X43428571Y-37049248D01*
X43547618Y-36501629D02*
X43547618Y-36906391D01*
X43547618Y-36906391D02*
X43571428Y-36954010D01*
X43571428Y-36954010D02*
X43595237Y-36977820D01*
X43595237Y-36977820D02*
X43642856Y-37001629D01*
X43642856Y-37001629D02*
X43738094Y-37001629D01*
X43738094Y-37001629D02*
X43785713Y-36977820D01*
X43785713Y-36977820D02*
X43809523Y-36954010D01*
X43809523Y-36954010D02*
X43833332Y-36906391D01*
X43833332Y-36906391D02*
X43833332Y-36501629D01*
X44333333Y-37001629D02*
X44047619Y-37001629D01*
X44190476Y-37001629D02*
X44190476Y-36501629D01*
X44190476Y-36501629D02*
X44142857Y-36573058D01*
X44142857Y-36573058D02*
X44095238Y-36620677D01*
X44095238Y-36620677D02*
X44047619Y-36644486D01*
X15928571Y-20976629D02*
X15928571Y-20476629D01*
X15928571Y-20476629D02*
X16214285Y-20976629D01*
X16214285Y-20976629D02*
X16214285Y-20476629D01*
X16690476Y-20476629D02*
X16452381Y-20476629D01*
X16452381Y-20476629D02*
X16428572Y-20714724D01*
X16428572Y-20714724D02*
X16452381Y-20690915D01*
X16452381Y-20690915D02*
X16500000Y-20667105D01*
X16500000Y-20667105D02*
X16619048Y-20667105D01*
X16619048Y-20667105D02*
X16666667Y-20690915D01*
X16666667Y-20690915D02*
X16690476Y-20714724D01*
X16690476Y-20714724D02*
X16714286Y-20762343D01*
X16714286Y-20762343D02*
X16714286Y-20881391D01*
X16714286Y-20881391D02*
X16690476Y-20929010D01*
X16690476Y-20929010D02*
X16666667Y-20952820D01*
X16666667Y-20952820D02*
X16619048Y-20976629D01*
X16619048Y-20976629D02*
X16500000Y-20976629D01*
X16500000Y-20976629D02*
X16452381Y-20952820D01*
X16452381Y-20952820D02*
X16428572Y-20929010D01*
X16809524Y-21024248D02*
X17190476Y-21024248D01*
X17642856Y-21024248D02*
X17595237Y-21000439D01*
X17595237Y-21000439D02*
X17547618Y-20952820D01*
X17547618Y-20952820D02*
X17476190Y-20881391D01*
X17476190Y-20881391D02*
X17428571Y-20857581D01*
X17428571Y-20857581D02*
X17380952Y-20857581D01*
X17404761Y-20976629D02*
X17357142Y-20952820D01*
X17357142Y-20952820D02*
X17309523Y-20905200D01*
X17309523Y-20905200D02*
X17285714Y-20809962D01*
X17285714Y-20809962D02*
X17285714Y-20643296D01*
X17285714Y-20643296D02*
X17309523Y-20548058D01*
X17309523Y-20548058D02*
X17357142Y-20500439D01*
X17357142Y-20500439D02*
X17404761Y-20476629D01*
X17404761Y-20476629D02*
X17499999Y-20476629D01*
X17499999Y-20476629D02*
X17547618Y-20500439D01*
X17547618Y-20500439D02*
X17595237Y-20548058D01*
X17595237Y-20548058D02*
X17619047Y-20643296D01*
X17619047Y-20643296D02*
X17619047Y-20809962D01*
X17619047Y-20809962D02*
X17595237Y-20905200D01*
X17595237Y-20905200D02*
X17547618Y-20952820D01*
X17547618Y-20952820D02*
X17499999Y-20976629D01*
X17499999Y-20976629D02*
X17404761Y-20976629D01*
X17809524Y-20524248D02*
X17833333Y-20500439D01*
X17833333Y-20500439D02*
X17880952Y-20476629D01*
X17880952Y-20476629D02*
X18000000Y-20476629D01*
X18000000Y-20476629D02*
X18047619Y-20500439D01*
X18047619Y-20500439D02*
X18071428Y-20524248D01*
X18071428Y-20524248D02*
X18095238Y-20571867D01*
X18095238Y-20571867D02*
X18095238Y-20619486D01*
X18095238Y-20619486D02*
X18071428Y-20690915D01*
X18071428Y-20690915D02*
X17785714Y-20976629D01*
X17785714Y-20976629D02*
X18095238Y-20976629D01*
X64166667Y-59664724D02*
X64238095Y-59688534D01*
X64238095Y-59688534D02*
X64261905Y-59712343D01*
X64261905Y-59712343D02*
X64285714Y-59759962D01*
X64285714Y-59759962D02*
X64285714Y-59831391D01*
X64285714Y-59831391D02*
X64261905Y-59879010D01*
X64261905Y-59879010D02*
X64238095Y-59902820D01*
X64238095Y-59902820D02*
X64190476Y-59926629D01*
X64190476Y-59926629D02*
X64000000Y-59926629D01*
X64000000Y-59926629D02*
X64000000Y-59426629D01*
X64000000Y-59426629D02*
X64166667Y-59426629D01*
X64166667Y-59426629D02*
X64214286Y-59450439D01*
X64214286Y-59450439D02*
X64238095Y-59474248D01*
X64238095Y-59474248D02*
X64261905Y-59521867D01*
X64261905Y-59521867D02*
X64261905Y-59569486D01*
X64261905Y-59569486D02*
X64238095Y-59617105D01*
X64238095Y-59617105D02*
X64214286Y-59640915D01*
X64214286Y-59640915D02*
X64166667Y-59664724D01*
X64166667Y-59664724D02*
X64000000Y-59664724D01*
X64571429Y-59640915D02*
X64523810Y-59617105D01*
X64523810Y-59617105D02*
X64500000Y-59593296D01*
X64500000Y-59593296D02*
X64476191Y-59545677D01*
X64476191Y-59545677D02*
X64476191Y-59521867D01*
X64476191Y-59521867D02*
X64500000Y-59474248D01*
X64500000Y-59474248D02*
X64523810Y-59450439D01*
X64523810Y-59450439D02*
X64571429Y-59426629D01*
X64571429Y-59426629D02*
X64666667Y-59426629D01*
X64666667Y-59426629D02*
X64714286Y-59450439D01*
X64714286Y-59450439D02*
X64738095Y-59474248D01*
X64738095Y-59474248D02*
X64761905Y-59521867D01*
X64761905Y-59521867D02*
X64761905Y-59545677D01*
X64761905Y-59545677D02*
X64738095Y-59593296D01*
X64738095Y-59593296D02*
X64714286Y-59617105D01*
X64714286Y-59617105D02*
X64666667Y-59640915D01*
X64666667Y-59640915D02*
X64571429Y-59640915D01*
X64571429Y-59640915D02*
X64523810Y-59664724D01*
X64523810Y-59664724D02*
X64500000Y-59688534D01*
X64500000Y-59688534D02*
X64476191Y-59736153D01*
X64476191Y-59736153D02*
X64476191Y-59831391D01*
X64476191Y-59831391D02*
X64500000Y-59879010D01*
X64500000Y-59879010D02*
X64523810Y-59902820D01*
X64523810Y-59902820D02*
X64571429Y-59926629D01*
X64571429Y-59926629D02*
X64666667Y-59926629D01*
X64666667Y-59926629D02*
X64714286Y-59902820D01*
X64714286Y-59902820D02*
X64738095Y-59879010D01*
X64738095Y-59879010D02*
X64761905Y-59831391D01*
X64761905Y-59831391D02*
X64761905Y-59736153D01*
X64761905Y-59736153D02*
X64738095Y-59688534D01*
X64738095Y-59688534D02*
X64714286Y-59664724D01*
X64714286Y-59664724D02*
X64666667Y-59640915D01*
X64857143Y-59974248D02*
X65238095Y-59974248D01*
X65595237Y-59926629D02*
X65357142Y-59926629D01*
X65357142Y-59926629D02*
X65357142Y-59426629D01*
X66023809Y-59926629D02*
X65738095Y-59926629D01*
X65880952Y-59926629D02*
X65880952Y-59426629D01*
X65880952Y-59426629D02*
X65833333Y-59498058D01*
X65833333Y-59498058D02*
X65785714Y-59545677D01*
X65785714Y-59545677D02*
X65738095Y-59569486D01*
X15928572Y-64164724D02*
X16000000Y-64188534D01*
X16000000Y-64188534D02*
X16023810Y-64212343D01*
X16023810Y-64212343D02*
X16047619Y-64259962D01*
X16047619Y-64259962D02*
X16047619Y-64331391D01*
X16047619Y-64331391D02*
X16023810Y-64379010D01*
X16023810Y-64379010D02*
X16000000Y-64402820D01*
X16000000Y-64402820D02*
X15952381Y-64426629D01*
X15952381Y-64426629D02*
X15761905Y-64426629D01*
X15761905Y-64426629D02*
X15761905Y-63926629D01*
X15761905Y-63926629D02*
X15928572Y-63926629D01*
X15928572Y-63926629D02*
X15976191Y-63950439D01*
X15976191Y-63950439D02*
X16000000Y-63974248D01*
X16000000Y-63974248D02*
X16023810Y-64021867D01*
X16023810Y-64021867D02*
X16023810Y-64069486D01*
X16023810Y-64069486D02*
X16000000Y-64117105D01*
X16000000Y-64117105D02*
X15976191Y-64140915D01*
X15976191Y-64140915D02*
X15928572Y-64164724D01*
X15928572Y-64164724D02*
X15761905Y-64164724D01*
X16523810Y-64426629D02*
X16238096Y-64426629D01*
X16380953Y-64426629D02*
X16380953Y-63926629D01*
X16380953Y-63926629D02*
X16333334Y-63998058D01*
X16333334Y-63998058D02*
X16285715Y-64045677D01*
X16285715Y-64045677D02*
X16238096Y-64069486D01*
X16833333Y-63926629D02*
X16880952Y-63926629D01*
X16880952Y-63926629D02*
X16928571Y-63950439D01*
X16928571Y-63950439D02*
X16952381Y-63974248D01*
X16952381Y-63974248D02*
X16976190Y-64021867D01*
X16976190Y-64021867D02*
X17000000Y-64117105D01*
X17000000Y-64117105D02*
X17000000Y-64236153D01*
X17000000Y-64236153D02*
X16976190Y-64331391D01*
X16976190Y-64331391D02*
X16952381Y-64379010D01*
X16952381Y-64379010D02*
X16928571Y-64402820D01*
X16928571Y-64402820D02*
X16880952Y-64426629D01*
X16880952Y-64426629D02*
X16833333Y-64426629D01*
X16833333Y-64426629D02*
X16785714Y-64402820D01*
X16785714Y-64402820D02*
X16761905Y-64379010D01*
X16761905Y-64379010D02*
X16738095Y-64331391D01*
X16738095Y-64331391D02*
X16714286Y-64236153D01*
X16714286Y-64236153D02*
X16714286Y-64117105D01*
X16714286Y-64117105D02*
X16738095Y-64021867D01*
X16738095Y-64021867D02*
X16761905Y-63974248D01*
X16761905Y-63974248D02*
X16785714Y-63950439D01*
X16785714Y-63950439D02*
X16833333Y-63926629D01*
X17095238Y-64474248D02*
X17476190Y-64474248D01*
X17833332Y-64426629D02*
X17595237Y-64426629D01*
X17595237Y-64426629D02*
X17595237Y-63926629D01*
X18261904Y-64426629D02*
X17976190Y-64426629D01*
X18119047Y-64426629D02*
X18119047Y-63926629D01*
X18119047Y-63926629D02*
X18071428Y-63998058D01*
X18071428Y-63998058D02*
X18023809Y-64045677D01*
X18023809Y-64045677D02*
X17976190Y-64069486D01*
X31928571Y-8476629D02*
X31928571Y-7976629D01*
X31928571Y-7976629D02*
X32214285Y-8476629D01*
X32214285Y-8476629D02*
X32214285Y-7976629D01*
X32428572Y-8024248D02*
X32452381Y-8000439D01*
X32452381Y-8000439D02*
X32500000Y-7976629D01*
X32500000Y-7976629D02*
X32619048Y-7976629D01*
X32619048Y-7976629D02*
X32666667Y-8000439D01*
X32666667Y-8000439D02*
X32690476Y-8024248D01*
X32690476Y-8024248D02*
X32714286Y-8071867D01*
X32714286Y-8071867D02*
X32714286Y-8119486D01*
X32714286Y-8119486D02*
X32690476Y-8190915D01*
X32690476Y-8190915D02*
X32404762Y-8476629D01*
X32404762Y-8476629D02*
X32714286Y-8476629D01*
X32809524Y-8524248D02*
X33190476Y-8524248D01*
X33642856Y-8524248D02*
X33595237Y-8500439D01*
X33595237Y-8500439D02*
X33547618Y-8452820D01*
X33547618Y-8452820D02*
X33476190Y-8381391D01*
X33476190Y-8381391D02*
X33428571Y-8357581D01*
X33428571Y-8357581D02*
X33380952Y-8357581D01*
X33404761Y-8476629D02*
X33357142Y-8452820D01*
X33357142Y-8452820D02*
X33309523Y-8405200D01*
X33309523Y-8405200D02*
X33285714Y-8309962D01*
X33285714Y-8309962D02*
X33285714Y-8143296D01*
X33285714Y-8143296D02*
X33309523Y-8048058D01*
X33309523Y-8048058D02*
X33357142Y-8000439D01*
X33357142Y-8000439D02*
X33404761Y-7976629D01*
X33404761Y-7976629D02*
X33499999Y-7976629D01*
X33499999Y-7976629D02*
X33547618Y-8000439D01*
X33547618Y-8000439D02*
X33595237Y-8048058D01*
X33595237Y-8048058D02*
X33619047Y-8143296D01*
X33619047Y-8143296D02*
X33619047Y-8309962D01*
X33619047Y-8309962D02*
X33595237Y-8405200D01*
X33595237Y-8405200D02*
X33547618Y-8452820D01*
X33547618Y-8452820D02*
X33499999Y-8476629D01*
X33499999Y-8476629D02*
X33404761Y-8476629D01*
X33809524Y-8024248D02*
X33833333Y-8000439D01*
X33833333Y-8000439D02*
X33880952Y-7976629D01*
X33880952Y-7976629D02*
X34000000Y-7976629D01*
X34000000Y-7976629D02*
X34047619Y-8000439D01*
X34047619Y-8000439D02*
X34071428Y-8024248D01*
X34071428Y-8024248D02*
X34095238Y-8071867D01*
X34095238Y-8071867D02*
X34095238Y-8119486D01*
X34095238Y-8119486D02*
X34071428Y-8190915D01*
X34071428Y-8190915D02*
X33785714Y-8476629D01*
X33785714Y-8476629D02*
X34095238Y-8476629D01*
X12119048Y-59814724D02*
X12190476Y-59838534D01*
X12190476Y-59838534D02*
X12214286Y-59862343D01*
X12214286Y-59862343D02*
X12238095Y-59909962D01*
X12238095Y-59909962D02*
X12238095Y-59981391D01*
X12238095Y-59981391D02*
X12214286Y-60029010D01*
X12214286Y-60029010D02*
X12190476Y-60052820D01*
X12190476Y-60052820D02*
X12142857Y-60076629D01*
X12142857Y-60076629D02*
X11952381Y-60076629D01*
X11952381Y-60076629D02*
X11952381Y-59576629D01*
X11952381Y-59576629D02*
X12119048Y-59576629D01*
X12119048Y-59576629D02*
X12166667Y-59600439D01*
X12166667Y-59600439D02*
X12190476Y-59624248D01*
X12190476Y-59624248D02*
X12214286Y-59671867D01*
X12214286Y-59671867D02*
X12214286Y-59719486D01*
X12214286Y-59719486D02*
X12190476Y-59767105D01*
X12190476Y-59767105D02*
X12166667Y-59790915D01*
X12166667Y-59790915D02*
X12119048Y-59814724D01*
X12119048Y-59814724D02*
X11952381Y-59814724D01*
X12428572Y-59624248D02*
X12452381Y-59600439D01*
X12452381Y-59600439D02*
X12500000Y-59576629D01*
X12500000Y-59576629D02*
X12619048Y-59576629D01*
X12619048Y-59576629D02*
X12666667Y-59600439D01*
X12666667Y-59600439D02*
X12690476Y-59624248D01*
X12690476Y-59624248D02*
X12714286Y-59671867D01*
X12714286Y-59671867D02*
X12714286Y-59719486D01*
X12714286Y-59719486D02*
X12690476Y-59790915D01*
X12690476Y-59790915D02*
X12404762Y-60076629D01*
X12404762Y-60076629D02*
X12714286Y-60076629D01*
X12809524Y-60124248D02*
X13190476Y-60124248D01*
X13309523Y-60076629D02*
X13309523Y-59576629D01*
X13309523Y-59576629D02*
X13428571Y-59576629D01*
X13428571Y-59576629D02*
X13499999Y-59600439D01*
X13499999Y-59600439D02*
X13547618Y-59648058D01*
X13547618Y-59648058D02*
X13571428Y-59695677D01*
X13571428Y-59695677D02*
X13595237Y-59790915D01*
X13595237Y-59790915D02*
X13595237Y-59862343D01*
X13595237Y-59862343D02*
X13571428Y-59957581D01*
X13571428Y-59957581D02*
X13547618Y-60005200D01*
X13547618Y-60005200D02*
X13499999Y-60052820D01*
X13499999Y-60052820D02*
X13428571Y-60076629D01*
X13428571Y-60076629D02*
X13309523Y-60076629D01*
X13785714Y-59624248D02*
X13809523Y-59600439D01*
X13809523Y-59600439D02*
X13857142Y-59576629D01*
X13857142Y-59576629D02*
X13976190Y-59576629D01*
X13976190Y-59576629D02*
X14023809Y-59600439D01*
X14023809Y-59600439D02*
X14047618Y-59624248D01*
X14047618Y-59624248D02*
X14071428Y-59671867D01*
X14071428Y-59671867D02*
X14071428Y-59719486D01*
X14071428Y-59719486D02*
X14047618Y-59790915D01*
X14047618Y-59790915D02*
X13761904Y-60076629D01*
X13761904Y-60076629D02*
X14071428Y-60076629D01*
X35928571Y-20976629D02*
X35928571Y-20476629D01*
X35928571Y-20476629D02*
X36214285Y-20976629D01*
X36214285Y-20976629D02*
X36214285Y-20476629D01*
X36404762Y-20476629D02*
X36738095Y-20476629D01*
X36738095Y-20476629D02*
X36523810Y-20976629D01*
X36809524Y-21024248D02*
X37190476Y-21024248D01*
X37642856Y-21024248D02*
X37595237Y-21000439D01*
X37595237Y-21000439D02*
X37547618Y-20952820D01*
X37547618Y-20952820D02*
X37476190Y-20881391D01*
X37476190Y-20881391D02*
X37428571Y-20857581D01*
X37428571Y-20857581D02*
X37380952Y-20857581D01*
X37404761Y-20976629D02*
X37357142Y-20952820D01*
X37357142Y-20952820D02*
X37309523Y-20905200D01*
X37309523Y-20905200D02*
X37285714Y-20809962D01*
X37285714Y-20809962D02*
X37285714Y-20643296D01*
X37285714Y-20643296D02*
X37309523Y-20548058D01*
X37309523Y-20548058D02*
X37357142Y-20500439D01*
X37357142Y-20500439D02*
X37404761Y-20476629D01*
X37404761Y-20476629D02*
X37499999Y-20476629D01*
X37499999Y-20476629D02*
X37547618Y-20500439D01*
X37547618Y-20500439D02*
X37595237Y-20548058D01*
X37595237Y-20548058D02*
X37619047Y-20643296D01*
X37619047Y-20643296D02*
X37619047Y-20809962D01*
X37619047Y-20809962D02*
X37595237Y-20905200D01*
X37595237Y-20905200D02*
X37547618Y-20952820D01*
X37547618Y-20952820D02*
X37499999Y-20976629D01*
X37499999Y-20976629D02*
X37404761Y-20976629D01*
X38095238Y-20976629D02*
X37809524Y-20976629D01*
X37952381Y-20976629D02*
X37952381Y-20476629D01*
X37952381Y-20476629D02*
X37904762Y-20548058D01*
X37904762Y-20548058D02*
X37857143Y-20595677D01*
X37857143Y-20595677D02*
X37809524Y-20619486D01*
X47690476Y-45976629D02*
X47690476Y-45476629D01*
X47690476Y-45476629D02*
X47976190Y-45976629D01*
X47976190Y-45976629D02*
X47976190Y-45476629D01*
X48476191Y-45976629D02*
X48190477Y-45976629D01*
X48333334Y-45976629D02*
X48333334Y-45476629D01*
X48333334Y-45476629D02*
X48285715Y-45548058D01*
X48285715Y-45548058D02*
X48238096Y-45595677D01*
X48238096Y-45595677D02*
X48190477Y-45619486D01*
X48928571Y-45476629D02*
X48690476Y-45476629D01*
X48690476Y-45476629D02*
X48666667Y-45714724D01*
X48666667Y-45714724D02*
X48690476Y-45690915D01*
X48690476Y-45690915D02*
X48738095Y-45667105D01*
X48738095Y-45667105D02*
X48857143Y-45667105D01*
X48857143Y-45667105D02*
X48904762Y-45690915D01*
X48904762Y-45690915D02*
X48928571Y-45714724D01*
X48928571Y-45714724D02*
X48952381Y-45762343D01*
X48952381Y-45762343D02*
X48952381Y-45881391D01*
X48952381Y-45881391D02*
X48928571Y-45929010D01*
X48928571Y-45929010D02*
X48904762Y-45952820D01*
X48904762Y-45952820D02*
X48857143Y-45976629D01*
X48857143Y-45976629D02*
X48738095Y-45976629D01*
X48738095Y-45976629D02*
X48690476Y-45952820D01*
X48690476Y-45952820D02*
X48666667Y-45929010D01*
X49047619Y-46024248D02*
X49428571Y-46024248D01*
X49880951Y-46024248D02*
X49833332Y-46000439D01*
X49833332Y-46000439D02*
X49785713Y-45952820D01*
X49785713Y-45952820D02*
X49714285Y-45881391D01*
X49714285Y-45881391D02*
X49666666Y-45857581D01*
X49666666Y-45857581D02*
X49619047Y-45857581D01*
X49642856Y-45976629D02*
X49595237Y-45952820D01*
X49595237Y-45952820D02*
X49547618Y-45905200D01*
X49547618Y-45905200D02*
X49523809Y-45809962D01*
X49523809Y-45809962D02*
X49523809Y-45643296D01*
X49523809Y-45643296D02*
X49547618Y-45548058D01*
X49547618Y-45548058D02*
X49595237Y-45500439D01*
X49595237Y-45500439D02*
X49642856Y-45476629D01*
X49642856Y-45476629D02*
X49738094Y-45476629D01*
X49738094Y-45476629D02*
X49785713Y-45500439D01*
X49785713Y-45500439D02*
X49833332Y-45548058D01*
X49833332Y-45548058D02*
X49857142Y-45643296D01*
X49857142Y-45643296D02*
X49857142Y-45809962D01*
X49857142Y-45809962D02*
X49833332Y-45905200D01*
X49833332Y-45905200D02*
X49785713Y-45952820D01*
X49785713Y-45952820D02*
X49738094Y-45976629D01*
X49738094Y-45976629D02*
X49642856Y-45976629D01*
X50047619Y-45524248D02*
X50071428Y-45500439D01*
X50071428Y-45500439D02*
X50119047Y-45476629D01*
X50119047Y-45476629D02*
X50238095Y-45476629D01*
X50238095Y-45476629D02*
X50285714Y-45500439D01*
X50285714Y-45500439D02*
X50309523Y-45524248D01*
X50309523Y-45524248D02*
X50333333Y-45571867D01*
X50333333Y-45571867D02*
X50333333Y-45619486D01*
X50333333Y-45619486D02*
X50309523Y-45690915D01*
X50309523Y-45690915D02*
X50023809Y-45976629D01*
X50023809Y-45976629D02*
X50333333Y-45976629D01*
X63690476Y-45976629D02*
X63690476Y-45476629D01*
X63690476Y-45476629D02*
X63976190Y-45976629D01*
X63976190Y-45976629D02*
X63976190Y-45476629D01*
X64476191Y-45976629D02*
X64190477Y-45976629D01*
X64333334Y-45976629D02*
X64333334Y-45476629D01*
X64333334Y-45476629D02*
X64285715Y-45548058D01*
X64285715Y-45548058D02*
X64238096Y-45595677D01*
X64238096Y-45595677D02*
X64190477Y-45619486D01*
X64904762Y-45476629D02*
X64809524Y-45476629D01*
X64809524Y-45476629D02*
X64761905Y-45500439D01*
X64761905Y-45500439D02*
X64738095Y-45524248D01*
X64738095Y-45524248D02*
X64690476Y-45595677D01*
X64690476Y-45595677D02*
X64666667Y-45690915D01*
X64666667Y-45690915D02*
X64666667Y-45881391D01*
X64666667Y-45881391D02*
X64690476Y-45929010D01*
X64690476Y-45929010D02*
X64714286Y-45952820D01*
X64714286Y-45952820D02*
X64761905Y-45976629D01*
X64761905Y-45976629D02*
X64857143Y-45976629D01*
X64857143Y-45976629D02*
X64904762Y-45952820D01*
X64904762Y-45952820D02*
X64928571Y-45929010D01*
X64928571Y-45929010D02*
X64952381Y-45881391D01*
X64952381Y-45881391D02*
X64952381Y-45762343D01*
X64952381Y-45762343D02*
X64928571Y-45714724D01*
X64928571Y-45714724D02*
X64904762Y-45690915D01*
X64904762Y-45690915D02*
X64857143Y-45667105D01*
X64857143Y-45667105D02*
X64761905Y-45667105D01*
X64761905Y-45667105D02*
X64714286Y-45690915D01*
X64714286Y-45690915D02*
X64690476Y-45714724D01*
X64690476Y-45714724D02*
X64666667Y-45762343D01*
X65047619Y-46024248D02*
X65428571Y-46024248D01*
X65880951Y-46024248D02*
X65833332Y-46000439D01*
X65833332Y-46000439D02*
X65785713Y-45952820D01*
X65785713Y-45952820D02*
X65714285Y-45881391D01*
X65714285Y-45881391D02*
X65666666Y-45857581D01*
X65666666Y-45857581D02*
X65619047Y-45857581D01*
X65642856Y-45976629D02*
X65595237Y-45952820D01*
X65595237Y-45952820D02*
X65547618Y-45905200D01*
X65547618Y-45905200D02*
X65523809Y-45809962D01*
X65523809Y-45809962D02*
X65523809Y-45643296D01*
X65523809Y-45643296D02*
X65547618Y-45548058D01*
X65547618Y-45548058D02*
X65595237Y-45500439D01*
X65595237Y-45500439D02*
X65642856Y-45476629D01*
X65642856Y-45476629D02*
X65738094Y-45476629D01*
X65738094Y-45476629D02*
X65785713Y-45500439D01*
X65785713Y-45500439D02*
X65833332Y-45548058D01*
X65833332Y-45548058D02*
X65857142Y-45643296D01*
X65857142Y-45643296D02*
X65857142Y-45809962D01*
X65857142Y-45809962D02*
X65833332Y-45905200D01*
X65833332Y-45905200D02*
X65785713Y-45952820D01*
X65785713Y-45952820D02*
X65738094Y-45976629D01*
X65738094Y-45976629D02*
X65642856Y-45976629D01*
X66047619Y-45524248D02*
X66071428Y-45500439D01*
X66071428Y-45500439D02*
X66119047Y-45476629D01*
X66119047Y-45476629D02*
X66238095Y-45476629D01*
X66238095Y-45476629D02*
X66285714Y-45500439D01*
X66285714Y-45500439D02*
X66309523Y-45524248D01*
X66309523Y-45524248D02*
X66333333Y-45571867D01*
X66333333Y-45571867D02*
X66333333Y-45619486D01*
X66333333Y-45619486D02*
X66309523Y-45690915D01*
X66309523Y-45690915D02*
X66023809Y-45976629D01*
X66023809Y-45976629D02*
X66333333Y-45976629D01*
X51928571Y-8476629D02*
X51928571Y-7976629D01*
X51928571Y-7976629D02*
X52214285Y-8476629D01*
X52214285Y-8476629D02*
X52214285Y-7976629D01*
X52666667Y-8143296D02*
X52666667Y-8476629D01*
X52547619Y-7952820D02*
X52428572Y-8309962D01*
X52428572Y-8309962D02*
X52738095Y-8309962D01*
X52809524Y-8524248D02*
X53190476Y-8524248D01*
X53642856Y-8524248D02*
X53595237Y-8500439D01*
X53595237Y-8500439D02*
X53547618Y-8452820D01*
X53547618Y-8452820D02*
X53476190Y-8381391D01*
X53476190Y-8381391D02*
X53428571Y-8357581D01*
X53428571Y-8357581D02*
X53380952Y-8357581D01*
X53404761Y-8476629D02*
X53357142Y-8452820D01*
X53357142Y-8452820D02*
X53309523Y-8405200D01*
X53309523Y-8405200D02*
X53285714Y-8309962D01*
X53285714Y-8309962D02*
X53285714Y-8143296D01*
X53285714Y-8143296D02*
X53309523Y-8048058D01*
X53309523Y-8048058D02*
X53357142Y-8000439D01*
X53357142Y-8000439D02*
X53404761Y-7976629D01*
X53404761Y-7976629D02*
X53499999Y-7976629D01*
X53499999Y-7976629D02*
X53547618Y-8000439D01*
X53547618Y-8000439D02*
X53595237Y-8048058D01*
X53595237Y-8048058D02*
X53619047Y-8143296D01*
X53619047Y-8143296D02*
X53619047Y-8309962D01*
X53619047Y-8309962D02*
X53595237Y-8405200D01*
X53595237Y-8405200D02*
X53547618Y-8452820D01*
X53547618Y-8452820D02*
X53499999Y-8476629D01*
X53499999Y-8476629D02*
X53404761Y-8476629D01*
X54095238Y-8476629D02*
X53809524Y-8476629D01*
X53952381Y-8476629D02*
X53952381Y-7976629D01*
X53952381Y-7976629D02*
X53904762Y-8048058D01*
X53904762Y-8048058D02*
X53857143Y-8095677D01*
X53857143Y-8095677D02*
X53809524Y-8119486D01*
X35880953Y-64314724D02*
X35952381Y-64338534D01*
X35952381Y-64338534D02*
X35976191Y-64362343D01*
X35976191Y-64362343D02*
X36000000Y-64409962D01*
X36000000Y-64409962D02*
X36000000Y-64481391D01*
X36000000Y-64481391D02*
X35976191Y-64529010D01*
X35976191Y-64529010D02*
X35952381Y-64552820D01*
X35952381Y-64552820D02*
X35904762Y-64576629D01*
X35904762Y-64576629D02*
X35714286Y-64576629D01*
X35714286Y-64576629D02*
X35714286Y-64076629D01*
X35714286Y-64076629D02*
X35880953Y-64076629D01*
X35880953Y-64076629D02*
X35928572Y-64100439D01*
X35928572Y-64100439D02*
X35952381Y-64124248D01*
X35952381Y-64124248D02*
X35976191Y-64171867D01*
X35976191Y-64171867D02*
X35976191Y-64219486D01*
X35976191Y-64219486D02*
X35952381Y-64267105D01*
X35952381Y-64267105D02*
X35928572Y-64290915D01*
X35928572Y-64290915D02*
X35880953Y-64314724D01*
X35880953Y-64314724D02*
X35714286Y-64314724D01*
X36476191Y-64576629D02*
X36190477Y-64576629D01*
X36333334Y-64576629D02*
X36333334Y-64076629D01*
X36333334Y-64076629D02*
X36285715Y-64148058D01*
X36285715Y-64148058D02*
X36238096Y-64195677D01*
X36238096Y-64195677D02*
X36190477Y-64219486D01*
X36642857Y-64076629D02*
X36952381Y-64076629D01*
X36952381Y-64076629D02*
X36785714Y-64267105D01*
X36785714Y-64267105D02*
X36857143Y-64267105D01*
X36857143Y-64267105D02*
X36904762Y-64290915D01*
X36904762Y-64290915D02*
X36928571Y-64314724D01*
X36928571Y-64314724D02*
X36952381Y-64362343D01*
X36952381Y-64362343D02*
X36952381Y-64481391D01*
X36952381Y-64481391D02*
X36928571Y-64529010D01*
X36928571Y-64529010D02*
X36904762Y-64552820D01*
X36904762Y-64552820D02*
X36857143Y-64576629D01*
X36857143Y-64576629D02*
X36714286Y-64576629D01*
X36714286Y-64576629D02*
X36666667Y-64552820D01*
X36666667Y-64552820D02*
X36642857Y-64529010D01*
X37047619Y-64624248D02*
X37428571Y-64624248D01*
X37547618Y-64576629D02*
X37547618Y-64076629D01*
X37547618Y-64076629D02*
X37666666Y-64076629D01*
X37666666Y-64076629D02*
X37738094Y-64100439D01*
X37738094Y-64100439D02*
X37785713Y-64148058D01*
X37785713Y-64148058D02*
X37809523Y-64195677D01*
X37809523Y-64195677D02*
X37833332Y-64290915D01*
X37833332Y-64290915D02*
X37833332Y-64362343D01*
X37833332Y-64362343D02*
X37809523Y-64457581D01*
X37809523Y-64457581D02*
X37785713Y-64505200D01*
X37785713Y-64505200D02*
X37738094Y-64552820D01*
X37738094Y-64552820D02*
X37666666Y-64576629D01*
X37666666Y-64576629D02*
X37547618Y-64576629D01*
X38023809Y-64124248D02*
X38047618Y-64100439D01*
X38047618Y-64100439D02*
X38095237Y-64076629D01*
X38095237Y-64076629D02*
X38214285Y-64076629D01*
X38214285Y-64076629D02*
X38261904Y-64100439D01*
X38261904Y-64100439D02*
X38285713Y-64124248D01*
X38285713Y-64124248D02*
X38309523Y-64171867D01*
X38309523Y-64171867D02*
X38309523Y-64219486D01*
X38309523Y-64219486D02*
X38285713Y-64290915D01*
X38285713Y-64290915D02*
X37999999Y-64576629D01*
X37999999Y-64576629D02*
X38309523Y-64576629D01*
X25690476Y-49501629D02*
X25690476Y-49001629D01*
X25690476Y-49001629D02*
X25976190Y-49501629D01*
X25976190Y-49501629D02*
X25976190Y-49001629D01*
X26476191Y-49501629D02*
X26190477Y-49501629D01*
X26333334Y-49501629D02*
X26333334Y-49001629D01*
X26333334Y-49001629D02*
X26285715Y-49073058D01*
X26285715Y-49073058D02*
X26238096Y-49120677D01*
X26238096Y-49120677D02*
X26190477Y-49144486D01*
X26904762Y-49168296D02*
X26904762Y-49501629D01*
X26785714Y-48977820D02*
X26666667Y-49334962D01*
X26666667Y-49334962D02*
X26976190Y-49334962D01*
X27047619Y-49549248D02*
X27428571Y-49549248D01*
X27547618Y-49001629D02*
X27547618Y-49406391D01*
X27547618Y-49406391D02*
X27571428Y-49454010D01*
X27571428Y-49454010D02*
X27595237Y-49477820D01*
X27595237Y-49477820D02*
X27642856Y-49501629D01*
X27642856Y-49501629D02*
X27738094Y-49501629D01*
X27738094Y-49501629D02*
X27785713Y-49477820D01*
X27785713Y-49477820D02*
X27809523Y-49454010D01*
X27809523Y-49454010D02*
X27833332Y-49406391D01*
X27833332Y-49406391D02*
X27833332Y-49001629D01*
X28333333Y-49501629D02*
X28047619Y-49501629D01*
X28190476Y-49501629D02*
X28190476Y-49001629D01*
X28190476Y-49001629D02*
X28142857Y-49073058D01*
X28142857Y-49073058D02*
X28095238Y-49120677D01*
X28095238Y-49120677D02*
X28047619Y-49144486D01*
X48166667Y-59664724D02*
X48238095Y-59688534D01*
X48238095Y-59688534D02*
X48261905Y-59712343D01*
X48261905Y-59712343D02*
X48285714Y-59759962D01*
X48285714Y-59759962D02*
X48285714Y-59831391D01*
X48285714Y-59831391D02*
X48261905Y-59879010D01*
X48261905Y-59879010D02*
X48238095Y-59902820D01*
X48238095Y-59902820D02*
X48190476Y-59926629D01*
X48190476Y-59926629D02*
X48000000Y-59926629D01*
X48000000Y-59926629D02*
X48000000Y-59426629D01*
X48000000Y-59426629D02*
X48166667Y-59426629D01*
X48166667Y-59426629D02*
X48214286Y-59450439D01*
X48214286Y-59450439D02*
X48238095Y-59474248D01*
X48238095Y-59474248D02*
X48261905Y-59521867D01*
X48261905Y-59521867D02*
X48261905Y-59569486D01*
X48261905Y-59569486D02*
X48238095Y-59617105D01*
X48238095Y-59617105D02*
X48214286Y-59640915D01*
X48214286Y-59640915D02*
X48166667Y-59664724D01*
X48166667Y-59664724D02*
X48000000Y-59664724D01*
X48714286Y-59426629D02*
X48619048Y-59426629D01*
X48619048Y-59426629D02*
X48571429Y-59450439D01*
X48571429Y-59450439D02*
X48547619Y-59474248D01*
X48547619Y-59474248D02*
X48500000Y-59545677D01*
X48500000Y-59545677D02*
X48476191Y-59640915D01*
X48476191Y-59640915D02*
X48476191Y-59831391D01*
X48476191Y-59831391D02*
X48500000Y-59879010D01*
X48500000Y-59879010D02*
X48523810Y-59902820D01*
X48523810Y-59902820D02*
X48571429Y-59926629D01*
X48571429Y-59926629D02*
X48666667Y-59926629D01*
X48666667Y-59926629D02*
X48714286Y-59902820D01*
X48714286Y-59902820D02*
X48738095Y-59879010D01*
X48738095Y-59879010D02*
X48761905Y-59831391D01*
X48761905Y-59831391D02*
X48761905Y-59712343D01*
X48761905Y-59712343D02*
X48738095Y-59664724D01*
X48738095Y-59664724D02*
X48714286Y-59640915D01*
X48714286Y-59640915D02*
X48666667Y-59617105D01*
X48666667Y-59617105D02*
X48571429Y-59617105D01*
X48571429Y-59617105D02*
X48523810Y-59640915D01*
X48523810Y-59640915D02*
X48500000Y-59664724D01*
X48500000Y-59664724D02*
X48476191Y-59712343D01*
X48857143Y-59974248D02*
X49238095Y-59974248D01*
X49595237Y-59926629D02*
X49357142Y-59926629D01*
X49357142Y-59926629D02*
X49357142Y-59426629D01*
X50023809Y-59926629D02*
X49738095Y-59926629D01*
X49880952Y-59926629D02*
X49880952Y-59426629D01*
X49880952Y-59426629D02*
X49833333Y-59498058D01*
X49833333Y-59498058D02*
X49785714Y-59545677D01*
X49785714Y-59545677D02*
X49738095Y-59569486D01*
M02*
