M48
; DRILL file KiCad 10.0.6-1.fc44 date 2026-09-12T18:03:07
; FORMAT={-:-/ absolute / metric / decimal}
; #@! TF.CreationDate,2026-09-12T18:03:07+03:00
; #@! TF.GenerationSoftware,Kicad,Pcbnew,10.0.6-1.fc44
; #@! TF.FileFunction,MixedPlating,1,4
FMAT,2
METRIC
; #@! TA.AperFunction,Plated,PTH,ViaDrill
T1C0.300
; #@! TA.AperFunction,Plated,PTH,CastelletedDrill
T2C0.500
%
G90
G05
T1
X27.048Y-21.525
X28.602Y-33.441
X28.602Y-40.302
X29.25Y-29.337
X42.608Y-21.525
X43.821Y-47.746
X43.823Y-33.538
X44.328Y-29.169
X47.237Y-41.05
X48.167Y-54.017
X51.07Y-54.557
X54.67Y-47.079
X57.626Y-34.025
X59.139Y-9.025
X59.377Y-16.187
X59.824Y-41.759
T2
X0.0Y-3.0
X0.0Y-5.0
X0.0Y-7.0
X0.0Y-9.0
X0.0Y-11.0
X0.0Y-13.0
X0.0Y-15.0
X0.0Y-17.0
X0.0Y-19.0
X0.0Y-21.0
X0.0Y-23.0
X0.0Y-25.0
X0.0Y-27.0
X0.0Y-29.0
X0.0Y-31.0
X0.0Y-33.0
X0.0Y-35.0
X0.0Y-37.0
X0.0Y-39.0
X0.0Y-41.0
X0.0Y-43.0
X0.0Y-45.0
X0.0Y-47.0
X0.0Y-49.0
X0.0Y-51.0
X0.0Y-53.0
X0.0Y-55.0
X0.0Y-57.0
X0.0Y-59.0
X0.0Y-61.0
X0.0Y-63.0
X0.0Y-65.0
X0.0Y-67.0
X0.0Y-69.0
X3.0Y0.0
X3.0Y-70.0
X5.0Y0.0
X5.0Y-70.0
X7.0Y0.0
X7.0Y-70.0
X9.0Y0.0
X9.0Y-70.0
X11.0Y0.0
X11.0Y-70.0
X13.0Y0.0
X13.0Y-70.0
X15.0Y0.0
X15.0Y-70.0
X17.0Y0.0
X17.0Y-70.0
X19.0Y0.0
X19.0Y-70.0
X21.0Y0.0
X21.0Y-70.0
X23.0Y0.0
X23.0Y-70.0
X25.0Y0.0
X25.0Y-70.0
X27.0Y0.0
X27.0Y-70.0
X29.0Y0.0
X29.0Y-70.0
X31.0Y0.0
X31.0Y-70.0
X33.0Y0.0
X33.0Y-70.0
X35.0Y0.0
X35.0Y-70.0
X37.0Y0.0
X37.0Y-70.0
X39.0Y0.0
X39.0Y-70.0
X41.0Y0.0
X41.0Y-70.0
X43.0Y0.0
X43.0Y-70.0
X45.0Y0.0
X45.0Y-70.0
X47.0Y0.0
X47.0Y-70.0
X49.0Y0.0
X49.0Y-70.0
X51.0Y0.0
X51.0Y-70.0
X53.0Y0.0
X53.0Y-70.0
X55.0Y0.0
X55.0Y-70.0
X57.0Y0.0
X57.0Y-70.0
X59.0Y0.0
X59.0Y-70.0
X61.0Y0.0
X61.0Y-70.0
X63.0Y0.0
X63.0Y-70.0
X65.0Y0.0
X65.0Y-70.0
X67.0Y0.0
X67.0Y-70.0
X69.0Y0.0
X69.0Y-70.0
X70.0Y-3.0
X70.0Y-5.0
X70.0Y-7.0
X70.0Y-9.0
X70.0Y-11.0
X70.0Y-13.0
X70.0Y-15.0
X70.0Y-17.0
X70.0Y-19.0
X70.0Y-21.0
X70.0Y-23.0
X70.0Y-25.0
X70.0Y-27.0
X70.0Y-29.0
X70.0Y-31.0
X70.0Y-33.0
X70.0Y-35.0
X70.0Y-37.0
X70.0Y-39.0
X70.0Y-41.0
X70.0Y-43.0
X70.0Y-45.0
X70.0Y-47.0
X70.0Y-49.0
X70.0Y-51.0
X70.0Y-53.0
X70.0Y-55.0
X70.0Y-57.0
X70.0Y-59.0
X70.0Y-61.0
X70.0Y-63.0
X70.0Y-65.0
X70.0Y-67.0
X70.0Y-69.0
M30
