%TF.GenerationSoftware,KiCad,Pcbnew,10.0.6-1.fc44*%
%TF.CreationDate,2026-09-12T17:57:59+03:00*%
%TF.ProjectId,adex_resonant_core,61646578-5f72-4657-936f-6e616e745f63,rev?*%
%TF.SameCoordinates,Original*%
%TF.FileFunction,Copper,L1,Top*%
%TF.FilePolarity,Positive*%
%FSLAX46Y46*%
G04 Gerber Fmt 4.6, Leading zero omitted, Abs format (unit mm)*
G04 Created by KiCad (PCBNEW 10.0.6-1.fc44) date 2026-09-12 17:57:59*
%MOMM*%
%LPD*%
G01*
G04 APERTURE LIST*
G04 Aperture macros list*
%AMRoundRect*
0 Rectangle with rounded corners*
0 $1 Rounding radius*
0 $2 $3 $4 $5 $6 $7 $8 $9 X,Y pos of 4 corners*
0 Add a 4 corners polygon primitive as box body*
4,1,4,$2,$3,$4,$5,$6,$7,$8,$9,$2,$3,0*
0 Add four circle primitives for the rounded corners*
1,1,$1+$1,$2,$3*
1,1,$1+$1,$4,$5*
1,1,$1+$1,$6,$7*
1,1,$1+$1,$8,$9*
0 Add four rect primitives between the rounded corners*
20,1,$1+$1,$2,$3,$4,$5,0*
20,1,$1+$1,$4,$5,$6,$7,0*
20,1,$1+$1,$6,$7,$8,$9,0*
20,1,$1+$1,$8,$9,$2,$3,0*%
G04 Aperture macros list end*
%TA.AperFunction,CastellatedPad*%
%ADD10RoundRect,0.200000X-0.200000X0.400000X-0.200000X-0.400000X0.200000X-0.400000X0.200000X0.400000X0*%
%TD*%
%TA.AperFunction,CastellatedPad*%
%ADD11RoundRect,0.200000X0.200000X-0.400000X0.200000X0.400000X-0.200000X0.400000X-0.200000X-0.400000X0*%
%TD*%
%TA.AperFunction,CastellatedPad*%
%ADD12RoundRect,0.200000X-0.400000X-0.200000X0.400000X-0.200000X0.400000X0.200000X-0.400000X0.200000X0*%
%TD*%
%TA.AperFunction,CastellatedPad*%
%ADD13RoundRect,0.200000X0.400000X0.200000X-0.400000X0.200000X-0.400000X-0.200000X0.400000X-0.200000X0*%
%TD*%
%TA.AperFunction,SMDPad,CuDef*%
%ADD14RoundRect,0.135000X-0.135000X-0.185000X0.135000X-0.185000X0.135000X0.185000X-0.135000X0.185000X0*%
%TD*%
%TA.AperFunction,SMDPad,CuDef*%
%ADD15RoundRect,0.150000X-0.587500X-0.150000X0.587500X-0.150000X0.587500X0.150000X-0.587500X0.150000X0*%
%TD*%
%TA.AperFunction,SMDPad,CuDef*%
%ADD16RoundRect,0.140000X-0.140000X-0.170000X0.140000X-0.170000X0.140000X0.170000X-0.140000X0.170000X0*%
%TD*%
%TA.AperFunction,SMDPad,CuDef*%
%ADD17RoundRect,0.100000X-0.637500X-0.100000X0.637500X-0.100000X0.637500X0.100000X-0.637500X0.100000X0*%
%TD*%
%TA.AperFunction,SMDPad,CuDef*%
%ADD18RoundRect,0.250000X-0.375000X-0.850000X0.375000X-0.850000X0.375000X0.850000X-0.375000X0.850000X0*%
%TD*%
%TA.AperFunction,ViaPad*%
%ADD19C,0.600000*%
%TD*%
%TA.AperFunction,Conductor*%
%ADD20C,0.200000*%
%TD*%
%TA.AperFunction,Conductor*%
%ADD21C,0.150000*%
%TD*%
G04 APERTURE END LIST*
D10*
%TO.P,CL017,*%
%TO.N,*%
X0Y-35000000D03*
%TD*%
D11*
%TO.P,CR008,*%
%TO.N,*%
X70000000Y-17000000D03*
%TD*%
D12*
%TO.P,CT022,*%
%TO.N,*%
X45000000Y0D03*
%TD*%
D13*
%TO.P,CB001,*%
%TO.N,*%
X3000000Y-70000000D03*
%TD*%
D12*
%TO.P,CT010,*%
%TO.N,*%
X21000000Y0D03*
%TD*%
D10*
%TO.P,CL008,*%
%TO.N,*%
X0Y-17000000D03*
%TD*%
D14*
%TO.P,N6_R6,1*%
%TO.N,N6_VDD*%
X29490000Y-28550000D03*
%TO.P,N6_R6,2*%
%TO.N,N6_SPIKE_OUT*%
X30510000Y-28550000D03*
%TD*%
%TO.P,N8_R3,1*%
%TO.N,N8_VSS*%
X56690000Y-26300000D03*
%TO.P,N8_R3,2*%
X57710000Y-26300000D03*
%TD*%
%TO.P,N4_R5,1*%
%TO.N,N4_V_TH*%
X61490000Y-13800000D03*
%TO.P,N4_R5,2*%
%TO.N,N4_GND*%
X62510000Y-13800000D03*
%TD*%
D13*
%TO.P,CB006,*%
%TO.N,*%
X13000000Y-70000000D03*
%TD*%
D10*
%TO.P,CL003,*%
%TO.N,*%
X0Y-7000000D03*
%TD*%
D14*
%TO.P,N15_R5,1*%
%TO.N,N15_V_TH*%
X45490000Y-51300000D03*
%TO.P,N15_R5,2*%
%TO.N,N15_GND*%
X46510000Y-51300000D03*
%TD*%
D10*
%TO.P,CL001,*%
%TO.N,*%
X0Y-3000000D03*
%TD*%
%TO.P,CL006,*%
%TO.N,*%
X0Y-13000000D03*
%TD*%
D14*
%TO.P,N4_R6,1*%
%TO.N,N4_VDD*%
X61490000Y-16050000D03*
%TO.P,N4_R6,2*%
%TO.N,N4_SPIKE_OUT*%
X62510000Y-16050000D03*
%TD*%
D10*
%TO.P,CL023,*%
%TO.N,*%
X0Y-47000000D03*
%TD*%
D14*
%TO.P,N16_R4,1*%
%TO.N,N16_V_tune*%
X56690000Y-53550000D03*
%TO.P,N16_R4,2*%
%TO.N,N16_V_TH*%
X57710000Y-53550000D03*
%TD*%
D12*
%TO.P,CT004,*%
%TO.N,*%
X9000000Y0D03*
%TD*%
D15*
%TO.P,N4_Q2,1*%
%TO.N,N/C*%
X64062500Y-5450000D03*
%TO.P,N4_Q2,2*%
X64062500Y-7350000D03*
%TO.P,N4_Q2,3*%
X65937500Y-6400000D03*
%TD*%
D16*
%TO.P,N10_C1,1*%
%TO.N,N10_I_ext*%
X26520000Y-31000000D03*
%TO.P,N10_C1,2*%
%TO.N,N10_V_m*%
X27480000Y-31000000D03*
%TD*%
D14*
%TO.P,N1_R3,1*%
%TO.N,N1_VSS*%
X8690000Y-13800000D03*
%TO.P,N1_R3,2*%
X9710000Y-13800000D03*
%TD*%
D15*
%TO.P,N8_Q1,1*%
%TO.N,N8_V_m*%
X52062500Y-17950000D03*
%TO.P,N8_Q1,2*%
X52062500Y-19850000D03*
%TO.P,N8_Q1,3*%
%TO.N,N8_VSS*%
X53937500Y-18900000D03*
%TD*%
D13*
%TO.P,CB024,*%
%TO.N,*%
X49000000Y-70000000D03*
%TD*%
D14*
%TO.P,N9_R2,1*%
%TO.N,N9_V_m*%
X4690000Y-41050000D03*
%TO.P,N9_R2,2*%
X5710000Y-41050000D03*
%TD*%
%TO.P,N6_R1,1*%
%TO.N,N6_V_m*%
X20690000Y-26300000D03*
%TO.P,N6_R1,2*%
%TO.N,N6_GND*%
X21710000Y-26300000D03*
%TD*%
D17*
%TO.P,N4_U1,1*%
%TO.N,N4_SPIKE_OUT*%
X56137500Y-9025000D03*
%TO.P,N4_U1,2*%
%TO.N,N4_V_TH*%
X56137500Y-9675000D03*
%TO.P,N4_U1,3*%
%TO.N,N4_V_m*%
X56137500Y-10325000D03*
%TO.P,N4_U1,4*%
%TO.N,N4_GND*%
X56137500Y-10975000D03*
%TO.P,N4_U1,5*%
%TO.N,N/C*%
X61862500Y-10975000D03*
%TO.P,N4_U1,6*%
X61862500Y-10325000D03*
%TO.P,N4_U1,7*%
X61862500Y-9675000D03*
%TO.P,N4_U1,8*%
%TO.N,N4_VDD*%
X61862500Y-9025000D03*
%TD*%
D11*
%TO.P,CR031,*%
%TO.N,*%
X70000000Y-63000000D03*
%TD*%
D10*
%TO.P,CL028,*%
%TO.N,*%
X0Y-57000000D03*
%TD*%
%TO.P,CL024,*%
%TO.N,*%
X0Y-49000000D03*
%TD*%
D16*
%TO.P,N14_C1,1*%
%TO.N,N14_I_ext*%
X26520000Y-43500000D03*
%TO.P,N14_C1,2*%
%TO.N,N14_V_m*%
X27480000Y-43500000D03*
%TD*%
D15*
%TO.P,N16_Q1,1*%
%TO.N,N16_V_m*%
X52062500Y-42950000D03*
%TO.P,N16_Q1,2*%
X52062500Y-44850000D03*
%TO.P,N16_Q1,3*%
%TO.N,N16_VSS*%
X53937500Y-43900000D03*
%TD*%
D14*
%TO.P,N14_R6,1*%
%TO.N,N14_VDD*%
X29490000Y-53550000D03*
%TO.P,N14_R6,2*%
%TO.N,N14_SPIKE_OUT*%
X30510000Y-53550000D03*
%TD*%
D15*
%TO.P,N13_Q1,1*%
%TO.N,N13_V_m*%
X4062500Y-42950000D03*
%TO.P,N13_Q1,2*%
X4062500Y-44850000D03*
%TO.P,N13_Q1,3*%
%TO.N,N13_VSS*%
X5937500Y-43900000D03*
%TD*%
D14*
%TO.P,N7_R6,1*%
%TO.N,N7_VDD*%
X45490000Y-28550000D03*
%TO.P,N7_R6,2*%
%TO.N,N7_SPIKE_OUT*%
X46510000Y-28550000D03*
%TD*%
%TO.P,N10_R3,1*%
%TO.N,N10_VSS*%
X24690000Y-38800000D03*
%TO.P,N10_R3,2*%
X25710000Y-38800000D03*
%TD*%
%TO.P,N10_R1,1*%
%TO.N,N10_V_m*%
X20690000Y-38800000D03*
%TO.P,N10_R1,2*%
%TO.N,N10_GND*%
X21710000Y-38800000D03*
%TD*%
D15*
%TO.P,N10_Q2,1*%
%TO.N,N/C*%
X32062500Y-30450000D03*
%TO.P,N10_Q2,2*%
X32062500Y-32350000D03*
%TO.P,N10_Q2,3*%
X33937500Y-31400000D03*
%TD*%
D13*
%TO.P,CB011,*%
%TO.N,*%
X23000000Y-70000000D03*
%TD*%
D15*
%TO.P,N12_Q2,1*%
%TO.N,N/C*%
X64062500Y-30450000D03*
%TO.P,N12_Q2,2*%
X64062500Y-32350000D03*
%TO.P,N12_Q2,3*%
X65937500Y-31400000D03*
%TD*%
D17*
%TO.P,N9_U1,1*%
%TO.N,N9_SPIKE_OUT*%
X8137500Y-34025000D03*
%TO.P,N9_U1,2*%
%TO.N,N9_V_TH*%
X8137500Y-34675000D03*
%TO.P,N9_U1,3*%
%TO.N,N9_V_m*%
X8137500Y-35325000D03*
%TO.P,N9_U1,4*%
%TO.N,N9_GND*%
X8137500Y-35975000D03*
%TO.P,N9_U1,5*%
%TO.N,N/C*%
X13862500Y-35975000D03*
%TO.P,N9_U1,6*%
X13862500Y-35325000D03*
%TO.P,N9_U1,7*%
X13862500Y-34675000D03*
%TO.P,N9_U1,8*%
%TO.N,N9_VDD*%
X13862500Y-34025000D03*
%TD*%
D11*
%TO.P,CR030,*%
%TO.N,*%
X70000000Y-61000000D03*
%TD*%
D10*
%TO.P,CL020,*%
%TO.N,*%
X0Y-41000000D03*
%TD*%
D14*
%TO.P,N3_R2,1*%
%TO.N,N3_V_m*%
X36690000Y-16050000D03*
%TO.P,N3_R2,2*%
X37710000Y-16050000D03*
%TD*%
D12*
%TO.P,CT012,*%
%TO.N,*%
X25000000Y0D03*
%TD*%
D10*
%TO.P,CL021,*%
%TO.N,*%
X0Y-43000000D03*
%TD*%
D13*
%TO.P,CB019,*%
%TO.N,*%
X39000000Y-70000000D03*
%TD*%
D14*
%TO.P,N7_R4,1*%
%TO.N,N7_V_tune*%
X40690000Y-28550000D03*
%TO.P,N7_R4,2*%
%TO.N,N7_V_TH*%
X41710000Y-28550000D03*
%TD*%
%TO.P,N14_R4,1*%
%TO.N,N14_V_tune*%
X24690000Y-53550000D03*
%TO.P,N14_R4,2*%
%TO.N,N14_V_TH*%
X25710000Y-53550000D03*
%TD*%
D13*
%TO.P,CB014,*%
%TO.N,*%
X29000000Y-70000000D03*
%TD*%
D15*
%TO.P,N6_Q1,1*%
%TO.N,N6_V_m*%
X20062500Y-17950000D03*
%TO.P,N6_Q1,2*%
X20062500Y-19850000D03*
%TO.P,N6_Q1,3*%
%TO.N,N6_VSS*%
X21937500Y-18900000D03*
%TD*%
D10*
%TO.P,CL018,*%
%TO.N,*%
X0Y-37000000D03*
%TD*%
D16*
%TO.P,N1_C1,1*%
%TO.N,N1_I_ext*%
X10520000Y-6000000D03*
%TO.P,N1_C1,2*%
%TO.N,N1_V_m*%
X11480000Y-6000000D03*
%TD*%
D14*
%TO.P,N5_R3,1*%
%TO.N,N5_VSS*%
X8690000Y-26300000D03*
%TO.P,N5_R3,2*%
X9710000Y-26300000D03*
%TD*%
D17*
%TO.P,N12_U1,1*%
%TO.N,N12_SPIKE_OUT*%
X56137500Y-34025000D03*
%TO.P,N12_U1,2*%
%TO.N,N12_V_TH*%
X56137500Y-34675000D03*
%TO.P,N12_U1,3*%
%TO.N,N12_V_m*%
X56137500Y-35325000D03*
%TO.P,N12_U1,4*%
%TO.N,N12_GND*%
X56137500Y-35975000D03*
%TO.P,N12_U1,5*%
%TO.N,N/C*%
X61862500Y-35975000D03*
%TO.P,N12_U1,6*%
X61862500Y-35325000D03*
%TO.P,N12_U1,7*%
X61862500Y-34675000D03*
%TO.P,N12_U1,8*%
%TO.N,N12_VDD*%
X61862500Y-34025000D03*
%TD*%
D11*
%TO.P,CR018,*%
%TO.N,*%
X70000000Y-37000000D03*
%TD*%
D10*
%TO.P,CL032,*%
%TO.N,*%
X0Y-65000000D03*
%TD*%
D15*
%TO.P,N5_Q1,1*%
%TO.N,N5_V_m*%
X4062500Y-17950000D03*
%TO.P,N5_Q1,2*%
X4062500Y-19850000D03*
%TO.P,N5_Q1,3*%
%TO.N,N5_VSS*%
X5937500Y-18900000D03*
%TD*%
D14*
%TO.P,N9_R5,1*%
%TO.N,N9_V_TH*%
X13490000Y-38800000D03*
%TO.P,N9_R5,2*%
%TO.N,N9_GND*%
X14510000Y-38800000D03*
%TD*%
D15*
%TO.P,N7_Q2,1*%
%TO.N,N/C*%
X48062500Y-17950000D03*
%TO.P,N7_Q2,2*%
X48062500Y-19850000D03*
%TO.P,N7_Q2,3*%
X49937500Y-18900000D03*
%TD*%
D14*
%TO.P,N9_R3,1*%
%TO.N,N9_VSS*%
X8690000Y-38800000D03*
%TO.P,N9_R3,2*%
X9710000Y-38800000D03*
%TD*%
D12*
%TO.P,CT034,*%
%TO.N,*%
X69000000Y0D03*
%TD*%
D15*
%TO.P,N1_Q1,1*%
%TO.N,N1_V_m*%
X4062500Y-5450000D03*
%TO.P,N1_Q1,2*%
X4062500Y-7350000D03*
%TO.P,N1_Q1,3*%
%TO.N,N1_VSS*%
X5937500Y-6400000D03*
%TD*%
D12*
%TO.P,CT029,*%
%TO.N,*%
X59000000Y0D03*
%TD*%
%TO.P,CT013,*%
%TO.N,*%
X27000000Y0D03*
%TD*%
D11*
%TO.P,CR002,*%
%TO.N,*%
X70000000Y-5000000D03*
%TD*%
D14*
%TO.P,N7_R3,1*%
%TO.N,N7_VSS*%
X40690000Y-26300000D03*
%TO.P,N7_R3,2*%
X41710000Y-26300000D03*
%TD*%
%TO.P,N5_R4,1*%
%TO.N,N5_V_tune*%
X8690000Y-28550000D03*
%TO.P,N5_R4,2*%
%TO.N,N5_V_TH*%
X9710000Y-28550000D03*
%TD*%
D13*
%TO.P,CB022,*%
%TO.N,*%
X45000000Y-70000000D03*
%TD*%
D18*
%TO.P,B12_L1,1*%
%TO.N,B12_NODE_A*%
X31925000Y-62500000D03*
%TO.P,B12_L1,2*%
%TO.N,B12_LC_MID*%
X34075000Y-62500000D03*
%TD*%
D11*
%TO.P,CR015,*%
%TO.N,*%
X70000000Y-31000000D03*
%TD*%
D10*
%TO.P,CL030,*%
%TO.N,*%
X0Y-61000000D03*
%TD*%
D17*
%TO.P,N5_U1,1*%
%TO.N,N5_SPIKE_OUT*%
X8137500Y-21525000D03*
%TO.P,N5_U1,2*%
%TO.N,N5_V_TH*%
X8137500Y-22175000D03*
%TO.P,N5_U1,3*%
%TO.N,N5_V_m*%
X8137500Y-22825000D03*
%TO.P,N5_U1,4*%
%TO.N,N5_GND*%
X8137500Y-23475000D03*
%TO.P,N5_U1,5*%
%TO.N,N/C*%
X13862500Y-23475000D03*
%TO.P,N5_U1,6*%
X13862500Y-22825000D03*
%TO.P,N5_U1,7*%
X13862500Y-22175000D03*
%TO.P,N5_U1,8*%
%TO.N,N5_VDD*%
X13862500Y-21525000D03*
%TD*%
%TO.P,N3_U1,1*%
%TO.N,N3_SPIKE_OUT*%
X40137500Y-9025000D03*
%TO.P,N3_U1,2*%
%TO.N,N3_V_TH*%
X40137500Y-9675000D03*
%TO.P,N3_U1,3*%
%TO.N,N3_V_m*%
X40137500Y-10325000D03*
%TO.P,N3_U1,4*%
%TO.N,N3_GND*%
X40137500Y-10975000D03*
%TO.P,N3_U1,5*%
%TO.N,N/C*%
X45862500Y-10975000D03*
%TO.P,N3_U1,6*%
X45862500Y-10325000D03*
%TO.P,N3_U1,7*%
X45862500Y-9675000D03*
%TO.P,N3_U1,8*%
%TO.N,N3_VDD*%
X45862500Y-9025000D03*
%TD*%
D13*
%TO.P,CB020,*%
%TO.N,*%
X41000000Y-70000000D03*
%TD*%
D14*
%TO.P,N10_R5,1*%
%TO.N,N10_V_TH*%
X29490000Y-38800000D03*
%TO.P,N10_R5,2*%
%TO.N,N10_GND*%
X30510000Y-38800000D03*
%TD*%
D13*
%TO.P,CB034,*%
%TO.N,*%
X69000000Y-70000000D03*
%TD*%
D11*
%TO.P,CR034,*%
%TO.N,*%
X70000000Y-69000000D03*
%TD*%
%TO.P,CR004,*%
%TO.N,*%
X70000000Y-9000000D03*
%TD*%
D13*
%TO.P,CB002,*%
%TO.N,*%
X5000000Y-70000000D03*
%TD*%
D18*
%TO.P,B11_L1,1*%
%TO.N,B11_NODE_A*%
X23925000Y-62500000D03*
%TO.P,B11_L1,2*%
%TO.N,B11_LC_MID*%
X26075000Y-62500000D03*
%TD*%
D14*
%TO.P,N4_R1,1*%
%TO.N,N4_V_m*%
X52690000Y-13800000D03*
%TO.P,N4_R1,2*%
%TO.N,N4_GND*%
X53710000Y-13800000D03*
%TD*%
D16*
%TO.P,N7_C1,1*%
%TO.N,N7_I_ext*%
X42520000Y-18500000D03*
%TO.P,N7_C1,2*%
%TO.N,N7_V_m*%
X43480000Y-18500000D03*
%TD*%
%TO.P,N11_C1,1*%
%TO.N,N11_I_ext*%
X42520000Y-31000000D03*
%TO.P,N11_C1,2*%
%TO.N,N11_V_m*%
X43480000Y-31000000D03*
%TD*%
D14*
%TO.P,N1_R1,1*%
%TO.N,N1_V_m*%
X4690000Y-13800000D03*
%TO.P,N1_R1,2*%
%TO.N,N1_GND*%
X5710000Y-13800000D03*
%TD*%
D12*
%TO.P,CT007,*%
%TO.N,*%
X15000000Y0D03*
%TD*%
D14*
%TO.P,N3_R1,1*%
%TO.N,N3_V_m*%
X36690000Y-13800000D03*
%TO.P,N3_R1,2*%
%TO.N,N3_GND*%
X37710000Y-13800000D03*
%TD*%
%TO.P,N12_R2,1*%
%TO.N,N12_V_m*%
X52690000Y-41050000D03*
%TO.P,N12_R2,2*%
X53710000Y-41050000D03*
%TD*%
D13*
%TO.P,CB009,*%
%TO.N,*%
X19000000Y-70000000D03*
%TD*%
D10*
%TO.P,CL027,*%
%TO.N,*%
X0Y-55000000D03*
%TD*%
D12*
%TO.P,CT023,*%
%TO.N,*%
X47000000Y0D03*
%TD*%
D11*
%TO.P,CR026,*%
%TO.N,*%
X70000000Y-53000000D03*
%TD*%
D14*
%TO.P,N12_R4,1*%
%TO.N,N12_V_tune*%
X56690000Y-41050000D03*
%TO.P,N12_R4,2*%
%TO.N,N12_V_TH*%
X57710000Y-41050000D03*
%TD*%
%TO.P,N9_R1,1*%
%TO.N,N9_V_m*%
X4690000Y-38800000D03*
%TO.P,N9_R1,2*%
%TO.N,N9_GND*%
X5710000Y-38800000D03*
%TD*%
D15*
%TO.P,N14_Q2,1*%
%TO.N,N/C*%
X32062500Y-42950000D03*
%TO.P,N14_Q2,2*%
X32062500Y-44850000D03*
%TO.P,N14_Q2,3*%
X33937500Y-43900000D03*
%TD*%
%TO.P,B4_D2,1*%
%TO.N,B4_LC_MID*%
X28062500Y-57050000D03*
%TO.P,B4_D2,2*%
%TO.N,B4_GND*%
X28062500Y-58950000D03*
%TO.P,B4_D2,3*%
%TO.N,N/C*%
X29937500Y-58000000D03*
%TD*%
D13*
%TO.P,CB010,*%
%TO.N,*%
X21000000Y-70000000D03*
%TD*%
D10*
%TO.P,CL011,*%
%TO.N,*%
X0Y-23000000D03*
%TD*%
D15*
%TO.P,N13_Q2,1*%
%TO.N,N/C*%
X16062500Y-42950000D03*
%TO.P,N13_Q2,2*%
X16062500Y-44850000D03*
%TO.P,N13_Q2,3*%
X17937500Y-43900000D03*
%TD*%
D14*
%TO.P,N1_R5,1*%
%TO.N,N1_V_TH*%
X13490000Y-13800000D03*
%TO.P,N1_R5,2*%
%TO.N,N1_GND*%
X14510000Y-13800000D03*
%TD*%
D12*
%TO.P,CT002,*%
%TO.N,*%
X5000000Y0D03*
%TD*%
%TO.P,CT016,*%
%TO.N,*%
X33000000Y0D03*
%TD*%
D11*
%TO.P,CR013,*%
%TO.N,*%
X70000000Y-27000000D03*
%TD*%
D14*
%TO.P,N2_R2,1*%
%TO.N,N2_V_m*%
X20690000Y-16050000D03*
%TO.P,N2_R2,2*%
X21710000Y-16050000D03*
%TD*%
D10*
%TO.P,CL007,*%
%TO.N,*%
X0Y-15000000D03*
%TD*%
D11*
%TO.P,CR023,*%
%TO.N,*%
X70000000Y-47000000D03*
%TD*%
D12*
%TO.P,CT005,*%
%TO.N,*%
X11000000Y0D03*
%TD*%
%TO.P,CT024,*%
%TO.N,*%
X49000000Y0D03*
%TD*%
D11*
%TO.P,CR005,*%
%TO.N,*%
X70000000Y-11000000D03*
%TD*%
D14*
%TO.P,N1_R2,1*%
%TO.N,N1_V_m*%
X4690000Y-16050000D03*
%TO.P,N1_R2,2*%
X5710000Y-16050000D03*
%TD*%
D11*
%TO.P,CR012,*%
%TO.N,*%
X70000000Y-25000000D03*
%TD*%
D14*
%TO.P,N4_R3,1*%
%TO.N,N4_VSS*%
X56690000Y-13800000D03*
%TO.P,N4_R3,2*%
X57710000Y-13800000D03*
%TD*%
%TO.P,N11_R3,1*%
%TO.N,N11_VSS*%
X40690000Y-38800000D03*
%TO.P,N11_R3,2*%
X41710000Y-38800000D03*
%TD*%
%TO.P,N8_R2,1*%
%TO.N,N8_V_m*%
X52690000Y-28550000D03*
%TO.P,N8_R2,2*%
X53710000Y-28550000D03*
%TD*%
D12*
%TO.P,CT027,*%
%TO.N,*%
X55000000Y0D03*
%TD*%
D15*
%TO.P,N3_Q1,1*%
%TO.N,N3_V_m*%
X36062500Y-5450000D03*
%TO.P,N3_Q1,2*%
X36062500Y-7350000D03*
%TO.P,N3_Q1,3*%
%TO.N,N3_VSS*%
X37937500Y-6400000D03*
%TD*%
D14*
%TO.P,N16_R6,1*%
%TO.N,N16_VDD*%
X61490000Y-53550000D03*
%TO.P,N16_R6,2*%
%TO.N,N16_SPIKE_OUT*%
X62510000Y-53550000D03*
%TD*%
D17*
%TO.P,N2_U1,1*%
%TO.N,N2_SPIKE_OUT*%
X24137500Y-9025000D03*
%TO.P,N2_U1,2*%
%TO.N,N2_V_TH*%
X24137500Y-9675000D03*
%TO.P,N2_U1,3*%
%TO.N,N2_V_m*%
X24137500Y-10325000D03*
%TO.P,N2_U1,4*%
%TO.N,N2_GND*%
X24137500Y-10975000D03*
%TO.P,N2_U1,5*%
%TO.N,N/C*%
X29862500Y-10975000D03*
%TO.P,N2_U1,6*%
X29862500Y-10325000D03*
%TO.P,N2_U1,7*%
X29862500Y-9675000D03*
%TO.P,N2_U1,8*%
%TO.N,N2_VDD*%
X29862500Y-9025000D03*
%TD*%
D11*
%TO.P,CR007,*%
%TO.N,*%
X70000000Y-15000000D03*
%TD*%
D14*
%TO.P,N11_R1,1*%
%TO.N,N11_V_m*%
X36690000Y-38800000D03*
%TO.P,N11_R1,2*%
%TO.N,N11_GND*%
X37710000Y-38800000D03*
%TD*%
%TO.P,N2_R1,1*%
%TO.N,N2_V_m*%
X20690000Y-13800000D03*
%TO.P,N2_R1,2*%
%TO.N,N2_GND*%
X21710000Y-13800000D03*
%TD*%
%TO.P,N6_R3,1*%
%TO.N,N6_VSS*%
X24690000Y-26300000D03*
%TO.P,N6_R3,2*%
X25710000Y-26300000D03*
%TD*%
D15*
%TO.P,N8_Q2,1*%
%TO.N,N/C*%
X64062500Y-17950000D03*
%TO.P,N8_Q2,2*%
X64062500Y-19850000D03*
%TO.P,N8_Q2,3*%
X65937500Y-18900000D03*
%TD*%
%TO.P,B7_D2,1*%
%TO.N,B7_LC_MID*%
X52062500Y-57050000D03*
%TO.P,B7_D2,2*%
%TO.N,B7_GND*%
X52062500Y-58950000D03*
%TO.P,B7_D2,3*%
%TO.N,N/C*%
X53937500Y-58000000D03*
%TD*%
D17*
%TO.P,N7_U1,1*%
%TO.N,N7_SPIKE_OUT*%
X40137500Y-21525000D03*
%TO.P,N7_U1,2*%
%TO.N,N7_V_TH*%
X40137500Y-22175000D03*
%TO.P,N7_U1,3*%
%TO.N,N7_V_m*%
X40137500Y-22825000D03*
%TO.P,N7_U1,4*%
%TO.N,N7_GND*%
X40137500Y-23475000D03*
%TO.P,N7_U1,5*%
%TO.N,N/C*%
X45862500Y-23475000D03*
%TO.P,N7_U1,6*%
X45862500Y-22825000D03*
%TO.P,N7_U1,7*%
X45862500Y-22175000D03*
%TO.P,N7_U1,8*%
%TO.N,N7_VDD*%
X45862500Y-21525000D03*
%TD*%
D14*
%TO.P,N13_R2,1*%
%TO.N,N13_V_m*%
X4690000Y-53550000D03*
%TO.P,N13_R2,2*%
X5710000Y-53550000D03*
%TD*%
D17*
%TO.P,N8_U1,1*%
%TO.N,N8_SPIKE_OUT*%
X56137500Y-21525000D03*
%TO.P,N8_U1,2*%
%TO.N,N8_V_TH*%
X56137500Y-22175000D03*
%TO.P,N8_U1,3*%
%TO.N,N8_V_m*%
X56137500Y-22825000D03*
%TO.P,N8_U1,4*%
%TO.N,N8_GND*%
X56137500Y-23475000D03*
%TO.P,N8_U1,5*%
%TO.N,N/C*%
X61862500Y-23475000D03*
%TO.P,N8_U1,6*%
X61862500Y-22825000D03*
%TO.P,N8_U1,7*%
X61862500Y-22175000D03*
%TO.P,N8_U1,8*%
%TO.N,N8_VDD*%
X61862500Y-21525000D03*
%TD*%
D11*
%TO.P,CR001,*%
%TO.N,*%
X70000000Y-3000000D03*
%TD*%
D14*
%TO.P,N6_R4,1*%
%TO.N,N6_V_tune*%
X24690000Y-28550000D03*
%TO.P,N6_R4,2*%
%TO.N,N6_V_TH*%
X25710000Y-28550000D03*
%TD*%
D15*
%TO.P,N2_Q1,1*%
%TO.N,N2_V_m*%
X20062500Y-5450000D03*
%TO.P,N2_Q1,2*%
X20062500Y-7350000D03*
%TO.P,N2_Q1,3*%
%TO.N,N2_VSS*%
X21937500Y-6400000D03*
%TD*%
D13*
%TO.P,CB028,*%
%TO.N,*%
X57000000Y-70000000D03*
%TD*%
D14*
%TO.P,N1_R6,1*%
%TO.N,N1_VDD*%
X13490000Y-16050000D03*
%TO.P,N1_R6,2*%
%TO.N,N1_SPIKE_OUT*%
X14510000Y-16050000D03*
%TD*%
%TO.P,N2_R4,1*%
%TO.N,N2_V_tune*%
X24690000Y-16050000D03*
%TO.P,N2_R4,2*%
%TO.N,N2_V_TH*%
X25710000Y-16050000D03*
%TD*%
D13*
%TO.P,CB004,*%
%TO.N,*%
X9000000Y-70000000D03*
%TD*%
D14*
%TO.P,N4_R4,1*%
%TO.N,N4_V_tune*%
X56690000Y-16050000D03*
%TO.P,N4_R4,2*%
%TO.N,N4_V_TH*%
X57710000Y-16050000D03*
%TD*%
D15*
%TO.P,N3_Q2,1*%
%TO.N,N/C*%
X48062500Y-5450000D03*
%TO.P,N3_Q2,2*%
X48062500Y-7350000D03*
%TO.P,N3_Q2,3*%
X49937500Y-6400000D03*
%TD*%
D11*
%TO.P,CR020,*%
%TO.N,*%
X70000000Y-41000000D03*
%TD*%
D12*
%TO.P,CT006,*%
%TO.N,*%
X13000000Y0D03*
%TD*%
D13*
%TO.P,CB003,*%
%TO.N,*%
X7000000Y-70000000D03*
%TD*%
D10*
%TO.P,CL022,*%
%TO.N,*%
X0Y-45000000D03*
%TD*%
D16*
%TO.P,N12_C1,1*%
%TO.N,N12_I_ext*%
X58520000Y-31000000D03*
%TO.P,N12_C1,2*%
%TO.N,N12_V_m*%
X59480000Y-31000000D03*
%TD*%
D13*
%TO.P,CB032,*%
%TO.N,*%
X65000000Y-70000000D03*
%TD*%
D11*
%TO.P,CR028,*%
%TO.N,*%
X70000000Y-57000000D03*
%TD*%
D14*
%TO.P,N14_R3,1*%
%TO.N,N14_VSS*%
X24690000Y-51300000D03*
%TO.P,N14_R3,2*%
X25710000Y-51300000D03*
%TD*%
D10*
%TO.P,CL005,*%
%TO.N,*%
X0Y-11000000D03*
%TD*%
D12*
%TO.P,CT019,*%
%TO.N,*%
X39000000Y0D03*
%TD*%
D15*
%TO.P,N6_Q2,1*%
%TO.N,N/C*%
X32062500Y-17950000D03*
%TO.P,N6_Q2,2*%
X32062500Y-19850000D03*
%TO.P,N6_Q2,3*%
X33937500Y-18900000D03*
%TD*%
D13*
%TO.P,CB023,*%
%TO.N,*%
X47000000Y-70000000D03*
%TD*%
D14*
%TO.P,N13_R3,1*%
%TO.N,N13_VSS*%
X8690000Y-51300000D03*
%TO.P,N13_R3,2*%
X9710000Y-51300000D03*
%TD*%
D10*
%TO.P,CL014,*%
%TO.N,*%
X0Y-29000000D03*
%TD*%
%TO.P,CL013,*%
%TO.N,*%
X0Y-27000000D03*
%TD*%
D12*
%TO.P,CT011,*%
%TO.N,*%
X23000000Y0D03*
%TD*%
D14*
%TO.P,N3_R4,1*%
%TO.N,N3_V_tune*%
X40690000Y-16050000D03*
%TO.P,N3_R4,2*%
%TO.N,N3_V_TH*%
X41710000Y-16050000D03*
%TD*%
D11*
%TO.P,CR032,*%
%TO.N,*%
X70000000Y-65000000D03*
%TD*%
D14*
%TO.P,N13_R4,1*%
%TO.N,N13_V_tune*%
X8690000Y-53550000D03*
%TO.P,N13_R4,2*%
%TO.N,N13_V_TH*%
X9710000Y-53550000D03*
%TD*%
D12*
%TO.P,CT028,*%
%TO.N,*%
X57000000Y0D03*
%TD*%
D17*
%TO.P,N1_U1,1*%
%TO.N,N1_SPIKE_OUT*%
X8137500Y-9025000D03*
%TO.P,N1_U1,2*%
%TO.N,N1_V_TH*%
X8137500Y-9675000D03*
%TO.P,N1_U1,3*%
%TO.N,N1_V_m*%
X8137500Y-10325000D03*
%TO.P,N1_U1,4*%
%TO.N,N1_GND*%
X8137500Y-10975000D03*
%TO.P,N1_U1,5*%
%TO.N,N/C*%
X13862500Y-10975000D03*
%TO.P,N1_U1,6*%
X13862500Y-10325000D03*
%TO.P,N1_U1,7*%
X13862500Y-9675000D03*
%TO.P,N1_U1,8*%
%TO.N,N1_VDD*%
X13862500Y-9025000D03*
%TD*%
D15*
%TO.P,N1_Q2,1*%
%TO.N,N/C*%
X16062500Y-5450000D03*
%TO.P,N1_Q2,2*%
X16062500Y-7350000D03*
%TO.P,N1_Q2,3*%
X17937500Y-6400000D03*
%TD*%
D14*
%TO.P,N5_R2,1*%
%TO.N,N5_V_m*%
X4690000Y-28550000D03*
%TO.P,N5_R2,2*%
X5710000Y-28550000D03*
%TD*%
D12*
%TO.P,CT001,*%
%TO.N,*%
X3000000Y0D03*
%TD*%
D10*
%TO.P,CL004,*%
%TO.N,*%
X0Y-9000000D03*
%TD*%
D14*
%TO.P,N5_R1,1*%
%TO.N,N5_V_m*%
X4690000Y-26300000D03*
%TO.P,N5_R1,2*%
%TO.N,N5_GND*%
X5710000Y-26300000D03*
%TD*%
D13*
%TO.P,CB018,*%
%TO.N,*%
X37000000Y-70000000D03*
%TD*%
D14*
%TO.P,N15_R1,1*%
%TO.N,N15_V_m*%
X36690000Y-51300000D03*
%TO.P,N15_R1,2*%
%TO.N,N15_GND*%
X37710000Y-51300000D03*
%TD*%
D13*
%TO.P,CB015,*%
%TO.N,*%
X31000000Y-70000000D03*
%TD*%
D10*
%TO.P,CL016,*%
%TO.N,*%
X0Y-33000000D03*
%TD*%
D13*
%TO.P,CB008,*%
%TO.N,*%
X17000000Y-70000000D03*
%TD*%
D11*
%TO.P,CR006,*%
%TO.N,*%
X70000000Y-13000000D03*
%TD*%
D10*
%TO.P,CL029,*%
%TO.N,*%
X0Y-59000000D03*
%TD*%
%TO.P,CL010,*%
%TO.N,*%
X0Y-21000000D03*
%TD*%
D15*
%TO.P,B14_D2,1*%
%TO.N,B14_LC_MID*%
X44062500Y-61550000D03*
%TO.P,B14_D2,2*%
%TO.N,B14_GND*%
X44062500Y-63450000D03*
%TO.P,B14_D2,3*%
%TO.N,N/C*%
X45937500Y-62500000D03*
%TD*%
D17*
%TO.P,N6_U1,1*%
%TO.N,N6_SPIKE_OUT*%
X24137500Y-21525000D03*
%TO.P,N6_U1,2*%
%TO.N,N6_V_TH*%
X24137500Y-22175000D03*
%TO.P,N6_U1,3*%
%TO.N,N6_V_m*%
X24137500Y-22825000D03*
%TO.P,N6_U1,4*%
%TO.N,N6_GND*%
X24137500Y-23475000D03*
%TO.P,N6_U1,5*%
%TO.N,N/C*%
X29862500Y-23475000D03*
%TO.P,N6_U1,6*%
X29862500Y-22825000D03*
%TO.P,N6_U1,7*%
X29862500Y-22175000D03*
%TO.P,N6_U1,8*%
%TO.N,N6_VDD*%
X29862500Y-21525000D03*
%TD*%
D15*
%TO.P,N10_Q1,1*%
%TO.N,N10_V_m*%
X20062500Y-30450000D03*
%TO.P,N10_Q1,2*%
X20062500Y-32350000D03*
%TO.P,N10_Q1,3*%
%TO.N,N10_VSS*%
X21937500Y-31400000D03*
%TD*%
D12*
%TO.P,CT032,*%
%TO.N,*%
X65000000Y0D03*
%TD*%
D11*
%TO.P,CR016,*%
%TO.N,*%
X70000000Y-33000000D03*
%TD*%
D17*
%TO.P,N10_U1,1*%
%TO.N,N10_SPIKE_OUT*%
X24137500Y-34025000D03*
%TO.P,N10_U1,2*%
%TO.N,N10_V_TH*%
X24137500Y-34675000D03*
%TO.P,N10_U1,3*%
%TO.N,N10_V_m*%
X24137500Y-35325000D03*
%TO.P,N10_U1,4*%
%TO.N,N10_GND*%
X24137500Y-35975000D03*
%TO.P,N10_U1,5*%
%TO.N,N/C*%
X29862500Y-35975000D03*
%TO.P,N10_U1,6*%
X29862500Y-35325000D03*
%TO.P,N10_U1,7*%
X29862500Y-34675000D03*
%TO.P,N10_U1,8*%
%TO.N,N10_VDD*%
X29862500Y-34025000D03*
%TD*%
D13*
%TO.P,CB013,*%
%TO.N,*%
X27000000Y-70000000D03*
%TD*%
D18*
%TO.P,B5_L1,1*%
%TO.N,B5_NODE_A*%
X39925000Y-58000000D03*
%TO.P,B5_L1,2*%
%TO.N,B5_LC_MID*%
X42075000Y-58000000D03*
%TD*%
D12*
%TO.P,CT021,*%
%TO.N,*%
X43000000Y0D03*
%TD*%
D13*
%TO.P,CB012,*%
%TO.N,*%
X25000000Y-70000000D03*
%TD*%
D10*
%TO.P,CL031,*%
%TO.N,*%
X0Y-63000000D03*
%TD*%
D18*
%TO.P,B3_L1,1*%
%TO.N,B3_NODE_A*%
X23925000Y-58000000D03*
%TO.P,B3_L1,2*%
%TO.N,B3_LC_MID*%
X26075000Y-58000000D03*
%TD*%
D14*
%TO.P,N7_R1,1*%
%TO.N,N7_V_m*%
X36690000Y-26300000D03*
%TO.P,N7_R1,2*%
%TO.N,N7_GND*%
X37710000Y-26300000D03*
%TD*%
D12*
%TO.P,CT015,*%
%TO.N,*%
X31000000Y0D03*
%TD*%
D15*
%TO.P,N11_Q1,1*%
%TO.N,N11_V_m*%
X36062500Y-30450000D03*
%TO.P,N11_Q1,2*%
X36062500Y-32350000D03*
%TO.P,N11_Q1,3*%
%TO.N,N11_VSS*%
X37937500Y-31400000D03*
%TD*%
D12*
%TO.P,CT025,*%
%TO.N,*%
X51000000Y0D03*
%TD*%
D14*
%TO.P,N3_R5,1*%
%TO.N,N3_V_TH*%
X45490000Y-13800000D03*
%TO.P,N3_R5,2*%
%TO.N,N3_GND*%
X46510000Y-13800000D03*
%TD*%
D11*
%TO.P,CR014,*%
%TO.N,*%
X70000000Y-29000000D03*
%TD*%
D17*
%TO.P,N16_U1,1*%
%TO.N,N16_SPIKE_OUT*%
X56137500Y-46525000D03*
%TO.P,N16_U1,2*%
%TO.N,N16_V_TH*%
X56137500Y-47175000D03*
%TO.P,N16_U1,3*%
%TO.N,N16_V_m*%
X56137500Y-47825000D03*
%TO.P,N16_U1,4*%
%TO.N,N16_GND*%
X56137500Y-48475000D03*
%TO.P,N16_U1,5*%
%TO.N,N/C*%
X61862500Y-48475000D03*
%TO.P,N16_U1,6*%
X61862500Y-47825000D03*
%TO.P,N16_U1,7*%
X61862500Y-47175000D03*
%TO.P,N16_U1,8*%
%TO.N,N16_VDD*%
X61862500Y-46525000D03*
%TD*%
D14*
%TO.P,N4_R2,1*%
%TO.N,N4_V_m*%
X52690000Y-16050000D03*
%TO.P,N4_R2,2*%
X53710000Y-16050000D03*
%TD*%
D12*
%TO.P,CT026,*%
%TO.N,*%
X53000000Y0D03*
%TD*%
D14*
%TO.P,N2_R6,1*%
%TO.N,N2_VDD*%
X29490000Y-16050000D03*
%TO.P,N2_R6,2*%
%TO.N,N2_SPIKE_OUT*%
X30510000Y-16050000D03*
%TD*%
D16*
%TO.P,N3_C1,1*%
%TO.N,N3_I_ext*%
X42520000Y-6000000D03*
%TO.P,N3_C1,2*%
%TO.N,N3_V_m*%
X43480000Y-6000000D03*
%TD*%
D14*
%TO.P,N13_R1,1*%
%TO.N,N13_V_m*%
X4690000Y-51300000D03*
%TO.P,N13_R1,2*%
%TO.N,N13_GND*%
X5710000Y-51300000D03*
%TD*%
D13*
%TO.P,CB029,*%
%TO.N,*%
X59000000Y-70000000D03*
%TD*%
D15*
%TO.P,N15_Q1,1*%
%TO.N,N15_V_m*%
X36062500Y-42950000D03*
%TO.P,N15_Q1,2*%
X36062500Y-44850000D03*
%TO.P,N15_Q1,3*%
%TO.N,N15_VSS*%
X37937500Y-43900000D03*
%TD*%
D12*
%TO.P,CT003,*%
%TO.N,*%
X7000000Y0D03*
%TD*%
%TO.P,CT020,*%
%TO.N,*%
X41000000Y0D03*
%TD*%
D16*
%TO.P,N13_C1,1*%
%TO.N,N13_I_ext*%
X10520000Y-43500000D03*
%TO.P,N13_C1,2*%
%TO.N,N13_V_m*%
X11480000Y-43500000D03*
%TD*%
D11*
%TO.P,CR017,*%
%TO.N,*%
X70000000Y-35000000D03*
%TD*%
D10*
%TO.P,CL034,*%
%TO.N,*%
X0Y-69000000D03*
%TD*%
D15*
%TO.P,N11_Q2,1*%
%TO.N,N/C*%
X48062500Y-30450000D03*
%TO.P,N11_Q2,2*%
X48062500Y-32350000D03*
%TO.P,N11_Q2,3*%
X49937500Y-31400000D03*
%TD*%
D10*
%TO.P,CL019,*%
%TO.N,*%
X0Y-39000000D03*
%TD*%
D14*
%TO.P,N3_R6,1*%
%TO.N,N3_VDD*%
X45490000Y-16050000D03*
%TO.P,N3_R6,2*%
%TO.N,N3_SPIKE_OUT*%
X46510000Y-16050000D03*
%TD*%
%TO.P,N6_R2,1*%
%TO.N,N6_V_m*%
X20690000Y-28550000D03*
%TO.P,N6_R2,2*%
X21710000Y-28550000D03*
%TD*%
D15*
%TO.P,N9_Q1,1*%
%TO.N,N9_V_m*%
X4062500Y-30450000D03*
%TO.P,N9_Q1,2*%
X4062500Y-32350000D03*
%TO.P,N9_Q1,3*%
%TO.N,N9_VSS*%
X5937500Y-31400000D03*
%TD*%
%TO.P,N14_Q1,1*%
%TO.N,N14_V_m*%
X20062500Y-42950000D03*
%TO.P,N14_Q1,2*%
X20062500Y-44850000D03*
%TO.P,N14_Q1,3*%
%TO.N,N14_VSS*%
X21937500Y-43900000D03*
%TD*%
D14*
%TO.P,N14_R2,1*%
%TO.N,N14_V_m*%
X20690000Y-53550000D03*
%TO.P,N14_R2,2*%
X21710000Y-53550000D03*
%TD*%
D16*
%TO.P,N2_C1,1*%
%TO.N,N2_I_ext*%
X26520000Y-6000000D03*
%TO.P,N2_C1,2*%
%TO.N,N2_V_m*%
X27480000Y-6000000D03*
%TD*%
D14*
%TO.P,N16_R5,1*%
%TO.N,N16_V_TH*%
X61490000Y-51300000D03*
%TO.P,N16_R5,2*%
%TO.N,N16_GND*%
X62510000Y-51300000D03*
%TD*%
D15*
%TO.P,B1_D2,1*%
%TO.N,B1_LC_MID*%
X4062500Y-57050000D03*
%TO.P,B1_D2,2*%
%TO.N,B1_GND*%
X4062500Y-58950000D03*
%TO.P,B1_D2,3*%
%TO.N,N/C*%
X5937500Y-58000000D03*
%TD*%
D16*
%TO.P,N16_C1,1*%
%TO.N,N16_I_ext*%
X58520000Y-43500000D03*
%TO.P,N16_C1,2*%
%TO.N,N16_V_m*%
X59480000Y-43500000D03*
%TD*%
D12*
%TO.P,CT018,*%
%TO.N,*%
X37000000Y0D03*
%TD*%
D14*
%TO.P,N13_R5,1*%
%TO.N,N13_V_TH*%
X13490000Y-51300000D03*
%TO.P,N13_R5,2*%
%TO.N,N13_GND*%
X14510000Y-51300000D03*
%TD*%
D12*
%TO.P,CT017,*%
%TO.N,*%
X35000000Y0D03*
%TD*%
D15*
%TO.P,N12_Q1,1*%
%TO.N,N12_V_m*%
X52062500Y-30450000D03*
%TO.P,N12_Q1,2*%
X52062500Y-32350000D03*
%TO.P,N12_Q1,3*%
%TO.N,N12_VSS*%
X53937500Y-31400000D03*
%TD*%
D13*
%TO.P,CB016,*%
%TO.N,*%
X33000000Y-70000000D03*
%TD*%
D10*
%TO.P,CL033,*%
%TO.N,*%
X0Y-67000000D03*
%TD*%
D11*
%TO.P,CR009,*%
%TO.N,*%
X70000000Y-19000000D03*
%TD*%
D14*
%TO.P,N1_R4,1*%
%TO.N,N1_V_tune*%
X8690000Y-16050000D03*
%TO.P,N1_R4,2*%
%TO.N,N1_V_TH*%
X9710000Y-16050000D03*
%TD*%
D10*
%TO.P,CL012,*%
%TO.N,*%
X0Y-25000000D03*
%TD*%
D14*
%TO.P,N16_R3,1*%
%TO.N,N16_VSS*%
X56690000Y-51300000D03*
%TO.P,N16_R3,2*%
X57710000Y-51300000D03*
%TD*%
D15*
%TO.P,B9_D2,1*%
%TO.N,B9_LC_MID*%
X4062500Y-61550000D03*
%TO.P,B9_D2,2*%
%TO.N,B9_GND*%
X4062500Y-63450000D03*
%TO.P,B9_D2,3*%
%TO.N,N/C*%
X5937500Y-62500000D03*
%TD*%
D13*
%TO.P,CB026,*%
%TO.N,*%
X53000000Y-70000000D03*
%TD*%
D14*
%TO.P,N9_R6,1*%
%TO.N,N9_VDD*%
X13490000Y-41050000D03*
%TO.P,N9_R6,2*%
%TO.N,N9_SPIKE_OUT*%
X14510000Y-41050000D03*
%TD*%
%TO.P,N2_R3,1*%
%TO.N,N2_VSS*%
X24690000Y-13800000D03*
%TO.P,N2_R3,2*%
X25710000Y-13800000D03*
%TD*%
D16*
%TO.P,N9_C1,1*%
%TO.N,N9_I_ext*%
X10520000Y-31000000D03*
%TO.P,N9_C1,2*%
%TO.N,N9_V_m*%
X11480000Y-31000000D03*
%TD*%
D14*
%TO.P,N11_R4,1*%
%TO.N,N11_V_tune*%
X40690000Y-41050000D03*
%TO.P,N11_R4,2*%
%TO.N,N11_V_TH*%
X41710000Y-41050000D03*
%TD*%
D18*
%TO.P,B1_L1,1*%
%TO.N,B1_NODE_A*%
X7925000Y-58000000D03*
%TO.P,B1_L1,2*%
%TO.N,B1_LC_MID*%
X10075000Y-58000000D03*
%TD*%
D16*
%TO.P,N8_C1,1*%
%TO.N,N8_I_ext*%
X58520000Y-18500000D03*
%TO.P,N8_C1,2*%
%TO.N,N8_V_m*%
X59480000Y-18500000D03*
%TD*%
D18*
%TO.P,B2_L1,1*%
%TO.N,B2_NODE_A*%
X15925000Y-58000000D03*
%TO.P,B2_L1,2*%
%TO.N,B2_LC_MID*%
X18075000Y-58000000D03*
%TD*%
D11*
%TO.P,CR019,*%
%TO.N,*%
X70000000Y-39000000D03*
%TD*%
D15*
%TO.P,B3_D2,1*%
%TO.N,B3_LC_MID*%
X20062500Y-57050000D03*
%TO.P,B3_D2,2*%
%TO.N,B3_GND*%
X20062500Y-58950000D03*
%TO.P,B3_D2,3*%
%TO.N,N/C*%
X21937500Y-58000000D03*
%TD*%
%TO.P,N9_Q2,1*%
%TO.N,N/C*%
X16062500Y-30450000D03*
%TO.P,N9_Q2,2*%
X16062500Y-32350000D03*
%TO.P,N9_Q2,3*%
X17937500Y-31400000D03*
%TD*%
D18*
%TO.P,B4_L1,1*%
%TO.N,B4_NODE_A*%
X31925000Y-58000000D03*
%TO.P,B4_L1,2*%
%TO.N,B4_LC_MID*%
X34075000Y-58000000D03*
%TD*%
D15*
%TO.P,B5_D2,1*%
%TO.N,B5_LC_MID*%
X36062500Y-57050000D03*
%TO.P,B5_D2,2*%
%TO.N,B5_GND*%
X36062500Y-58950000D03*
%TO.P,B5_D2,3*%
%TO.N,N/C*%
X37937500Y-58000000D03*
%TD*%
D16*
%TO.P,N15_C1,1*%
%TO.N,N15_I_ext*%
X42520000Y-43500000D03*
%TO.P,N15_C1,2*%
%TO.N,N15_V_m*%
X43480000Y-43500000D03*
%TD*%
D14*
%TO.P,N12_R3,1*%
%TO.N,N12_VSS*%
X56690000Y-38800000D03*
%TO.P,N12_R3,2*%
X57710000Y-38800000D03*
%TD*%
D15*
%TO.P,B6_D2,1*%
%TO.N,B6_LC_MID*%
X44062500Y-57050000D03*
%TO.P,B6_D2,2*%
%TO.N,B6_GND*%
X44062500Y-58950000D03*
%TO.P,B6_D2,3*%
%TO.N,N/C*%
X45937500Y-58000000D03*
%TD*%
D18*
%TO.P,B7_L1,1*%
%TO.N,B7_NODE_A*%
X55925000Y-58000000D03*
%TO.P,B7_L1,2*%
%TO.N,B7_LC_MID*%
X58075000Y-58000000D03*
%TD*%
D15*
%TO.P,B8_D2,1*%
%TO.N,B8_LC_MID*%
X60062500Y-57050000D03*
%TO.P,B8_D2,2*%
%TO.N,B8_GND*%
X60062500Y-58950000D03*
%TO.P,B8_D2,3*%
%TO.N,N/C*%
X61937500Y-58000000D03*
%TD*%
D13*
%TO.P,CB021,*%
%TO.N,*%
X43000000Y-70000000D03*
%TD*%
D18*
%TO.P,B9_L1,1*%
%TO.N,B9_NODE_A*%
X7925000Y-62500000D03*
%TO.P,B9_L1,2*%
%TO.N,B9_LC_MID*%
X10075000Y-62500000D03*
%TD*%
D16*
%TO.P,N6_C1,1*%
%TO.N,N6_I_ext*%
X26520000Y-18500000D03*
%TO.P,N6_C1,2*%
%TO.N,N6_V_m*%
X27480000Y-18500000D03*
%TD*%
D14*
%TO.P,N12_R6,1*%
%TO.N,N12_VDD*%
X61490000Y-41050000D03*
%TO.P,N12_R6,2*%
%TO.N,N12_SPIKE_OUT*%
X62510000Y-41050000D03*
%TD*%
D15*
%TO.P,B10_D2,1*%
%TO.N,B10_LC_MID*%
X12062500Y-61550000D03*
%TO.P,B10_D2,2*%
%TO.N,B10_GND*%
X12062500Y-63450000D03*
%TO.P,B10_D2,3*%
%TO.N,N/C*%
X13937500Y-62500000D03*
%TD*%
D12*
%TO.P,CT009,*%
%TO.N,*%
X19000000Y0D03*
%TD*%
D15*
%TO.P,B11_D2,1*%
%TO.N,B11_LC_MID*%
X20062500Y-61550000D03*
%TO.P,B11_D2,2*%
%TO.N,B11_GND*%
X20062500Y-63450000D03*
%TO.P,B11_D2,3*%
%TO.N,N/C*%
X21937500Y-62500000D03*
%TD*%
%TO.P,B12_D2,1*%
%TO.N,B12_LC_MID*%
X28062500Y-61550000D03*
%TO.P,B12_D2,2*%
%TO.N,B12_GND*%
X28062500Y-63450000D03*
%TO.P,B12_D2,3*%
%TO.N,N/C*%
X29937500Y-62500000D03*
%TD*%
D11*
%TO.P,CR003,*%
%TO.N,*%
X70000000Y-7000000D03*
%TD*%
D18*
%TO.P,B15_L1,1*%
%TO.N,B15_NODE_A*%
X55925000Y-62500000D03*
%TO.P,B15_L1,2*%
%TO.N,B15_LC_MID*%
X58075000Y-62500000D03*
%TD*%
%TO.P,B13_L1,1*%
%TO.N,B13_NODE_A*%
X39925000Y-62500000D03*
%TO.P,B13_L1,2*%
%TO.N,B13_LC_MID*%
X42075000Y-62500000D03*
%TD*%
D12*
%TO.P,CT033,*%
%TO.N,*%
X67000000Y0D03*
%TD*%
D18*
%TO.P,B14_L1,1*%
%TO.N,B14_NODE_A*%
X47925000Y-62500000D03*
%TO.P,B14_L1,2*%
%TO.N,B14_LC_MID*%
X50075000Y-62500000D03*
%TD*%
D17*
%TO.P,N15_U1,1*%
%TO.N,N15_SPIKE_OUT*%
X40137500Y-46525000D03*
%TO.P,N15_U1,2*%
%TO.N,N15_V_TH*%
X40137500Y-47175000D03*
%TO.P,N15_U1,3*%
%TO.N,N15_V_m*%
X40137500Y-47825000D03*
%TO.P,N15_U1,4*%
%TO.N,N15_GND*%
X40137500Y-48475000D03*
%TO.P,N15_U1,5*%
%TO.N,N/C*%
X45862500Y-48475000D03*
%TO.P,N15_U1,6*%
X45862500Y-47825000D03*
%TO.P,N15_U1,7*%
X45862500Y-47175000D03*
%TO.P,N15_U1,8*%
%TO.N,N15_VDD*%
X45862500Y-46525000D03*
%TD*%
D15*
%TO.P,B15_D2,1*%
%TO.N,B15_LC_MID*%
X52062500Y-61550000D03*
%TO.P,B15_D2,2*%
%TO.N,B15_GND*%
X52062500Y-63450000D03*
%TO.P,B15_D2,3*%
%TO.N,N/C*%
X53937500Y-62500000D03*
%TD*%
D17*
%TO.P,N13_U1,1*%
%TO.N,N13_SPIKE_OUT*%
X8137500Y-46525000D03*
%TO.P,N13_U1,2*%
%TO.N,N13_V_TH*%
X8137500Y-47175000D03*
%TO.P,N13_U1,3*%
%TO.N,N13_V_m*%
X8137500Y-47825000D03*
%TO.P,N13_U1,4*%
%TO.N,N13_GND*%
X8137500Y-48475000D03*
%TO.P,N13_U1,5*%
%TO.N,N/C*%
X13862500Y-48475000D03*
%TO.P,N13_U1,6*%
X13862500Y-47825000D03*
%TO.P,N13_U1,7*%
X13862500Y-47175000D03*
%TO.P,N13_U1,8*%
%TO.N,N13_VDD*%
X13862500Y-46525000D03*
%TD*%
D14*
%TO.P,N8_R4,1*%
%TO.N,N8_V_tune*%
X56690000Y-28550000D03*
%TO.P,N8_R4,2*%
%TO.N,N8_V_TH*%
X57710000Y-28550000D03*
%TD*%
D17*
%TO.P,N11_U1,1*%
%TO.N,N11_SPIKE_OUT*%
X40137500Y-34025000D03*
%TO.P,N11_U1,2*%
%TO.N,N11_V_TH*%
X40137500Y-34675000D03*
%TO.P,N11_U1,3*%
%TO.N,N11_V_m*%
X40137500Y-35325000D03*
%TO.P,N11_U1,4*%
%TO.N,N11_GND*%
X40137500Y-35975000D03*
%TO.P,N11_U1,5*%
%TO.N,N/C*%
X45862500Y-35975000D03*
%TO.P,N11_U1,6*%
X45862500Y-35325000D03*
%TO.P,N11_U1,7*%
X45862500Y-34675000D03*
%TO.P,N11_U1,8*%
%TO.N,N11_VDD*%
X45862500Y-34025000D03*
%TD*%
D14*
%TO.P,N6_R5,1*%
%TO.N,N6_V_TH*%
X29490000Y-26300000D03*
%TO.P,N6_R5,2*%
%TO.N,N6_GND*%
X30510000Y-26300000D03*
%TD*%
%TO.P,N8_R1,1*%
%TO.N,N8_V_m*%
X52690000Y-26300000D03*
%TO.P,N8_R1,2*%
%TO.N,N8_GND*%
X53710000Y-26300000D03*
%TD*%
D12*
%TO.P,CT014,*%
%TO.N,*%
X29000000Y0D03*
%TD*%
D11*
%TO.P,CR024,*%
%TO.N,*%
X70000000Y-49000000D03*
%TD*%
D14*
%TO.P,N2_R5,1*%
%TO.N,N2_V_TH*%
X29490000Y-13800000D03*
%TO.P,N2_R5,2*%
%TO.N,N2_GND*%
X30510000Y-13800000D03*
%TD*%
D15*
%TO.P,N5_Q2,1*%
%TO.N,N/C*%
X16062500Y-17950000D03*
%TO.P,N5_Q2,2*%
X16062500Y-19850000D03*
%TO.P,N5_Q2,3*%
X17937500Y-18900000D03*
%TD*%
D18*
%TO.P,B8_L1,1*%
%TO.N,B8_NODE_A*%
X63925000Y-58000000D03*
%TO.P,B8_L1,2*%
%TO.N,B8_LC_MID*%
X66075000Y-58000000D03*
%TD*%
D11*
%TO.P,CR025,*%
%TO.N,*%
X70000000Y-51000000D03*
%TD*%
D10*
%TO.P,CL025,*%
%TO.N,*%
X0Y-51000000D03*
%TD*%
D13*
%TO.P,CB005,*%
%TO.N,*%
X11000000Y-70000000D03*
%TD*%
D14*
%TO.P,N7_R2,1*%
%TO.N,N7_V_m*%
X36690000Y-28550000D03*
%TO.P,N7_R2,2*%
X37710000Y-28550000D03*
%TD*%
%TO.P,N15_R2,1*%
%TO.N,N15_V_m*%
X36690000Y-53550000D03*
%TO.P,N15_R2,2*%
X37710000Y-53550000D03*
%TD*%
D10*
%TO.P,CL015,*%
%TO.N,*%
X0Y-31000000D03*
%TD*%
D14*
%TO.P,N13_R6,1*%
%TO.N,N13_VDD*%
X13490000Y-53550000D03*
%TO.P,N13_R6,2*%
%TO.N,N13_SPIKE_OUT*%
X14510000Y-53550000D03*
%TD*%
%TO.P,N10_R6,1*%
%TO.N,N10_VDD*%
X29490000Y-41050000D03*
%TO.P,N10_R6,2*%
%TO.N,N10_SPIKE_OUT*%
X30510000Y-41050000D03*
%TD*%
%TO.P,N15_R4,1*%
%TO.N,N15_V_tune*%
X40690000Y-53550000D03*
%TO.P,N15_R4,2*%
%TO.N,N15_V_TH*%
X41710000Y-53550000D03*
%TD*%
%TO.P,N14_R1,1*%
%TO.N,N14_V_m*%
X20690000Y-51300000D03*
%TO.P,N14_R1,2*%
%TO.N,N14_GND*%
X21710000Y-51300000D03*
%TD*%
D13*
%TO.P,CB007,*%
%TO.N,*%
X15000000Y-70000000D03*
%TD*%
D16*
%TO.P,N5_C1,1*%
%TO.N,N5_I_ext*%
X10520000Y-18500000D03*
%TO.P,N5_C1,2*%
%TO.N,N5_V_m*%
X11480000Y-18500000D03*
%TD*%
D18*
%TO.P,B10_L1,1*%
%TO.N,B10_NODE_A*%
X15925000Y-62500000D03*
%TO.P,B10_L1,2*%
%TO.N,B10_LC_MID*%
X18075000Y-62500000D03*
%TD*%
D12*
%TO.P,CT031,*%
%TO.N,*%
X63000000Y0D03*
%TD*%
D15*
%TO.P,N2_Q2,1*%
%TO.N,N/C*%
X32062500Y-5450000D03*
%TO.P,N2_Q2,2*%
X32062500Y-7350000D03*
%TO.P,N2_Q2,3*%
X33937500Y-6400000D03*
%TD*%
D13*
%TO.P,CB027,*%
%TO.N,*%
X55000000Y-70000000D03*
%TD*%
D14*
%TO.P,N11_R5,1*%
%TO.N,N11_V_TH*%
X45490000Y-38800000D03*
%TO.P,N11_R5,2*%
%TO.N,N11_GND*%
X46510000Y-38800000D03*
%TD*%
D13*
%TO.P,CB017,*%
%TO.N,*%
X35000000Y-70000000D03*
%TD*%
D12*
%TO.P,CT008,*%
%TO.N,*%
X17000000Y0D03*
%TD*%
D13*
%TO.P,CB033,*%
%TO.N,*%
X67000000Y-70000000D03*
%TD*%
D14*
%TO.P,N9_R4,1*%
%TO.N,N9_V_tune*%
X8690000Y-41050000D03*
%TO.P,N9_R4,2*%
%TO.N,N9_V_TH*%
X9710000Y-41050000D03*
%TD*%
D11*
%TO.P,CR021,*%
%TO.N,*%
X70000000Y-43000000D03*
%TD*%
D12*
%TO.P,CT030,*%
%TO.N,*%
X61000000Y0D03*
%TD*%
D13*
%TO.P,CB025,*%
%TO.N,*%
X51000000Y-70000000D03*
%TD*%
%TO.P,CB030,*%
%TO.N,*%
X61000000Y-70000000D03*
%TD*%
D14*
%TO.P,N5_R6,1*%
%TO.N,N5_VDD*%
X13490000Y-28550000D03*
%TO.P,N5_R6,2*%
%TO.N,N5_SPIKE_OUT*%
X14510000Y-28550000D03*
%TD*%
D11*
%TO.P,CR011,*%
%TO.N,*%
X70000000Y-23000000D03*
%TD*%
D14*
%TO.P,N11_R2,1*%
%TO.N,N11_V_m*%
X36690000Y-41050000D03*
%TO.P,N11_R2,2*%
X37710000Y-41050000D03*
%TD*%
%TO.P,N15_R3,1*%
%TO.N,N15_VSS*%
X40690000Y-51300000D03*
%TO.P,N15_R3,2*%
X41710000Y-51300000D03*
%TD*%
%TO.P,N16_R2,1*%
%TO.N,N16_V_m*%
X52690000Y-53550000D03*
%TO.P,N16_R2,2*%
X53710000Y-53550000D03*
%TD*%
D11*
%TO.P,CR022,*%
%TO.N,*%
X70000000Y-45000000D03*
%TD*%
%TO.P,CR027,*%
%TO.N,*%
X70000000Y-55000000D03*
%TD*%
D10*
%TO.P,CL026,*%
%TO.N,*%
X0Y-53000000D03*
%TD*%
D14*
%TO.P,N3_R3,1*%
%TO.N,N3_VSS*%
X40690000Y-13800000D03*
%TO.P,N3_R3,2*%
X41710000Y-13800000D03*
%TD*%
D11*
%TO.P,CR010,*%
%TO.N,*%
X70000000Y-21000000D03*
%TD*%
D14*
%TO.P,N12_R1,1*%
%TO.N,N12_V_m*%
X52690000Y-38800000D03*
%TO.P,N12_R1,2*%
%TO.N,N12_GND*%
X53710000Y-38800000D03*
%TD*%
%TO.P,N8_R5,1*%
%TO.N,N8_V_TH*%
X61490000Y-26300000D03*
%TO.P,N8_R5,2*%
%TO.N,N8_GND*%
X62510000Y-26300000D03*
%TD*%
%TO.P,N11_R6,1*%
%TO.N,N11_VDD*%
X45490000Y-41050000D03*
%TO.P,N11_R6,2*%
%TO.N,N11_SPIKE_OUT*%
X46510000Y-41050000D03*
%TD*%
D15*
%TO.P,B2_D2,1*%
%TO.N,B2_LC_MID*%
X12062500Y-57050000D03*
%TO.P,B2_D2,2*%
%TO.N,B2_GND*%
X12062500Y-58950000D03*
%TO.P,B2_D2,3*%
%TO.N,N/C*%
X13937500Y-58000000D03*
%TD*%
D14*
%TO.P,N5_R5,1*%
%TO.N,N5_V_TH*%
X13490000Y-26300000D03*
%TO.P,N5_R5,2*%
%TO.N,N5_GND*%
X14510000Y-26300000D03*
%TD*%
D15*
%TO.P,N7_Q1,1*%
%TO.N,N7_V_m*%
X36062500Y-17950000D03*
%TO.P,N7_Q1,2*%
X36062500Y-19850000D03*
%TO.P,N7_Q1,3*%
%TO.N,N7_VSS*%
X37937500Y-18900000D03*
%TD*%
D14*
%TO.P,N15_R6,1*%
%TO.N,N15_VDD*%
X45490000Y-53550000D03*
%TO.P,N15_R6,2*%
%TO.N,N15_SPIKE_OUT*%
X46510000Y-53550000D03*
%TD*%
D13*
%TO.P,CB031,*%
%TO.N,*%
X63000000Y-70000000D03*
%TD*%
D15*
%TO.P,N15_Q2,1*%
%TO.N,N/C*%
X48062500Y-42950000D03*
%TO.P,N15_Q2,2*%
X48062500Y-44850000D03*
%TO.P,N15_Q2,3*%
X49937500Y-43900000D03*
%TD*%
D14*
%TO.P,N8_R6,1*%
%TO.N,N8_VDD*%
X61490000Y-28550000D03*
%TO.P,N8_R6,2*%
%TO.N,N8_SPIKE_OUT*%
X62510000Y-28550000D03*
%TD*%
D11*
%TO.P,CR033,*%
%TO.N,*%
X70000000Y-67000000D03*
%TD*%
%TO.P,CR029,*%
%TO.N,*%
X70000000Y-59000000D03*
%TD*%
D10*
%TO.P,CL009,*%
%TO.N,*%
X0Y-19000000D03*
%TD*%
D15*
%TO.P,N16_Q2,1*%
%TO.N,N/C*%
X64062500Y-42950000D03*
%TO.P,N16_Q2,2*%
X64062500Y-44850000D03*
%TO.P,N16_Q2,3*%
X65937500Y-43900000D03*
%TD*%
D14*
%TO.P,N10_R2,1*%
%TO.N,N10_V_m*%
X20690000Y-41050000D03*
%TO.P,N10_R2,2*%
X21710000Y-41050000D03*
%TD*%
%TO.P,N12_R5,1*%
%TO.N,N12_V_TH*%
X61490000Y-38800000D03*
%TO.P,N12_R5,2*%
%TO.N,N12_GND*%
X62510000Y-38800000D03*
%TD*%
D16*
%TO.P,N4_C1,1*%
%TO.N,N4_I_ext*%
X58520000Y-6000000D03*
%TO.P,N4_C1,2*%
%TO.N,N4_V_m*%
X59480000Y-6000000D03*
%TD*%
D14*
%TO.P,N7_R5,1*%
%TO.N,N7_V_TH*%
X45490000Y-26300000D03*
%TO.P,N7_R5,2*%
%TO.N,N7_GND*%
X46510000Y-26300000D03*
%TD*%
%TO.P,N14_R5,1*%
%TO.N,N14_V_TH*%
X29490000Y-51300000D03*
%TO.P,N14_R5,2*%
%TO.N,N14_GND*%
X30510000Y-51300000D03*
%TD*%
D15*
%TO.P,N4_Q1,1*%
%TO.N,N4_V_m*%
X52062500Y-5450000D03*
%TO.P,N4_Q1,2*%
X52062500Y-7350000D03*
%TO.P,N4_Q1,3*%
%TO.N,N4_VSS*%
X53937500Y-6400000D03*
%TD*%
%TO.P,B13_D2,1*%
%TO.N,B13_LC_MID*%
X36062500Y-61550000D03*
%TO.P,B13_D2,2*%
%TO.N,B13_GND*%
X36062500Y-63450000D03*
%TO.P,B13_D2,3*%
%TO.N,N/C*%
X37937500Y-62500000D03*
%TD*%
D14*
%TO.P,N16_R1,1*%
%TO.N,N16_V_m*%
X52690000Y-51300000D03*
%TO.P,N16_R1,2*%
%TO.N,N16_GND*%
X53710000Y-51300000D03*
%TD*%
D17*
%TO.P,N14_U1,1*%
%TO.N,N14_SPIKE_OUT*%
X24137500Y-46525000D03*
%TO.P,N14_U1,2*%
%TO.N,N14_V_TH*%
X24137500Y-47175000D03*
%TO.P,N14_U1,3*%
%TO.N,N14_V_m*%
X24137500Y-47825000D03*
%TO.P,N14_U1,4*%
%TO.N,N14_GND*%
X24137500Y-48475000D03*
%TO.P,N14_U1,5*%
%TO.N,N/C*%
X29862500Y-48475000D03*
%TO.P,N14_U1,6*%
X29862500Y-47825000D03*
%TO.P,N14_U1,7*%
X29862500Y-47175000D03*
%TO.P,N14_U1,8*%
%TO.N,N14_VDD*%
X29862500Y-46525000D03*
%TD*%
D18*
%TO.P,B6_L1,1*%
%TO.N,B6_NODE_A*%
X47925000Y-58000000D03*
%TO.P,B6_L1,2*%
%TO.N,B6_LC_MID*%
X50075000Y-58000000D03*
%TD*%
D10*
%TO.P,CL002,*%
%TO.N,*%
X0Y-5000000D03*
%TD*%
D14*
%TO.P,N10_R4,1*%
%TO.N,N10_V_tune*%
X24690000Y-41050000D03*
%TO.P,N10_R4,2*%
%TO.N,N10_V_TH*%
X25710000Y-41050000D03*
%TD*%
D19*
%TO.N,N6_SPIKE_OUT*%
X29250300Y-29337000D03*
X27048100Y-21525000D03*
%TO.N,N4_VDD*%
X59139500Y-9025000D03*
X59376600Y-16186600D03*
%TO.N,N7_SPIKE_OUT*%
X42607600Y-21525000D03*
X44327800Y-29169200D03*
%TO.N,N12_SPIKE_OUT*%
X57626000Y-34025000D03*
X59824400Y-41758800D03*
%TO.N,N16_SPIKE_OUT*%
X54670200Y-47078900D03*
X51070000Y-54557300D03*
%TO.N,N10_VDD*%
X28601600Y-40301600D03*
X28601600Y-33440600D03*
%TO.N,N15_SPIKE_OUT*%
X48167200Y-54017200D03*
X43821200Y-47746300D03*
%TO.N,N11_SPIKE_OUT*%
X43823100Y-33537500D03*
X47237300Y-41050000D03*
%TD*%
%TO.N,N6_VDD*%
D20*
X30456000Y-21525000D02*
X31060200Y-22129200D01*
X29862500Y-21525000D02*
X30456000Y-21525000D01*
X31060200Y-22129200D02*
X31060200Y-26979800D01*
X31060200Y-26979800D02*
X29490000Y-28550000D01*
%TO.N,N6_SPIKE_OUT*%
X24137500Y-21525000D02*
X27048100Y-21525000D01*
X30510000Y-28550000D02*
X29723000Y-29337000D01*
X29723000Y-29337000D02*
X29250300Y-29337000D01*
%TO.N,N8_VSS*%
X52814400Y-17395400D02*
X51277300Y-17395400D01*
X53937500Y-18900000D02*
X53937500Y-18518500D01*
X53937500Y-18518500D02*
X52814400Y-17395400D01*
X57710000Y-26300000D02*
X56690000Y-26300000D01*
X51043200Y-17629500D02*
X51043200Y-27784700D01*
X51277300Y-17395400D02*
X51043200Y-17629500D01*
X54038700Y-29130000D02*
X56690000Y-26478700D01*
X51043200Y-27784700D02*
X52388500Y-29130000D01*
X56690000Y-26478700D02*
X56690000Y-26300000D01*
X52388500Y-29130000D02*
X54038700Y-29130000D01*
%TO.N,N4_V_TH*%
X55538500Y-9675000D02*
X55135100Y-9271600D01*
X60983100Y-13800000D02*
X58733200Y-16049900D01*
X62712300Y-16744700D02*
X59128600Y-16744700D01*
X58733200Y-16049900D02*
X58733200Y-16050000D01*
X62492600Y-8395200D02*
X63471100Y-9373700D01*
X59128600Y-16744700D02*
X58733200Y-16349300D01*
X58733200Y-16349300D02*
X58733200Y-16050000D01*
X56137500Y-9675000D02*
X55538500Y-9675000D01*
X55135100Y-9271600D02*
X55135100Y-8749600D01*
X63471100Y-9373700D02*
X63471100Y-15985900D01*
X55135100Y-8749600D02*
X55489500Y-8395200D01*
X61490000Y-13800000D02*
X60983100Y-13800000D01*
X58733200Y-16050000D02*
X57710000Y-16050000D01*
X55489500Y-8395200D02*
X62492600Y-8395200D01*
X63471100Y-15985900D02*
X62712300Y-16744700D01*
%TO.N,N4_GND*%
X53710000Y-13402500D02*
X56137500Y-10975000D01*
X53710000Y-13800000D02*
X53710000Y-13402500D01*
X56137500Y-10975000D02*
X59685000Y-10975000D01*
X59685000Y-10975000D02*
X62510000Y-13800000D01*
%TO.N,N15_V_TH*%
X43240000Y-53550000D02*
X41710000Y-53550000D01*
X45490000Y-51300000D02*
X43240000Y-53550000D01*
X41162200Y-47583400D02*
X41162200Y-49911600D01*
X40165200Y-50908600D02*
X40165200Y-52005200D01*
X40753800Y-47175000D02*
X41162200Y-47583400D01*
X40137500Y-47175000D02*
X40753800Y-47175000D01*
X40165200Y-52005200D02*
X41710000Y-53550000D01*
X41162200Y-49911600D02*
X40165200Y-50908600D01*
%TO.N,N15_GND*%
X37710000Y-51300000D02*
X37710000Y-50902500D01*
X37710000Y-51300000D02*
X37710000Y-51479800D01*
X37710000Y-50902500D02*
X40137500Y-48475000D01*
X37710000Y-51479800D02*
X40389000Y-54158800D01*
X43651200Y-54158800D02*
X46510000Y-51300000D01*
X40389000Y-54158800D02*
X43651200Y-54158800D01*
%TO.N,N4_VDD*%
X61353400Y-16186600D02*
X61490000Y-16050000D01*
X61862500Y-9025000D02*
X59139500Y-9025000D01*
X59376600Y-16186600D02*
X61353400Y-16186600D01*
%TO.N,N4_SPIKE_OUT*%
X63094900Y-13500500D02*
X63094900Y-15465100D01*
X62804800Y-13210400D02*
X63094900Y-13500500D01*
X62464900Y-13210400D02*
X62804800Y-13210400D01*
X56137500Y-9025000D02*
X58279500Y-9025000D01*
X58279500Y-9025000D02*
X62464900Y-13210400D01*
X63094900Y-15465100D02*
X62510000Y-16050000D01*
%TO.N,N16_V_TH*%
X56780600Y-47175000D02*
X57177300Y-47571700D01*
X57177300Y-49346800D02*
X56149100Y-50375000D01*
X56137500Y-47175000D02*
X56780600Y-47175000D01*
X56149100Y-50375000D02*
X56149100Y-51989100D01*
X59240000Y-53550000D02*
X57710000Y-53550000D01*
X57177300Y-47571700D02*
X57177300Y-49346800D01*
X61490000Y-51300000D02*
X59240000Y-53550000D01*
X56149100Y-51989100D02*
X57710000Y-53550000D01*
%TO.N,N10_V_m*%
X20062500Y-32350000D02*
X20062500Y-30450000D01*
X24137500Y-35325000D02*
X23037500Y-35325000D01*
X22042800Y-34330300D02*
X20062500Y-32350000D01*
X23037500Y-35325000D02*
X20690000Y-37672500D01*
X20690000Y-37672500D02*
X20690000Y-38800000D01*
X20690000Y-41050000D02*
X20690000Y-38800000D01*
X21710000Y-41050000D02*
X20690000Y-41050000D01*
X23523900Y-32849200D02*
X22042800Y-34330300D01*
X25630800Y-32849200D02*
X23523900Y-32849200D01*
X23037500Y-35325000D02*
X22042800Y-34330300D01*
X27480000Y-31000000D02*
X25630800Y-32849200D01*
%TO.N,N1_VSS*%
X5937500Y-6400000D02*
X6769900Y-6400000D01*
X6769900Y-6400000D02*
X9885800Y-9515900D01*
X9885800Y-13624200D02*
X9710000Y-13800000D01*
X9885800Y-9515900D02*
X9885800Y-13624200D01*
X9710000Y-13800000D02*
X8690000Y-13800000D01*
%TO.N,N8_V_m*%
X52690000Y-26300000D02*
X52690000Y-28550000D01*
X54291500Y-22078900D02*
X55669500Y-20700900D01*
X55037500Y-22825000D02*
X54291500Y-22078900D01*
X54291500Y-22078900D02*
X52062500Y-19850000D01*
X56137500Y-22825000D02*
X55037500Y-22825000D01*
X52062500Y-19850000D02*
X52062500Y-17950000D01*
X55037500Y-22825000D02*
X52690000Y-25172500D01*
X55669500Y-20700900D02*
X57279100Y-20700900D01*
X57279100Y-20700900D02*
X59480000Y-18500000D01*
X52690000Y-25172500D02*
X52690000Y-26300000D01*
X53710000Y-28550000D02*
X52690000Y-28550000D01*
%TO.N,N9_V_m*%
X7037500Y-35325000D02*
X6291500Y-34578900D01*
X4690000Y-37672500D02*
X4690000Y-38800000D01*
X4062500Y-32350000D02*
X4062500Y-30450000D01*
X9885800Y-32592200D02*
X9277100Y-33200900D01*
X9277100Y-33200900D02*
X7669500Y-33200900D01*
X7037500Y-35325000D02*
X4690000Y-37672500D01*
X8137500Y-35325000D02*
X7037500Y-35325000D01*
X7669500Y-33200900D02*
X6291500Y-34578900D01*
X4690000Y-38800000D02*
X4690000Y-41050000D01*
X6291500Y-34578900D02*
X4062500Y-32350000D01*
X5710000Y-41050000D02*
X4690000Y-41050000D01*
X9887800Y-32592200D02*
X9885800Y-32592200D01*
X11480000Y-31000000D02*
X9887800Y-32592200D01*
%TO.N,N6_V_m*%
X23037500Y-22825000D02*
X22291500Y-22078900D01*
X24137500Y-22825000D02*
X23037500Y-22825000D01*
X23669500Y-20700900D02*
X25279100Y-20700900D01*
X21710000Y-28550000D02*
X20690000Y-28550000D01*
X20690000Y-25172500D02*
X20690000Y-26300000D01*
X25279100Y-20700900D02*
X27480000Y-18500000D01*
X20690000Y-28550000D02*
X20690000Y-26300000D01*
X22291500Y-22078900D02*
X23669500Y-20700900D01*
X23037500Y-22825000D02*
X20690000Y-25172500D01*
X22291500Y-22078900D02*
X20062500Y-19850000D01*
X20062500Y-19850000D02*
X20062500Y-17950000D01*
%TO.N,N6_GND*%
X21710000Y-26300000D02*
X21710000Y-26527300D01*
X27687800Y-29122200D02*
X30510000Y-26300000D01*
X24304900Y-29122200D02*
X27687800Y-29122200D01*
X21710000Y-26527300D02*
X24304900Y-29122200D01*
X21710000Y-26300000D02*
X21710000Y-25902500D01*
X21710000Y-25902500D02*
X24137500Y-23475000D01*
%TO.N,N4_V_m*%
X52690000Y-13800000D02*
X52690000Y-12595100D01*
X53710000Y-16050000D02*
X52690000Y-16050000D01*
X54979000Y-5431100D02*
X58911100Y-5431100D01*
X52062500Y-7350000D02*
X52062500Y-5450000D01*
X58911100Y-5431100D02*
X59480000Y-6000000D01*
X54960100Y-5450000D02*
X52062500Y-5450000D01*
X52690000Y-16050000D02*
X52690000Y-13800000D01*
X54960100Y-5450000D02*
X54960100Y-8252100D01*
X54763000Y-8449200D02*
X54763000Y-10127900D01*
X54960100Y-8252100D02*
X54763000Y-8449200D01*
X54960100Y-5450000D02*
X54979000Y-5431100D01*
X52690000Y-12595100D02*
X54960100Y-10325000D01*
X56137500Y-10325000D02*
X54960100Y-10325000D01*
X54763000Y-10127900D02*
X54960100Y-10325000D01*
%TO.N,N14_V_m*%
X23037500Y-47825000D02*
X22291500Y-47078900D01*
X20690000Y-50172500D02*
X20690000Y-51300000D01*
X24465800Y-45699400D02*
X24464300Y-45700900D01*
X25278600Y-45699400D02*
X24465800Y-45699400D01*
X24137500Y-47825000D02*
X23037500Y-47825000D01*
X21710000Y-53550000D02*
X20690000Y-53550000D01*
X24464300Y-45700900D02*
X23669500Y-45700900D01*
X20690000Y-51300000D02*
X20690000Y-53550000D01*
X25887800Y-45092200D02*
X25885800Y-45092200D01*
X22291500Y-47078900D02*
X20062500Y-44850000D01*
X25885800Y-45092200D02*
X25278600Y-45699400D01*
X23037500Y-47825000D02*
X20690000Y-50172500D01*
X27480000Y-43500000D02*
X25887800Y-45092200D01*
X23669500Y-45700900D02*
X22291500Y-47078900D01*
X20062500Y-44850000D02*
X20062500Y-42950000D01*
%TO.N,N16_V_m*%
X59480000Y-43500000D02*
X57279100Y-45700900D01*
X54118500Y-46850500D02*
X54063000Y-46850500D01*
X57279100Y-45700900D02*
X55268100Y-45700900D01*
X52062500Y-44850000D02*
X52062500Y-42950000D01*
X54118500Y-46850500D02*
X54118500Y-47307300D01*
X53710000Y-53550000D02*
X52690000Y-53550000D01*
X55268100Y-45700900D02*
X54118500Y-46850500D01*
X54636200Y-47825000D02*
X56137500Y-47825000D01*
X52690000Y-51300000D02*
X52690000Y-53550000D01*
X54636200Y-49353800D02*
X52690000Y-51300000D01*
X54063000Y-46850500D02*
X52062500Y-44850000D01*
X54118500Y-47307300D02*
X54636200Y-47825000D01*
X54636200Y-47825000D02*
X54636200Y-49353800D01*
%TO.N,N16_VSS*%
X57710000Y-51300000D02*
X60064000Y-48946000D01*
X54955200Y-42882300D02*
X53937500Y-43900000D01*
X60064000Y-48946000D02*
X60064000Y-43154200D01*
X60064000Y-43154200D02*
X59792100Y-42882300D01*
X59792100Y-42882300D02*
X54955200Y-42882300D01*
X57710000Y-51300000D02*
X56690000Y-51300000D01*
%TO.N,N14_VDD*%
X29862500Y-46525000D02*
X30456000Y-46525000D01*
X31060100Y-51979900D02*
X29490000Y-53550000D01*
X30456000Y-46525000D02*
X31060100Y-47129100D01*
X31060100Y-47129100D02*
X31060100Y-51979900D01*
%TO.N,N14_SPIKE_OUT*%
X24165200Y-51651600D02*
X24425900Y-51912300D01*
X30618800Y-46045000D02*
X31419500Y-46845700D01*
X31419500Y-52640500D02*
X30510000Y-53550000D01*
X26004200Y-51912300D02*
X28510600Y-49405900D01*
X28510600Y-49405900D02*
X28510600Y-46623200D01*
X24425900Y-51912300D02*
X26004200Y-51912300D01*
X31419500Y-46845700D02*
X31419500Y-52640500D01*
X25512400Y-49561400D02*
X24165200Y-50908600D01*
X24137500Y-46525000D02*
X24756300Y-46525000D01*
X24756300Y-46525000D02*
X25512400Y-47281100D01*
X28510600Y-46623200D02*
X29088800Y-46045000D01*
X24165200Y-50908600D02*
X24165200Y-51651600D01*
X29088800Y-46045000D02*
X30618800Y-46045000D01*
X25512400Y-47281100D02*
X25512400Y-49561400D01*
%TO.N,N13_V_m*%
X9277100Y-45700900D02*
X7669500Y-45700900D01*
X4062500Y-44850000D02*
X4062500Y-42950000D01*
X5710000Y-53550000D02*
X4690000Y-53550000D01*
X4690000Y-50172500D02*
X4690000Y-51300000D01*
X7037500Y-47825000D02*
X4690000Y-50172500D01*
X7669500Y-45700900D02*
X6291500Y-47078900D01*
X4690000Y-51300000D02*
X4690000Y-53550000D01*
X7037500Y-47825000D02*
X6291500Y-47078900D01*
X6291500Y-47078900D02*
X4062500Y-44850000D01*
X9887800Y-45092200D02*
X9885800Y-45092200D01*
X11480000Y-43500000D02*
X9887800Y-45092200D01*
X9885800Y-45092200D02*
X9277100Y-45700900D01*
X8137500Y-47825000D02*
X7037500Y-47825000D01*
%TO.N,N13_VSS*%
X5937500Y-43900000D02*
X6934600Y-42902900D01*
X6934600Y-42902900D02*
X11753600Y-42902900D01*
X12046100Y-43195400D02*
X12046100Y-48963900D01*
X11753600Y-42902900D02*
X12046100Y-43195400D01*
X12046100Y-48963900D02*
X9710000Y-51300000D01*
X9710000Y-51300000D02*
X8690000Y-51300000D01*
%TO.N,N7_VDD*%
X46456000Y-21525000D02*
X47060200Y-22129200D01*
X47060200Y-26979800D02*
X45490000Y-28550000D01*
X47060200Y-22129200D02*
X47060200Y-26979800D01*
X45862500Y-21525000D02*
X46456000Y-21525000D01*
%TO.N,N7_SPIKE_OUT*%
X40137500Y-21525000D02*
X42607600Y-21525000D01*
X46510000Y-28550000D02*
X45890800Y-29169200D01*
X45890800Y-29169200D02*
X44327800Y-29169200D01*
%TO.N,N10_VSS*%
X19043200Y-30160300D02*
X19043200Y-40284700D01*
X20388500Y-41630000D02*
X22038700Y-41630000D01*
X19043200Y-40284700D02*
X20388500Y-41630000D01*
X21937500Y-31400000D02*
X21937500Y-30939500D01*
X25710000Y-38800000D02*
X24690000Y-38800000D01*
X22038700Y-41630000D02*
X24690000Y-38978700D01*
X19308500Y-29895000D02*
X19043200Y-30160300D01*
X24690000Y-38978700D02*
X24690000Y-38800000D01*
X21937500Y-30939500D02*
X20893000Y-29895000D01*
X20893000Y-29895000D02*
X19308500Y-29895000D01*
%TO.N,N10_GND*%
X21710000Y-38800000D02*
X21710000Y-38402500D01*
X25712800Y-37550300D02*
X29260300Y-37550300D01*
X21710000Y-38402500D02*
X24137500Y-35975000D01*
X24137500Y-35975000D02*
X25712800Y-37550300D01*
X29260300Y-37550300D02*
X30510000Y-38800000D01*
%TO.N,N9_SPIKE_OUT*%
X14619000Y-33544900D02*
X15428400Y-34354300D01*
X12511500Y-36905400D02*
X12511500Y-34123000D01*
X9541300Y-34810000D02*
X9541300Y-37032500D01*
X9541300Y-37032500D02*
X8165100Y-38408700D01*
X8165100Y-39151400D02*
X8425600Y-39411900D01*
X8756300Y-34025000D02*
X9541300Y-34810000D01*
X15428400Y-34354300D02*
X15428400Y-40131600D01*
X8137500Y-34025000D02*
X8756300Y-34025000D01*
X8425600Y-39411900D02*
X10005000Y-39411900D01*
X8165100Y-38408700D02*
X8165100Y-39151400D01*
X12511500Y-34123000D02*
X13089600Y-33544900D01*
X10005000Y-39411900D02*
X12511500Y-36905400D01*
X15428400Y-40131600D02*
X14510000Y-41050000D01*
X13089600Y-33544900D02*
X14619000Y-33544900D01*
%TO.N,N9_V_TH*%
X8137500Y-34675000D02*
X8753800Y-34675000D01*
X13490000Y-38800000D02*
X11240000Y-41050000D01*
X9055200Y-40395200D02*
X9710000Y-41050000D01*
X9162200Y-35083400D02*
X9162200Y-36914300D01*
X8753800Y-34675000D02*
X9162200Y-35083400D01*
X11240000Y-41050000D02*
X9710000Y-41050000D01*
X9162200Y-36914300D02*
X7813400Y-38263100D01*
X8806500Y-40395200D02*
X9055200Y-40395200D01*
X7813400Y-38263100D02*
X7813400Y-39402100D01*
X7813400Y-39402100D02*
X8806500Y-40395200D01*
%TO.N,N9_GND*%
X5710000Y-38800000D02*
X5710000Y-39027300D01*
X5710000Y-39027300D02*
X8304900Y-41622200D01*
X5710000Y-38402500D02*
X8137500Y-35975000D01*
X5710000Y-38800000D02*
X5710000Y-38402500D01*
X11687800Y-41622200D02*
X14510000Y-38800000D01*
X8304900Y-41622200D02*
X11687800Y-41622200D01*
%TO.N,N9_VDD*%
X15060200Y-34629200D02*
X15060200Y-39479800D01*
X14456000Y-34025000D02*
X15060200Y-34629200D01*
X13862500Y-34025000D02*
X14456000Y-34025000D01*
X15060200Y-39479800D02*
X13490000Y-41050000D01*
%TO.N,N3_V_m*%
X36062500Y-5450000D02*
X36142500Y-5370000D01*
X42850000Y-5370000D02*
X43480000Y-6000000D01*
X36690000Y-13800000D02*
X36690000Y-10325000D01*
X37710000Y-16050000D02*
X36690000Y-16050000D01*
X36690000Y-10325000D02*
X36690000Y-10125600D01*
D21*
X36062500Y-10125600D02*
X36690000Y-10125600D01*
D20*
X36062500Y-7350000D02*
X36062500Y-5450000D01*
X36142500Y-5370000D02*
X42850000Y-5370000D01*
D21*
X36690000Y-10325000D02*
X40137500Y-10325000D01*
D20*
X36690000Y-13800000D02*
X36690000Y-16050000D01*
X36062500Y-7350000D02*
X36062500Y-10125600D01*
%TO.N,N7_V_TH*%
X40165200Y-25908600D02*
X40165200Y-27005200D01*
X40753800Y-22175000D02*
X41162200Y-22583400D01*
X40165200Y-27005200D02*
X41710000Y-28550000D01*
X43240000Y-28550000D02*
X41710000Y-28550000D01*
X41162200Y-24911600D02*
X40165200Y-25908600D01*
X45490000Y-26300000D02*
X43240000Y-28550000D01*
X41162200Y-22583400D02*
X41162200Y-24911600D01*
X40137500Y-22175000D02*
X40753800Y-22175000D01*
%TO.N,N14_V_TH*%
X25160600Y-49415900D02*
X23813500Y-50763000D01*
X27240000Y-53550000D02*
X25710000Y-53550000D01*
X25055300Y-52895300D02*
X25710000Y-53550000D01*
X25160600Y-47581800D02*
X25160600Y-49415900D01*
X24806600Y-52895300D02*
X25055300Y-52895300D01*
X23813500Y-50763000D02*
X23813500Y-51902200D01*
X24753800Y-47175000D02*
X25160600Y-47581800D01*
X23813500Y-51902200D02*
X24806600Y-52895300D01*
X24137500Y-47175000D02*
X24753800Y-47175000D01*
X29490000Y-51300000D02*
X27240000Y-53550000D01*
%TO.N,N6_VSS*%
X25710000Y-26300000D02*
X24690000Y-26300000D01*
X21937500Y-18900000D02*
X22950400Y-17887100D01*
X27737800Y-17887100D02*
X28046100Y-18195400D01*
X22950400Y-17887100D02*
X27737800Y-17887100D01*
X28046100Y-18195400D02*
X28046100Y-23963900D01*
X28046100Y-23963900D02*
X25710000Y-26300000D01*
%TO.N,N1_V_m*%
X4062500Y-5450000D02*
X4142500Y-5370000D01*
X5710000Y-16050000D02*
X4690000Y-16050000D01*
X7037500Y-10325000D02*
X4062500Y-7350000D01*
X10850000Y-5370000D02*
X11480000Y-6000000D01*
X4142500Y-5370000D02*
X10850000Y-5370000D01*
X7037500Y-10325000D02*
X4690000Y-12672500D01*
X8137500Y-10325000D02*
X7037500Y-10325000D01*
X4062500Y-7350000D02*
X4062500Y-5450000D01*
X4690000Y-12672500D02*
X4690000Y-13800000D01*
X4690000Y-16050000D02*
X4690000Y-13800000D01*
%TO.N,N5_VSS*%
X5937500Y-18900000D02*
X6934600Y-17902900D01*
X6934600Y-17902900D02*
X11753600Y-17902900D01*
X12046100Y-18195400D02*
X12046100Y-23963900D01*
X11753600Y-17902900D02*
X12046100Y-18195400D01*
X9710000Y-26300000D02*
X8690000Y-26300000D01*
X12046100Y-23963900D02*
X9710000Y-26300000D01*
%TO.N,N12_SPIKE_OUT*%
X61801200Y-41758800D02*
X62510000Y-41050000D01*
X59824400Y-41758800D02*
X61801200Y-41758800D01*
X56137500Y-34025000D02*
X57626000Y-34025000D01*
%TO.N,N12_V_TH*%
X56137500Y-34675000D02*
X56753800Y-34675000D01*
X56165200Y-38408600D02*
X56165200Y-39505200D01*
X56753800Y-34675000D02*
X57162200Y-35083400D01*
X61490000Y-38800000D02*
X59240000Y-41050000D01*
X59240000Y-41050000D02*
X57710000Y-41050000D01*
X56165200Y-39505200D02*
X57710000Y-41050000D01*
X57162200Y-35083400D02*
X57162200Y-37411600D01*
X57162200Y-37411600D02*
X56165200Y-38408600D01*
%TO.N,N12_V_m*%
X55037500Y-35325000D02*
X52690000Y-37672500D01*
X52690000Y-38800000D02*
X52690000Y-41050000D01*
X55037500Y-35325000D02*
X54291500Y-34578900D01*
X57277100Y-33200900D02*
X55669500Y-33200900D01*
X57885800Y-32592200D02*
X57277100Y-33200900D01*
X52690000Y-37672500D02*
X52690000Y-38800000D01*
X53710000Y-41050000D02*
X52690000Y-41050000D01*
X52062500Y-32350000D02*
X52062500Y-30450000D01*
X57887800Y-32592200D02*
X57885800Y-32592200D01*
X55669500Y-33200900D02*
X54291500Y-34578900D01*
X59480000Y-31000000D02*
X57887800Y-32592200D01*
X56137500Y-35325000D02*
X55037500Y-35325000D01*
X54291500Y-34578900D02*
X52062500Y-32350000D01*
%TO.N,N12_GND*%
X59596000Y-41207100D02*
X59181000Y-41622100D01*
X53710000Y-38800000D02*
X53710000Y-38402500D01*
X60102900Y-41207100D02*
X59596000Y-41207100D01*
X53710000Y-38402500D02*
X56137500Y-35975000D01*
X59181000Y-41622200D02*
X56304900Y-41622200D01*
X56304900Y-41622200D02*
X53710000Y-39027300D01*
X59181000Y-41622100D02*
X59181000Y-41622200D01*
X62510000Y-38800000D02*
X60102900Y-41207100D01*
X53710000Y-39027300D02*
X53710000Y-38800000D01*
%TO.N,N12_VDD*%
X61862500Y-34025000D02*
X62474900Y-34025000D01*
X63037200Y-39502800D02*
X61490000Y-41050000D01*
X62474900Y-34025000D02*
X63037200Y-34587300D01*
X63037200Y-34587300D02*
X63037200Y-39502800D01*
%TO.N,N5_V_m*%
X9277100Y-20700900D02*
X7669500Y-20700900D01*
X4690000Y-26300000D02*
X4690000Y-28550000D01*
X8137500Y-22825000D02*
X7037500Y-22825000D01*
X7037500Y-22825000D02*
X4690000Y-25172500D01*
X4690000Y-25172500D02*
X4690000Y-26300000D01*
X9885800Y-20092200D02*
X9277100Y-20700900D01*
X9887800Y-20092200D02*
X9885800Y-20092200D01*
X7669500Y-20700900D02*
X6291500Y-22078900D01*
X7037500Y-22825000D02*
X6291500Y-22078900D01*
X11480000Y-18500000D02*
X9887800Y-20092200D01*
X6291500Y-22078900D02*
X4062500Y-19850000D01*
X4062500Y-19850000D02*
X4062500Y-17950000D01*
X5710000Y-28550000D02*
X4690000Y-28550000D01*
%TO.N,N9_VSS*%
X9710000Y-38800000D02*
X8690000Y-38800000D01*
X5937500Y-31400000D02*
X6934600Y-30402900D01*
X12046100Y-30695400D02*
X12046100Y-36463900D01*
X12046100Y-36463900D02*
X9710000Y-38800000D01*
X11753600Y-30402900D02*
X12046100Y-30695400D01*
X6934600Y-30402900D02*
X11753600Y-30402900D01*
%TO.N,N7_VSS*%
X44078100Y-18159200D02*
X43803700Y-17884800D01*
X44078100Y-23931900D02*
X44078100Y-18159200D01*
X43803700Y-17884800D02*
X38952700Y-17884800D01*
X38952700Y-17884800D02*
X37937500Y-18900000D01*
X41710000Y-26300000D02*
X40690000Y-26300000D01*
X41710000Y-26300000D02*
X44078100Y-23931900D01*
%TO.N,N5_V_TH*%
X13490000Y-26300000D02*
X11240000Y-28550000D01*
X9162200Y-24414300D02*
X7813500Y-25763000D01*
X11240000Y-28550000D02*
X9710000Y-28550000D01*
X8806600Y-27895300D02*
X9055300Y-27895300D01*
X7813500Y-25763000D02*
X7813500Y-26902200D01*
X9162200Y-22583400D02*
X9162200Y-24414300D01*
X8137500Y-22175000D02*
X8753800Y-22175000D01*
X8753800Y-22175000D02*
X9162200Y-22583400D01*
X9055300Y-27895300D02*
X9710000Y-28550000D01*
X7813500Y-26902200D02*
X8806600Y-27895300D01*
%TO.N,B12_LC_MID*%
X32700700Y-61125700D02*
X34075000Y-62500000D01*
X28062500Y-61550000D02*
X28486800Y-61125700D01*
X28486800Y-61125700D02*
X32700700Y-61125700D01*
%TO.N,N5_SPIKE_OUT*%
X8756300Y-21525000D02*
X9541300Y-22310000D01*
X8453200Y-26939600D02*
X10014300Y-26939600D01*
X15437900Y-21812400D02*
X15437900Y-27622100D01*
X12511500Y-21614600D02*
X13053200Y-21072900D01*
X8165200Y-25908600D02*
X8165200Y-26651600D01*
X12511500Y-24442400D02*
X12511500Y-21614600D01*
X10014300Y-26939600D02*
X12511500Y-24442400D01*
X9541300Y-24532500D02*
X8165200Y-25908600D01*
X9541300Y-22310000D02*
X9541300Y-24532500D01*
X8165200Y-26651600D02*
X8453200Y-26939600D01*
X15437900Y-27622100D02*
X14510000Y-28550000D01*
X14698400Y-21072900D02*
X15437900Y-21812400D01*
X13053200Y-21072900D02*
X14698400Y-21072900D01*
X8137500Y-21525000D02*
X8756300Y-21525000D01*
%TO.N,N5_GND*%
X5710000Y-26300000D02*
X5710000Y-25902500D01*
X11687800Y-29122200D02*
X14510000Y-26300000D01*
X5710000Y-25902500D02*
X8137500Y-23475000D01*
X5710000Y-26527300D02*
X8304900Y-29122200D01*
X8304900Y-29122200D02*
X11687800Y-29122200D01*
X5710000Y-26300000D02*
X5710000Y-26527300D01*
%TO.N,N5_VDD*%
X13862500Y-21525000D02*
X14456000Y-21525000D01*
X15060200Y-26979800D02*
X13490000Y-28550000D01*
X14456000Y-21525000D02*
X15060200Y-22129200D01*
X15060200Y-22129200D02*
X15060200Y-26979800D01*
%TO.N,N3_SPIKE_OUT*%
X40137500Y-9025000D02*
X40617600Y-8544900D01*
X40617600Y-8544900D02*
X46680900Y-8544900D01*
X46680900Y-8544900D02*
X47455600Y-9319600D01*
X47455600Y-15104400D02*
X46510000Y-16050000D01*
X47455600Y-9319600D02*
X47455600Y-15104400D01*
%TO.N,N3_V_TH*%
X45490000Y-13800000D02*
X41365000Y-9675000D01*
X41880500Y-15904400D02*
X41880500Y-16050000D01*
X41365000Y-9675000D02*
X40137500Y-9675000D01*
X43561300Y-15728700D02*
X43530900Y-15698300D01*
X42086600Y-15698300D02*
X41880500Y-15904400D01*
X43530900Y-15698300D02*
X42086600Y-15698300D01*
X41880500Y-16050000D02*
X41710000Y-16050000D01*
X45490000Y-13800000D02*
X43561300Y-15728700D01*
%TO.N,N3_GND*%
X40137500Y-11287900D02*
X40179800Y-11330200D01*
X41068600Y-15357600D02*
X40468300Y-15357600D01*
X37710000Y-13800000D02*
X40179800Y-11330200D01*
X42257400Y-14168800D02*
X41068600Y-15357600D01*
X42257400Y-13407800D02*
X42257400Y-14168800D01*
X42055600Y-16638200D02*
X42468800Y-16225000D01*
X42468800Y-16225000D02*
X44085000Y-16225000D01*
X40137500Y-10975000D02*
X40137500Y-11287900D01*
X44085000Y-16225000D02*
X46510000Y-13800000D01*
X40468300Y-15357600D02*
X40108200Y-15717700D01*
X40108200Y-15717700D02*
X40108200Y-16389000D01*
X40179800Y-11330200D02*
X42257400Y-13407800D01*
X40108200Y-16389000D02*
X40357400Y-16638200D01*
X40357400Y-16638200D02*
X42055600Y-16638200D01*
%TO.N,N3_VDD*%
X47060200Y-9629200D02*
X47060200Y-14479800D01*
X45862500Y-9025000D02*
X46456000Y-9025000D01*
X47060200Y-14479800D02*
X45490000Y-16050000D01*
X46456000Y-9025000D02*
X47060200Y-9629200D01*
%TO.N,N10_V_TH*%
X29317400Y-36723000D02*
X29880600Y-36723000D01*
X29298800Y-38800000D02*
X27789700Y-40309100D01*
X23127700Y-33742700D02*
X23307700Y-33562700D01*
X23127700Y-34278700D02*
X23127700Y-33742700D01*
X29880600Y-36723000D02*
X31454100Y-38296500D01*
X31454100Y-38296500D02*
X31454100Y-41007300D01*
X23524000Y-34675000D02*
X23127700Y-34278700D01*
X29132700Y-41652200D02*
X27789700Y-40309100D01*
X26157100Y-33562700D02*
X29317400Y-36723000D01*
X23307700Y-33562700D02*
X26157100Y-33562700D01*
X27789700Y-40309100D02*
X27048800Y-41050000D01*
X24137500Y-34675000D02*
X23524000Y-34675000D01*
X31454100Y-41007300D02*
X30809200Y-41652200D01*
X30809200Y-41652200D02*
X29132700Y-41652200D01*
X29490000Y-38800000D02*
X29298800Y-38800000D01*
X27048800Y-41050000D02*
X25710000Y-41050000D01*
%TO.N,B11_LC_MID*%
X24700700Y-61125700D02*
X26075000Y-62500000D01*
X20486800Y-61125700D02*
X24700700Y-61125700D01*
X20062500Y-61550000D02*
X20486800Y-61125700D01*
%TO.N,N7_V_m*%
X41641400Y-20338600D02*
X41639400Y-20338600D01*
X43480000Y-18500000D02*
X41641400Y-20338600D01*
X36690000Y-28550000D02*
X36690000Y-26300000D01*
X36062500Y-19850000D02*
X36062500Y-17950000D01*
X37710000Y-28550000D02*
X36690000Y-28550000D01*
X41639400Y-20338600D02*
X41277100Y-20700900D01*
X36690000Y-25172500D02*
X36690000Y-26300000D01*
X40137500Y-22825000D02*
X39037500Y-22825000D01*
X41277100Y-20700900D02*
X39669500Y-20700900D01*
X39037500Y-22825000D02*
X36690000Y-25172500D01*
X39669500Y-20700900D02*
X38291500Y-22078900D01*
X39037500Y-22825000D02*
X38291500Y-22078900D01*
X38291500Y-22078900D02*
X36062500Y-19850000D01*
%TO.N,N11_V_m*%
X40137500Y-35325000D02*
X39037500Y-35325000D01*
X38291500Y-34579000D02*
X36062500Y-32350000D01*
X40021300Y-32849200D02*
X38291500Y-34579000D01*
X37710000Y-41050000D02*
X36690000Y-41050000D01*
X36062500Y-32350000D02*
X36062500Y-30450000D01*
X36690000Y-41050000D02*
X36690000Y-38800000D01*
X36690000Y-37672500D02*
X36690000Y-38800000D01*
X43480000Y-31000000D02*
X41630800Y-32849200D01*
X41630800Y-32849200D02*
X40021300Y-32849200D01*
X39037500Y-35325000D02*
X36690000Y-37672500D01*
X39037500Y-35325000D02*
X38291500Y-34579000D01*
%TO.N,N1_GND*%
X11687800Y-16622200D02*
X14510000Y-13800000D01*
X5710000Y-13800000D02*
X5710000Y-14027300D01*
X5710000Y-13800000D02*
X5710000Y-13402500D01*
X5710000Y-13402500D02*
X8137500Y-10975000D01*
X8304900Y-16622200D02*
X11687800Y-16622200D01*
X5710000Y-14027300D02*
X8304900Y-16622200D01*
%TO.N,B4_LC_MID*%
X28062500Y-57050000D02*
X28490400Y-56622100D01*
X32697100Y-56622100D02*
X34075000Y-58000000D01*
X28490400Y-56622100D02*
X32697100Y-56622100D01*
%TO.N,N1_V_TH*%
X13490000Y-13800000D02*
X11240000Y-16050000D01*
X7797400Y-13090900D02*
X7797400Y-14386100D01*
X11240000Y-16050000D02*
X9710000Y-16050000D01*
X8137500Y-9675000D02*
X8755100Y-9675000D01*
X8798500Y-15387200D02*
X9047200Y-15387200D01*
X9127100Y-11761200D02*
X7797400Y-13090900D01*
X9127100Y-10047000D02*
X9127100Y-11761200D01*
X8755100Y-9675000D02*
X9127100Y-10047000D01*
X7797400Y-14386100D02*
X8798500Y-15387200D01*
X9047200Y-15387200D02*
X9710000Y-16050000D01*
%TO.N,N2_V_m*%
X23476800Y-10325000D02*
X20690000Y-13111800D01*
X21710000Y-16050000D02*
X20690000Y-16050000D01*
X20690000Y-13111800D02*
X20690000Y-13800000D01*
X20062500Y-7350000D02*
X23749900Y-7350000D01*
X23749900Y-7350000D02*
X25160400Y-8760500D01*
X20142500Y-5370000D02*
X26850000Y-5370000D01*
X24137500Y-10325000D02*
X23476800Y-10325000D01*
X25160400Y-8760500D02*
X25160400Y-9941500D01*
X20690000Y-13800000D02*
X20690000Y-16050000D01*
X20062500Y-5450000D02*
X20142500Y-5370000D01*
X24776900Y-10325000D02*
X24137500Y-10325000D01*
X25160400Y-9941500D02*
X24776900Y-10325000D01*
X26850000Y-5370000D02*
X27480000Y-6000000D01*
X20062500Y-7350000D02*
X20062500Y-5450000D01*
%TO.N,N4_VSS*%
X52143200Y-16405500D02*
X52143200Y-9482000D01*
X56690000Y-13800000D02*
X56690000Y-13986200D01*
X53937500Y-7687700D02*
X53937500Y-6400000D01*
X52400700Y-16663000D02*
X52143200Y-16405500D01*
X54013200Y-16663000D02*
X52400700Y-16663000D01*
X57710000Y-13800000D02*
X56690000Y-13800000D01*
X56690000Y-13986200D02*
X54013200Y-16663000D01*
X52143200Y-9482000D02*
X53937500Y-7687700D01*
%TO.N,N11_VSS*%
X43753600Y-30402900D02*
X38934600Y-30402900D01*
X38934600Y-30402900D02*
X37937500Y-31400000D01*
X44046100Y-32980400D02*
X44046100Y-30695400D01*
X41710000Y-38800000D02*
X44374800Y-36135200D01*
X41710000Y-38800000D02*
X40690000Y-38800000D01*
X44046200Y-32980400D02*
X44046100Y-32980400D01*
X44046100Y-30695400D02*
X43753600Y-30402900D01*
X44374800Y-36135200D02*
X44374800Y-33309000D01*
X44374800Y-33309000D02*
X44046200Y-32980400D01*
%TO.N,N3_VSS*%
X38851000Y-7313500D02*
X37937500Y-6400000D01*
X40211800Y-16989900D02*
X42201300Y-16989900D01*
X42553000Y-16638200D02*
X46856900Y-16638200D01*
X42201300Y-16989900D02*
X42553000Y-16638200D01*
X47809300Y-9156900D02*
X45966000Y-7313600D01*
X38851000Y-7313600D02*
X38851000Y-7313500D01*
X39962600Y-15005900D02*
X39756500Y-15212000D01*
X40690000Y-13800000D02*
X40108200Y-14381800D01*
X40108200Y-14381800D02*
X40108200Y-14762700D01*
X46856900Y-16638200D02*
X47809300Y-15685800D01*
X41710000Y-13800000D02*
X40690000Y-13800000D01*
X45966000Y-7313600D02*
X38851000Y-7313600D01*
X39756500Y-16534600D02*
X40211800Y-16989900D01*
X47809300Y-15685800D02*
X47809300Y-9156900D01*
X39992800Y-15005900D02*
X39962600Y-15005900D01*
X39756500Y-15212000D02*
X39756500Y-16534600D01*
X39992800Y-14878100D02*
X39992800Y-15005900D01*
X40108200Y-14762700D02*
X39992800Y-14878100D01*
%TO.N,N16_VDD*%
X63037200Y-52002800D02*
X61490000Y-53550000D01*
X63037200Y-47087300D02*
X63037200Y-52002800D01*
X61862500Y-46525000D02*
X62474900Y-46525000D01*
X62474900Y-46525000D02*
X63037200Y-47087300D01*
%TO.N,N16_SPIKE_OUT*%
X62510000Y-53550000D02*
X61502700Y-54557300D01*
X61502700Y-54557300D02*
X51070000Y-54557300D01*
X55224100Y-46525000D02*
X54670200Y-47078900D01*
X56137500Y-46525000D02*
X55224100Y-46525000D01*
%TO.N,N2_SPIKE_OUT*%
X20302600Y-17049400D02*
X29510600Y-17049400D01*
X19694500Y-16441300D02*
X20302600Y-17049400D01*
X24137500Y-9025000D02*
X23542000Y-9025000D01*
X19694500Y-12872500D02*
X19694500Y-16441300D01*
X23542000Y-9025000D02*
X19694500Y-12872500D01*
X29510600Y-17049400D02*
X30510000Y-16050000D01*
%TO.N,N2_V_TH*%
X20092100Y-16339100D02*
X20092100Y-13088400D01*
X29490000Y-13800000D02*
X27240000Y-16050000D01*
X20092100Y-13088400D02*
X23505500Y-9675000D01*
X25084800Y-16675200D02*
X20428200Y-16675200D01*
X27240000Y-16050000D02*
X25710000Y-16050000D01*
X23505500Y-9675000D02*
X24137500Y-9675000D01*
X25710000Y-16050000D02*
X25084800Y-16675200D01*
X20428200Y-16675200D02*
X20092100Y-16339100D01*
%TO.N,N2_GND*%
X22283800Y-14373800D02*
X28026000Y-14373800D01*
X21710000Y-13402500D02*
X24137500Y-10975000D01*
X21710000Y-13800000D02*
X21710000Y-13402500D01*
X28026000Y-14373800D02*
X29226600Y-13173200D01*
X29226600Y-13173200D02*
X29883200Y-13173200D01*
X21710000Y-13800000D02*
X22283800Y-14373800D01*
X29883200Y-13173200D02*
X30510000Y-13800000D01*
%TO.N,N2_VDD*%
X31060200Y-14479800D02*
X29490000Y-16050000D01*
X29862500Y-9025000D02*
X30456000Y-9025000D01*
X31060200Y-9629200D02*
X31060200Y-14479800D01*
X30456000Y-9025000D02*
X31060200Y-9629200D01*
%TO.N,N11_GND*%
X43687800Y-41622200D02*
X46510000Y-38800000D01*
X40304900Y-41622200D02*
X43687800Y-41622200D01*
X37710000Y-38800000D02*
X37710000Y-38402500D01*
X37710000Y-38402500D02*
X40137500Y-35975000D01*
X37710000Y-39027300D02*
X40304900Y-41622200D01*
X37710000Y-38800000D02*
X37710000Y-39027300D01*
%TO.N,B7_LC_MID*%
X52478100Y-56634400D02*
X56709400Y-56634400D01*
X56709400Y-56634400D02*
X58075000Y-58000000D01*
X52062500Y-57050000D02*
X52478100Y-56634400D01*
%TO.N,N7_GND*%
X44099500Y-28346100D02*
X43323400Y-29122200D01*
X37710000Y-26300000D02*
X37710000Y-25902500D01*
X46510000Y-26300000D02*
X44463900Y-28346100D01*
X40304900Y-29122200D02*
X37710000Y-26527300D01*
X43323400Y-29122200D02*
X40304900Y-29122200D01*
X37710000Y-26527300D02*
X37710000Y-26300000D01*
X37710000Y-25902500D02*
X40137500Y-23475000D01*
X44463900Y-28346100D02*
X44099500Y-28346100D01*
%TO.N,N8_SPIKE_OUT*%
X61081300Y-23999800D02*
X61596000Y-23999800D01*
X63388900Y-25792700D02*
X63388900Y-27671100D01*
X61596000Y-23999800D02*
X63388900Y-25792700D01*
X58606500Y-21525000D02*
X61081300Y-23999800D01*
X56137500Y-21525000D02*
X58606500Y-21525000D01*
X63388900Y-27671100D02*
X62510000Y-28550000D01*
%TO.N,N8_V_TH*%
X58759200Y-22175000D02*
X61226700Y-24642500D01*
X63037200Y-26678100D02*
X62831700Y-26883600D01*
X59240000Y-28550000D02*
X57710000Y-28550000D01*
X63037200Y-25957600D02*
X63037200Y-26678100D01*
X62831700Y-26883600D02*
X62073600Y-26883600D01*
X62073600Y-26883600D02*
X61490000Y-26300000D01*
X61226700Y-24642500D02*
X61722100Y-24642500D01*
X56137500Y-22175000D02*
X58759200Y-22175000D01*
X61490000Y-26300000D02*
X59240000Y-28550000D01*
X61722100Y-24642500D02*
X63037200Y-25957600D01*
%TO.N,N8_GND*%
X53710000Y-25902500D02*
X56137500Y-23475000D01*
X53710000Y-26300000D02*
X54301200Y-25708800D01*
X53710000Y-26300000D02*
X53710000Y-25902500D01*
X61918800Y-25708800D02*
X62510000Y-26300000D01*
X54301200Y-25708800D02*
X61918800Y-25708800D01*
%TO.N,N8_VDD*%
X61490000Y-28550000D02*
X62062200Y-29122200D01*
X63740600Y-28187000D02*
X63740600Y-22790700D01*
X62474900Y-21525000D02*
X61862500Y-21525000D01*
X62062200Y-29122200D02*
X62805400Y-29122200D01*
X62805400Y-29122200D02*
X63740600Y-28187000D01*
X63740600Y-22790700D02*
X62474900Y-21525000D01*
%TO.N,N6_V_TH*%
X29490000Y-26300000D02*
X27240000Y-28550000D01*
X25172900Y-22618800D02*
X25172900Y-24900900D01*
X24165800Y-27005800D02*
X25710000Y-28550000D01*
X25172900Y-24900900D02*
X24165800Y-25908000D01*
X24729100Y-22175000D02*
X25172900Y-22618800D01*
X24165800Y-25908000D02*
X24165800Y-27005800D01*
X27240000Y-28550000D02*
X25710000Y-28550000D01*
X24137500Y-22175000D02*
X24729100Y-22175000D01*
%TO.N,N2_VSS*%
X25710000Y-13800000D02*
X25710000Y-8812800D01*
X25710000Y-8812800D02*
X23297200Y-6400000D01*
X25710000Y-13800000D02*
X24690000Y-13800000D01*
X23297200Y-6400000D02*
X21937500Y-6400000D01*
%TO.N,N1_VDD*%
X14456000Y-9025000D02*
X15060200Y-9629200D01*
X15060200Y-14479800D02*
X13490000Y-16050000D01*
X13862500Y-9025000D02*
X14456000Y-9025000D01*
X15060200Y-9629200D02*
X15060200Y-14479800D01*
%TO.N,N1_SPIKE_OUT*%
X13103100Y-8544900D02*
X14623200Y-8544900D01*
X8149100Y-13255900D02*
X8149100Y-14153100D01*
X15452000Y-9373700D02*
X15452000Y-15108000D01*
X15452000Y-15108000D02*
X14510000Y-16050000D01*
X8722900Y-9025000D02*
X9484200Y-9786300D01*
X8375700Y-14379700D02*
X10055400Y-14379700D01*
X8149100Y-14153100D02*
X8375700Y-14379700D01*
X12840500Y-11594600D02*
X12840500Y-8807500D01*
X9484200Y-11920800D02*
X8149100Y-13255900D01*
X9484200Y-9786300D02*
X9484200Y-11920800D01*
X12840500Y-8807500D02*
X13103100Y-8544900D01*
X10055400Y-14379700D02*
X12840500Y-11594600D01*
X14623200Y-8544900D02*
X15452000Y-9373700D01*
X8137500Y-9025000D02*
X8722900Y-9025000D01*
%TO.N,N14_VSS*%
X27828800Y-42914100D02*
X28044300Y-43129600D01*
X28044300Y-43129600D02*
X28044300Y-48965700D01*
X28044300Y-48965700D02*
X25710000Y-51300000D01*
X21937500Y-43900000D02*
X22923400Y-42914100D01*
X25710000Y-51300000D02*
X24690000Y-51300000D01*
X22923400Y-42914100D02*
X27828800Y-42914100D01*
%TO.N,N13_V_TH*%
X9055200Y-52895200D02*
X9710000Y-53550000D01*
X13490000Y-51300000D02*
X11240000Y-53550000D01*
X9160600Y-47581800D02*
X9160600Y-49415900D01*
X8753800Y-47175000D02*
X9160600Y-47581800D01*
X8806500Y-52895200D02*
X9055200Y-52895200D01*
X7813400Y-50763100D02*
X7813400Y-51902100D01*
X7813400Y-51902100D02*
X8806500Y-52895200D01*
X9160600Y-49415900D02*
X7813400Y-50763100D01*
X11240000Y-53550000D02*
X9710000Y-53550000D01*
X8137500Y-47175000D02*
X8753800Y-47175000D01*
%TO.N,N15_V_m*%
X39037500Y-47825000D02*
X36690000Y-50172500D01*
X38291500Y-47078900D02*
X36062500Y-44850000D01*
X41277200Y-45700900D02*
X39669500Y-45700900D01*
X36062500Y-44850000D02*
X36062500Y-42950000D01*
X36690000Y-53550000D02*
X36690000Y-51300000D01*
X41641400Y-45338600D02*
X41639500Y-45338600D01*
X36690000Y-50172500D02*
X36690000Y-51300000D01*
X39669500Y-45700900D02*
X38291500Y-47078900D01*
X37710000Y-53550000D02*
X36690000Y-53550000D01*
X43480000Y-43500000D02*
X41641400Y-45338600D01*
X40137500Y-47825000D02*
X39037500Y-47825000D01*
X41639500Y-45338600D02*
X41277200Y-45700900D01*
X39037500Y-47825000D02*
X38291500Y-47078900D01*
%TO.N,B14_LC_MID*%
X48700700Y-61125700D02*
X50075000Y-62500000D01*
X44486800Y-61125700D02*
X48700700Y-61125700D01*
X44062500Y-61550000D02*
X44486800Y-61125700D01*
%TO.N,N10_SPIKE_OUT*%
X31055700Y-38461300D02*
X31055700Y-40504300D01*
X29793000Y-37198600D02*
X31055700Y-38461300D01*
X26122100Y-34025000D02*
X29295700Y-37198600D01*
X24137500Y-34025000D02*
X26122100Y-34025000D01*
X29295700Y-37198600D02*
X29793000Y-37198600D01*
X31055700Y-40504300D02*
X30510000Y-41050000D01*
%TO.N,N10_VDD*%
X29278100Y-33440600D02*
X28601600Y-33440600D01*
X28601600Y-40301600D02*
X28741600Y-40301600D01*
X28741600Y-40301600D02*
X29490000Y-41050000D01*
X29862500Y-34025000D02*
X29278100Y-33440600D01*
%TO.N,B5_LC_MID*%
X40709400Y-56634400D02*
X42075000Y-58000000D01*
X36478100Y-56634400D02*
X40709400Y-56634400D01*
X36062500Y-57050000D02*
X36478100Y-56634400D01*
%TO.N,B3_LC_MID*%
X24709400Y-56634400D02*
X26075000Y-58000000D01*
X20062500Y-57050000D02*
X20478100Y-56634400D01*
X20478100Y-56634400D02*
X24709400Y-56634400D01*
%TO.N,N16_GND*%
X53710000Y-50902500D02*
X56137500Y-48475000D01*
X59651200Y-54158800D02*
X56389000Y-54158800D01*
X56389000Y-54158800D02*
X53710000Y-51479800D01*
X53710000Y-51479800D02*
X53710000Y-51300000D01*
X62510000Y-51300000D02*
X59651200Y-54158800D01*
X53710000Y-51300000D02*
X53710000Y-50902500D01*
%TO.N,N13_GND*%
X11651200Y-54158800D02*
X14510000Y-51300000D01*
X5710000Y-50902500D02*
X8137500Y-48475000D01*
X8389000Y-54158800D02*
X11651200Y-54158800D01*
X5710000Y-51300000D02*
X5710000Y-50902500D01*
X5710000Y-51479800D02*
X8389000Y-54158800D01*
X5710000Y-51300000D02*
X5710000Y-51479800D01*
%TO.N,N15_VSS*%
X44372900Y-48637100D02*
X44372900Y-47517800D01*
X41710000Y-51300000D02*
X44372900Y-48637100D01*
X44042300Y-47187300D02*
X44042300Y-43194300D01*
X38935100Y-42902400D02*
X37937500Y-43900000D01*
X43750400Y-42902400D02*
X38935100Y-42902400D01*
X44372900Y-47517800D02*
X44042400Y-47187300D01*
X41710000Y-51300000D02*
X40690000Y-51300000D01*
X44042400Y-47187300D02*
X44042300Y-47187300D01*
X44042300Y-43194300D02*
X43750400Y-42902400D01*
%TO.N,B1_LC_MID*%
X8709400Y-56634400D02*
X10075000Y-58000000D01*
X4478100Y-56634400D02*
X8709400Y-56634400D01*
X4062500Y-57050000D02*
X4478100Y-56634400D01*
%TO.N,N12_VSS*%
X57710000Y-38800000D02*
X60046100Y-36463900D01*
X57710000Y-38800000D02*
X56690000Y-38800000D01*
X59753600Y-30402900D02*
X54934600Y-30402900D01*
X60046100Y-36463900D02*
X60046100Y-30695400D01*
X60046100Y-30695400D02*
X59753600Y-30402900D01*
X54934600Y-30402900D02*
X53937500Y-31400000D01*
%TO.N,B9_LC_MID*%
X4062500Y-61550000D02*
X4486800Y-61125700D01*
X4486800Y-61125700D02*
X8700700Y-61125700D01*
X8700700Y-61125700D02*
X10075000Y-62500000D01*
%TO.N,N11_V_TH*%
X40724400Y-34675000D02*
X41177300Y-35127900D01*
X43240000Y-41050000D02*
X41710000Y-41050000D01*
X40149100Y-37875000D02*
X40149100Y-39489100D01*
X45490000Y-38800000D02*
X43240000Y-41050000D01*
X41177300Y-35127900D02*
X41177300Y-36846800D01*
X41177300Y-36846800D02*
X40149100Y-37875000D01*
X40137500Y-34675000D02*
X40724400Y-34675000D01*
X40149100Y-39489100D02*
X41710000Y-41050000D01*
%TO.N,B2_LC_MID*%
X12062500Y-57050000D02*
X12490400Y-56622100D01*
X16697100Y-56622100D02*
X18075000Y-58000000D01*
X12490400Y-56622100D02*
X16697100Y-56622100D01*
%TO.N,B6_LC_MID*%
X48697100Y-56622100D02*
X50075000Y-58000000D01*
X44490400Y-56622100D02*
X48697100Y-56622100D01*
X44062500Y-57050000D02*
X44490400Y-56622100D01*
%TO.N,B8_LC_MID*%
X60490400Y-56622100D02*
X64697100Y-56622100D01*
X64697100Y-56622100D02*
X66075000Y-58000000D01*
X60062500Y-57050000D02*
X60490400Y-56622100D01*
%TO.N,B10_LC_MID*%
X12062500Y-61550000D02*
X12486800Y-61125700D01*
X12486800Y-61125700D02*
X16700700Y-61125700D01*
X16700700Y-61125700D02*
X18075000Y-62500000D01*
%TO.N,B15_LC_MID*%
X56701000Y-61126000D02*
X58075000Y-62500000D01*
X52062500Y-61550000D02*
X52486500Y-61126000D01*
X52486500Y-61126000D02*
X56701000Y-61126000D01*
%TO.N,B13_LC_MID*%
X36486800Y-61125700D02*
X40700700Y-61125700D01*
X40700700Y-61125700D02*
X42075000Y-62500000D01*
X36062500Y-61550000D02*
X36486800Y-61125700D01*
%TO.N,N15_SPIKE_OUT*%
X40137500Y-46525000D02*
X42599900Y-46525000D01*
X42599900Y-46525000D02*
X43821200Y-47746300D01*
X48167200Y-54017200D02*
X46977200Y-54017200D01*
X46977200Y-54017200D02*
X46510000Y-53550000D01*
%TO.N,N15_VDD*%
X46456000Y-46525000D02*
X47060200Y-47129200D01*
X47060200Y-47129200D02*
X47060200Y-51979800D01*
X45862500Y-46525000D02*
X46456000Y-46525000D01*
X47060200Y-51979800D02*
X45490000Y-53550000D01*
%TO.N,N13_SPIKE_OUT*%
X8756300Y-46525000D02*
X9512400Y-47281100D01*
X8453200Y-51939500D02*
X10014400Y-51939500D01*
X10014400Y-51939500D02*
X12511500Y-49442400D01*
X12511500Y-46623000D02*
X13089600Y-46044900D01*
X12511500Y-49442400D02*
X12511500Y-46623000D01*
X9512400Y-49561400D02*
X8165100Y-50908700D01*
X8165100Y-50908700D02*
X8165100Y-51651400D01*
X13089600Y-46044900D02*
X14619000Y-46044900D01*
X9512400Y-47281100D02*
X9512400Y-49561400D01*
X15451800Y-46877700D02*
X15451800Y-52608200D01*
X8137500Y-46525000D02*
X8756300Y-46525000D01*
X14619000Y-46044900D02*
X15451800Y-46877700D01*
X15451800Y-52608200D02*
X14510000Y-53550000D01*
X8165100Y-51651400D02*
X8453200Y-51939500D01*
%TO.N,N13_VDD*%
X14456000Y-46525000D02*
X15060200Y-47129200D01*
X15060200Y-51979800D02*
X13490000Y-53550000D01*
X15060200Y-47129200D02*
X15060200Y-51979800D01*
X13862500Y-46525000D02*
X14456000Y-46525000D01*
%TO.N,N11_SPIKE_OUT*%
X40625000Y-33537500D02*
X43823100Y-33537500D01*
X40137500Y-34025000D02*
X40625000Y-33537500D01*
X46510000Y-41050000D02*
X47237300Y-41050000D01*
%TO.N,N11_VDD*%
X47060200Y-34629200D02*
X47060200Y-39479800D01*
X46456000Y-34025000D02*
X47060200Y-34629200D01*
X45862500Y-34025000D02*
X46456000Y-34025000D01*
X47060200Y-39479800D02*
X45490000Y-41050000D01*
%TO.N,N14_GND*%
X21710000Y-51300000D02*
X21710000Y-50902500D01*
X21710000Y-50902500D02*
X24137500Y-48475000D01*
X21710000Y-51300000D02*
X21710000Y-51479800D01*
X24389000Y-54158800D02*
X27651200Y-54158800D01*
X21710000Y-51479800D02*
X24389000Y-54158800D01*
X27651200Y-54158800D02*
X30510000Y-51300000D01*
%TD*%
M02*
